<svg xmlns="http://www.w3.org/2000/svg" viewBox="0 0 50 50"><defs><style>.cls-1{fill:#eabd7c;}.cls-2{fill:#f3debb;}.cls-3{fill:#d7a54a;}.cls-4{fill:#e6ca8f;}.cls-5{fill:#deb564;}.cls-6{fill:none;}.cls-7{fill:#be8849;}.cls-8{fill:#7da130;}.cls-9{fill:#9cb561;}.cls-10{fill:#a8bf3c;}.cls-11{fill:#b8ba4b;}.cls-12{fill:#ebeeb5;}.cls-13{fill:#89a633;}.cls-14{fill:#a6b33a;}.cls-15{fill:#597d20;}.cls-16{fill:#405a17;}.cls-17{fill:#c75336;}.cls-18{fill:#d13820;}.cls-19{fill:#33360e;}.cls-20{fill:#d1432f;}.cls-21{fill:#647b3d;}.cls-22{fill:#8f3e29;}.cls-23{fill:#bd6a3a;}.cls-24{fill:#485e2a;}.cls-25{fill:#c16ba2;}.cls-26{fill:#cb8eb5;}.cls-27{fill:#d99e69;}.cls-28{fill:#b45792;}.cls-29{fill:#69962b;}.cls-30{fill:#a7623b;}.cls-31{fill:#92b85d;}.cls-32{fill:#a3c96e;}.cls-33{fill:#dbacca;}</style></defs><g id="Layer_2" data-name="Layer 2"><g id="Layer_1-2" data-name="Layer 1"><circle class="cls-1" cx="45.19" cy="21.63" r="1.44"/><circle class="cls-1" cx="41.83" cy="21.63" r="1.44"/><circle class="cls-1" cx="38.46" cy="21.63" r="1.44"/><circle class="cls-1" cx="35.1" cy="21.63" r="1.44"/><circle class="cls-1" cx="31.73" cy="21.63" r="1.44"/><circle class="cls-1" cx="28.37" cy="21.63" r="1.44"/><circle class="cls-1" cx="25" cy="21.63" r="1.44"/><circle class="cls-1" cx="21.63" cy="21.63" r="1.44"/><circle class="cls-1" cx="18.27" cy="21.63" r="1.44"/><circle class="cls-2" cx="14.9" cy="21.63" r="1.44"/><circle class="cls-3" cx="11.54" cy="21.63" r="1.44"/><circle class="cls-3" cx="8.17" cy="21.63" r="1.44"/><circle class="cls-3" cx="4.81" cy="21.63" r="1.44"/><circle class="cls-3" cx="1.44" cy="21.63" r="1.44"/><circle class="cls-1" cx="45.19" cy="18.27" r="1.44"/><circle class="cls-1" cx="41.83" cy="18.27" r="1.44"/><circle class="cls-1" cx="38.46" cy="18.27" r="1.44"/><circle class="cls-1" cx="35.1" cy="18.27" r="1.44"/><circle class="cls-1" cx="31.73" cy="18.27" r="1.44"/><circle class="cls-1" cx="28.37" cy="18.27" r="1.44"/><circle class="cls-1" cx="25" cy="18.27" r="1.44"/><circle class="cls-2" cx="21.63" cy="18.27" r="1.44"/><circle class="cls-2" cx="18.27" cy="18.27" r="1.44"/><circle class="cls-4" cx="14.9" cy="18.27" r="1.44"/><circle class="cls-5" cx="11.54" cy="18.27" r="1.44"/><circle class="cls-5" cx="8.17" cy="18.27" r="1.44"/><circle class="cls-5" cx="4.81" cy="18.27" r="1.44"/><circle class="cls-1" cx="1.44" cy="18.27" r="1.44"/><circle class="cls-1" cx="45.19" cy="14.9" r="1.44"/><circle class="cls-1" cx="41.83" cy="14.9" r="1.44"/><circle class="cls-1" cx="38.46" cy="14.9" r="1.44"/><circle class="cls-1" cx="35.1" cy="14.9" r="1.44"/><circle class="cls-1" cx="31.73" cy="14.9" r="1.44"/><circle class="cls-4" cx="28.37" cy="14.9" r="1.44"/><circle class="cls-4" cx="25" cy="14.9" r="1.44"/><circle class="cls-4" cx="21.63" cy="14.9" r="1.44"/><circle class="cls-4" cx="18.27" cy="14.9" r="1.44"/><circle class="cls-1" cx="14.9" cy="14.9" r="1.44"/><circle class="cls-1" cx="11.54" cy="14.9" r="1.44"/><circle class="cls-1" cx="8.17" cy="14.9" r="1.44"/><circle class="cls-1" cx="4.81" cy="14.9" r="1.44"/><circle class="cls-6" cx="1.44" cy="14.9" r="1.44"/><circle class="cls-6" cx="48.56" cy="48.56" r="1.44"/><circle class="cls-7" cx="45.19" cy="48.56" r="1.44"/><circle class="cls-7" cx="41.83" cy="48.56" r="1.44"/><circle class="cls-7" cx="38.46" cy="48.56" r="1.44"/><circle class="cls-7" cx="35.1" cy="48.56" r="1.44"/><circle class="cls-7" cx="31.73" cy="48.56" r="1.44"/><circle class="cls-7" cx="28.37" cy="48.56" r="1.44"/><circle class="cls-7" cx="25" cy="48.56" r="1.44"/><circle class="cls-7" cx="21.63" cy="48.56" r="1.44"/><circle class="cls-7" cx="18.27" cy="48.56" r="1.44"/><circle class="cls-7" cx="14.9" cy="48.56" r="1.44"/><circle class="cls-7" cx="11.54" cy="48.56" r="1.44"/><circle class="cls-7" cx="8.17" cy="48.56" r="1.44"/><circle class="cls-7" cx="4.81" cy="48.56" r="1.44"/><circle class="cls-6" cx="1.44" cy="48.56" r="1.44"/><circle class="cls-1" cx="48.56" cy="45.19" r="1.44"/><circle class="cls-1" cx="45.19" cy="45.19" r="1.44"/><circle class="cls-8" cx="41.83" cy="45.19" r="1.44"/><circle class="cls-1" cx="38.46" cy="45.19" r="1.44"/><circle class="cls-9" cx="35.1" cy="45.19" r="1.44"/><circle class="cls-1" cx="31.73" cy="45.19" r="1.44"/><circle class="cls-1" cx="28.37" cy="45.19" r="1.44"/><circle class="cls-1" cx="25" cy="45.19" r="1.44"/><circle class="cls-1" cx="21.63" cy="45.19" r="1.44"/><circle class="cls-10" cx="18.27" cy="45.19" r="1.44"/><circle class="cls-1" cx="14.9" cy="45.19" r="1.44"/><circle class="cls-1" cx="11.54" cy="45.19" r="1.44"/><circle class="cls-1" cx="8.17" cy="45.19" r="1.44"/><circle class="cls-8" cx="4.81" cy="45.19" r="1.44"/><circle class="cls-1" cx="1.44" cy="45.19" r="1.44"/><circle class="cls-11" cx="48.56" cy="41.83" r="1.44"/><circle class="cls-8" cx="45.19" cy="41.83" r="1.44"/><circle class="cls-8" cx="41.83" cy="41.83" r="1.44"/><circle class="cls-8" cx="38.46" cy="41.83" r="1.44"/><circle class="cls-12" cx="35.1" cy="41.83" r="1.44"/><circle class="cls-9" cx="31.73" cy="41.83" r="1.44"/><circle class="cls-13" cx="28.37" cy="41.83" r="1.44"/><circle class="cls-14" cx="25" cy="41.83" r="1.44"/><circle class="cls-10" cx="21.63" cy="41.83" r="1.44"/><circle class="cls-12" cx="18.27" cy="41.83" r="1.44"/><circle class="cls-15" cx="14.9" cy="41.83" r="1.44"/><circle class="cls-16" cx="11.54" cy="41.83" r="1.44"/><circle class="cls-15" cx="8.17" cy="41.83" r="1.44"/><circle class="cls-8" cx="4.81" cy="41.83" r="1.44"/><circle class="cls-11" cx="1.44" cy="41.83" r="1.44"/><circle class="cls-17" cx="48.56" cy="38.46" r="1.44"/><circle class="cls-17" cx="45.19" cy="38.46" r="1.44"/><circle class="cls-18" cx="41.83" cy="38.46" r="1.44"/><circle class="cls-19" cx="38.46" cy="38.46" r="1.44"/><circle class="cls-9" cx="35.1" cy="38.46" r="1.44"/><circle class="cls-18" cx="31.73" cy="38.46" r="1.44"/><circle class="cls-18" cx="28.37" cy="38.46" r="1.44"/><circle class="cls-17" cx="25" cy="38.46" r="1.44"/><circle class="cls-10" cx="21.63" cy="38.46" r="1.44"/><circle class="cls-20" cx="18.27" cy="38.46" r="1.44"/><circle class="cls-20" cx="14.9" cy="38.46" r="1.44"/><circle class="cls-20" cx="11.54" cy="38.46" r="1.44"/><circle class="cls-20" cx="8.17" cy="38.46" r="1.44"/><circle class="cls-17" cx="4.81" cy="38.46" r="1.44"/><circle class="cls-8" cx="1.44" cy="38.46" r="1.44"/><circle class="cls-21" cx="48.56" cy="35.1" r="1.44"/><circle class="cls-21" cx="45.19" cy="35.1" r="1.44"/><circle class="cls-22" cx="41.83" cy="35.1" r="1.44"/><circle class="cls-22" cx="38.46" cy="35.1" r="1.44"/><circle class="cls-22" cx="35.1" cy="35.1" r="1.44"/><circle class="cls-22" cx="31.73" cy="35.1" r="1.44"/><circle class="cls-23" cx="28.37" cy="35.1" r="1.44"/><circle class="cls-18" cx="25" cy="35.1" r="1.44"/><circle class="cls-18" cx="21.63" cy="35.1" r="1.44"/><circle class="cls-19" cx="18.27" cy="35.1" r="1.44"/><circle class="cls-19" cx="14.9" cy="35.1" r="1.44"/><circle class="cls-19" cx="11.54" cy="35.1" r="1.44"/><circle class="cls-19" cx="8.17" cy="35.1" r="1.44"/><circle class="cls-19" cx="4.81" cy="35.1" r="1.44"/><circle class="cls-21" cx="1.44" cy="35.1" r="1.44"/><circle class="cls-24" cx="48.56" cy="31.73" r="1.44"/><circle class="cls-25" cx="45.19" cy="31.73" r="1.44"/><circle class="cls-26" cx="41.83" cy="31.73" r="1.44"/><circle class="cls-27" cx="38.46" cy="31.73" r="1.44"/><circle class="cls-25" cx="35.1" cy="31.73" r="1.44"/><circle class="cls-25" cx="31.73" cy="31.73" r="1.44"/><circle class="cls-28" cx="28.37" cy="31.73" r="1.44"/><circle class="cls-28" cx="25" cy="31.73" r="1.44"/><circle class="cls-29" cx="21.63" cy="31.73" r="1.44"/><circle class="cls-29" cx="18.27" cy="31.73" r="1.44"/><circle class="cls-29" cx="14.9" cy="31.73" r="1.44"/><circle class="cls-28" cx="11.54" cy="31.73" r="1.44"/><circle class="cls-28" cx="8.17" cy="31.73" r="1.44"/><circle class="cls-28" cx="4.81" cy="31.73" r="1.44"/><circle class="cls-28" cx="1.44" cy="31.73" r="1.44"/><circle class="cls-26" cx="48.56" cy="28.37" r="1.44"/><circle class="cls-29" cx="45.19" cy="28.37" r="1.44"/><circle class="cls-25" cx="41.83" cy="28.37" r="1.44"/><circle class="cls-25" cx="38.46" cy="28.37" r="1.44"/><circle class="cls-26" cx="35.1" cy="28.37" r="1.44"/><circle class="cls-30" cx="31.73" cy="28.37" r="1.44"/><circle class="cls-29" cx="28.37" cy="28.37" r="1.44"/><circle class="cls-29" cx="25" cy="28.37" r="1.44"/><circle class="cls-24" cx="21.63" cy="28.37" r="1.44"/><circle class="cls-26" cx="18.27" cy="28.37" r="1.44"/><circle class="cls-26" cx="14.9" cy="28.37" r="1.44"/><circle class="cls-29" cx="11.54" cy="28.37" r="1.44"/><circle class="cls-29" cx="8.17" cy="28.37" r="1.44"/><circle class="cls-29" cx="4.81" cy="28.37" r="1.44"/><circle class="cls-29" cx="1.44" cy="28.37" r="1.44"/><circle class="cls-29" cx="48.56" cy="25" r="1.44"/><circle class="cls-31" cx="45.19" cy="25" r="1.44"/><circle class="cls-32" cx="41.83" cy="25" r="1.44"/><circle class="cls-29" cx="38.46" cy="25" r="1.44"/><circle class="cls-29" cx="35.1" cy="25" r="1.44"/><circle class="cls-27" cx="31.73" cy="25" r="1.44"/><circle class="cls-23" cx="28.37" cy="25" r="1.44"/><circle class="cls-24" cx="25" cy="25" r="1.44"/><circle class="cls-33" cx="21.63" cy="25" r="1.44"/><circle class="cls-33" cx="18.27" cy="25" r="1.44"/><circle class="cls-23" cx="14.9" cy="25" r="1.44"/><circle class="cls-31" cx="11.54" cy="25" r="1.44"/><circle class="cls-31" cx="8.17" cy="25" r="1.44"/><circle class="cls-31" cx="4.81" cy="25" r="1.44"/><circle class="cls-29" cx="1.44" cy="25" r="1.44"/><circle class="cls-1" cx="48.56" cy="21.63" r="1.44"/><circle class="cls-1" cx="48.56" cy="18.27" r="1.44"/><circle class="cls-6" cx="48.56" cy="14.9" r="1.44"/><circle class="cls-6" cx="48.56" cy="11.54" r="1.44"/><circle class="cls-6" cx="45.19" cy="11.54" r="1.44"/><circle class="cls-6" cx="41.83" cy="11.54" r="1.44"/><circle class="cls-6" cx="38.46" cy="11.54" r="1.44"/><circle class="cls-6" cx="35.1" cy="11.54" r="1.44"/><circle class="cls-6" cx="31.73" cy="11.54" r="1.44"/><circle class="cls-6" cx="28.37" cy="11.54" r="1.44"/><circle class="cls-6" cx="25" cy="11.54" r="1.44"/><circle class="cls-6" cx="21.63" cy="11.54" r="1.44"/><circle class="cls-6" cx="18.27" cy="11.54" r="1.44"/><circle class="cls-6" cx="14.9" cy="11.54" r="1.44"/><circle class="cls-6" cx="11.54" cy="11.54" r="1.44"/><circle class="cls-6" cx="8.17" cy="11.54" r="1.44"/><circle class="cls-6" cx="4.81" cy="11.54" r="1.44"/><circle class="cls-6" cx="1.44" cy="11.54" r="1.44"/><circle class="cls-6" cx="48.56" cy="8.17" r="1.44"/><circle class="cls-6" cx="45.19" cy="8.17" r="1.44"/><circle class="cls-6" cx="41.83" cy="8.17" r="1.44"/><circle class="cls-6" cx="38.46" cy="8.17" r="1.44"/><circle class="cls-6" cx="35.1" cy="8.17" r="1.44"/><circle class="cls-6" cx="31.73" cy="8.17" r="1.44"/><circle class="cls-6" cx="28.37" cy="8.17" r="1.44"/><circle class="cls-6" cx="25" cy="8.17" r="1.44"/><circle class="cls-6" cx="21.63" cy="8.17" r="1.44"/><circle class="cls-6" cx="18.27" cy="8.17" r="1.44"/><circle class="cls-6" cx="14.9" cy="8.17" r="1.44"/><circle class="cls-6" cx="11.54" cy="8.17" r="1.44"/><circle class="cls-6" cx="8.17" cy="8.17" r="1.44"/><circle class="cls-6" cx="4.81" cy="8.17" r="1.44"/><circle class="cls-6" cx="1.44" cy="8.17" r="1.44"/><circle class="cls-6" cx="48.56" cy="4.81" r="1.44"/><circle class="cls-6" cx="45.19" cy="4.81" r="1.44"/><circle class="cls-6" cx="41.83" cy="4.81" r="1.44"/><circle class="cls-6" cx="38.46" cy="4.81" r="1.44"/><circle class="cls-6" cx="35.1" cy="4.81" r="1.44"/><circle class="cls-6" cx="31.73" cy="4.81" r="1.44"/><circle class="cls-6" cx="28.37" cy="4.81" r="1.44"/><circle class="cls-6" cx="25" cy="4.81" r="1.44"/><circle class="cls-6" cx="21.63" cy="4.81" r="1.44"/><circle class="cls-6" cx="18.27" cy="4.81" r="1.44"/><circle class="cls-6" cx="14.9" cy="4.81" r="1.44"/><circle class="cls-6" cx="11.54" cy="4.81" r="1.44"/><circle class="cls-6" cx="8.17" cy="4.81" r="1.44"/><circle class="cls-6" cx="4.81" cy="4.81" r="1.44"/><circle class="cls-6" cx="1.44" cy="4.81" r="1.44"/><circle class="cls-6" cx="48.56" cy="1.44" r="1.44"/><circle class="cls-6" cx="45.19" cy="1.44" r="1.44"/><circle class="cls-6" cx="41.83" cy="1.44" r="1.44"/><circle class="cls-6" cx="38.46" cy="1.44" r="1.44"/><circle class="cls-6" cx="35.1" cy="1.44" r="1.44"/><circle class="cls-6" cx="31.73" cy="1.44" r="1.44"/><circle class="cls-6" cx="28.37" cy="1.44" r="1.44"/><circle class="cls-6" cx="25" cy="1.44" r="1.44"/><circle class="cls-6" cx="21.63" cy="1.44" r="1.44"/><circle class="cls-6" cx="18.27" cy="1.44" r="1.44"/><circle class="cls-6" cx="14.9" cy="1.44" r="1.44"/><circle class="cls-6" cx="11.54" cy="1.44" r="1.44"/><circle class="cls-6" cx="8.17" cy="1.44" r="1.44"/><circle class="cls-6" cx="4.81" cy="1.44" r="1.44"/><circle class="cls-6" cx="1.44" cy="1.44" r="1.44"/></g></g></svg>