<svg xmlns="http://www.w3.org/2000/svg" viewBox="0 0 50 50"><defs><style>.cls-1{fill:#e9ab0d;}.cls-2{fill:#e1c77d;}.cls-3{fill:none;}.cls-4{fill:#ab650b;}.cls-5{fill:#e39b02;}.cls-6{fill:#985117;}.cls-7{fill:#b46829;}.cls-8{fill:#ec8;}.cls-9{fill:#e19600;}.cls-10{fill:#e2bb6c;}.cls-11{fill:#dca92e;}.cls-12{fill:#ce762e;}.cls-13{fill:#e8d797;}.cls-14{fill:#f5e0ae;}.cls-15{fill:#e7bc53;}.cls-16{fill:#e7c075;}.cls-17{fill:#e2c87c;}</style></defs><g id="Layer_2" data-name="Layer 2"><g id="Layer_1-2" data-name="Layer 1"><circle class="cls-1" cx="48.56" cy="48.56" r="1.44"/><circle class="cls-2" cx="45.19" cy="48.56" r="1.44"/><circle class="cls-2" cx="41.83" cy="48.56" r="1.44"/><circle class="cls-2" cx="38.46" cy="48.56" r="1.44"/><circle class="cls-2" cx="35.1" cy="48.56" r="1.44"/><circle class="cls-2" cx="31.73" cy="48.56" r="1.44"/><circle class="cls-2" cx="28.37" cy="48.56" r="1.44"/><circle class="cls-2" cx="25" cy="48.56" r="1.44"/><circle class="cls-2" cx="21.63" cy="48.56" r="1.44"/><circle class="cls-2" cx="18.27" cy="48.56" r="1.44"/><circle class="cls-2" cx="14.9" cy="48.56" r="1.44"/><circle class="cls-2" cx="11.54" cy="48.56" r="1.44"/><circle class="cls-2" cx="8.17" cy="48.56" r="1.44"/><circle class="cls-1" cx="4.81" cy="48.56" r="1.44"/><circle class="cls-3" cx="1.44" cy="48.56" r="1.44"/><circle class="cls-4" cx="48.56" cy="45.19" r="1.44"/><circle class="cls-4" cx="45.19" cy="45.19" r="1.44"/><circle class="cls-4" cx="41.83" cy="45.19" r="1.44"/><circle class="cls-4" cx="38.46" cy="45.19" r="1.44"/><circle class="cls-5" cx="35.1" cy="45.19" r="1.44"/><circle class="cls-5" cx="31.73" cy="45.19" r="1.44"/><circle class="cls-5" cx="28.37" cy="45.19" r="1.44"/><circle class="cls-6" cx="25" cy="45.19" r="1.44"/><circle class="cls-7" cx="21.63" cy="45.19" r="1.44"/><circle class="cls-5" cx="18.27" cy="45.19" r="1.44"/><circle class="cls-5" cx="14.9" cy="45.19" r="1.44"/><circle class="cls-7" cx="11.54" cy="45.19" r="1.44"/><circle class="cls-6" cx="8.17" cy="45.19" r="1.44"/><circle class="cls-6" cx="4.81" cy="45.19" r="1.44"/><circle class="cls-3" cx="1.44" cy="45.19" r="1.44"/><circle class="cls-8" cx="48.56" cy="41.83" r="1.44"/><circle class="cls-9" cx="45.19" cy="41.83" r="1.44"/><circle class="cls-2" cx="41.83" cy="41.83" r="1.44"/><circle class="cls-2" cx="38.46" cy="41.83" r="1.44"/><circle class="cls-2" cx="35.1" cy="41.83" r="1.44"/><circle class="cls-2" cx="31.73" cy="41.83" r="1.44"/><circle class="cls-2" cx="28.37" cy="41.83" r="1.44"/><circle class="cls-10" cx="25" cy="41.83" r="1.44"/><circle class="cls-10" cx="21.63" cy="41.83" r="1.44"/><circle class="cls-10" cx="18.27" cy="41.83" r="1.44"/><circle class="cls-10" cx="14.9" cy="41.83" r="1.44"/><circle class="cls-10" cx="11.54" cy="41.83" r="1.44"/><circle class="cls-10" cx="8.17" cy="41.83" r="1.44"/><circle class="cls-11" cx="4.81" cy="41.83" r="1.44"/><circle class="cls-12" cx="1.44" cy="41.83" r="1.44"/><circle class="cls-8" cx="48.56" cy="38.46" r="1.44"/><circle class="cls-8" cx="45.19" cy="38.46" r="1.44"/><circle class="cls-13" cx="41.83" cy="38.46" r="1.44"/><circle class="cls-9" cx="38.46" cy="38.46" r="1.44"/><circle class="cls-13" cx="35.1" cy="38.46" r="1.44"/><circle class="cls-10" cx="31.73" cy="38.46" r="1.44"/><circle class="cls-13" cx="28.37" cy="38.46" r="1.44"/><circle class="cls-10" cx="25" cy="38.46" r="1.44"/><circle class="cls-10" cx="21.63" cy="38.46" r="1.44"/><circle class="cls-10" cx="18.27" cy="38.46" r="1.44"/><circle class="cls-10" cx="14.9" cy="38.46" r="1.44"/><circle class="cls-10" cx="11.54" cy="38.46" r="1.44"/><circle class="cls-9" cx="8.17" cy="38.46" r="1.44"/><circle class="cls-11" cx="4.81" cy="38.46" r="1.44"/><circle class="cls-5" cx="1.44" cy="38.46" r="1.44"/><circle class="cls-8" cx="48.56" cy="35.1" r="1.44"/><circle class="cls-8" cx="45.19" cy="35.1" r="1.44"/><circle class="cls-13" cx="41.83" cy="35.1" r="1.44"/><circle class="cls-10" cx="38.46" cy="35.1" r="1.44"/><circle class="cls-13" cx="35.1" cy="35.1" r="1.44"/><circle class="cls-13" cx="31.73" cy="35.1" r="1.44"/><circle class="cls-13" cx="28.37" cy="35.1" r="1.44"/><circle class="cls-13" cx="25" cy="35.1" r="1.44"/><circle class="cls-10" cx="21.63" cy="35.1" r="1.44"/><circle class="cls-10" cx="18.27" cy="35.1" r="1.44"/><circle class="cls-10" cx="14.9" cy="35.1" r="1.44"/><circle class="cls-10" cx="11.54" cy="35.1" r="1.44"/><circle class="cls-10" cx="8.17" cy="35.1" r="1.44"/><circle class="cls-11" cx="4.81" cy="35.1" r="1.44"/><circle class="cls-5" cx="1.44" cy="35.1" r="1.44"/><circle class="cls-8" cx="48.56" cy="31.73" r="1.44"/><circle class="cls-10" cx="45.19" cy="31.73" r="1.44"/><circle class="cls-13" cx="41.83" cy="31.73" r="1.44"/><circle class="cls-13" cx="38.46" cy="31.73" r="1.44"/><circle class="cls-13" cx="35.1" cy="31.73" r="1.44"/><circle class="cls-13" cx="31.73" cy="31.73" r="1.44"/><circle class="cls-13" cx="28.37" cy="31.73" r="1.44"/><circle class="cls-13" cx="25" cy="31.73" r="1.44"/><circle class="cls-13" cx="21.63" cy="31.73" r="1.44"/><circle class="cls-13" cx="18.27" cy="31.73" r="1.44"/><circle class="cls-13" cx="14.9" cy="31.73" r="1.44"/><circle class="cls-14" cx="11.54" cy="31.73" r="1.44"/><circle class="cls-9" cx="8.17" cy="31.73" r="1.44"/><circle class="cls-11" cx="4.81" cy="31.73" r="1.44"/><circle class="cls-5" cx="1.44" cy="31.73" r="1.44"/><circle class="cls-8" cx="48.56" cy="28.37" r="1.44"/><circle class="cls-10" cx="45.19" cy="28.37" r="1.44"/><circle class="cls-13" cx="41.83" cy="28.37" r="1.44"/><circle class="cls-13" cx="38.46" cy="28.37" r="1.44"/><circle class="cls-13" cx="35.1" cy="28.37" r="1.44"/><circle class="cls-13" cx="31.73" cy="28.37" r="1.44"/><circle class="cls-13" cx="28.37" cy="28.37" r="1.44"/><circle class="cls-13" cx="25" cy="28.37" r="1.44"/><circle class="cls-13" cx="21.63" cy="28.37" r="1.44"/><circle class="cls-13" cx="18.27" cy="28.37" r="1.44"/><circle class="cls-13" cx="14.9" cy="28.37" r="1.44"/><circle class="cls-15" cx="11.54" cy="28.37" r="1.44"/><circle class="cls-15" cx="8.17" cy="28.37" r="1.44"/><circle class="cls-15" cx="4.81" cy="28.37" r="1.44"/><circle class="cls-5" cx="1.44" cy="28.37" r="1.44"/><circle class="cls-16" cx="48.56" cy="25" r="1.44"/><circle class="cls-10" cx="45.19" cy="25" r="1.44"/><circle class="cls-10" cx="41.83" cy="25" r="1.44"/><circle class="cls-13" cx="38.46" cy="25" r="1.44"/><circle class="cls-13" cx="35.1" cy="25" r="1.44"/><circle class="cls-13" cx="31.73" cy="25" r="1.44"/><circle class="cls-13" cx="28.37" cy="25" r="1.44"/><circle class="cls-13" cx="25" cy="25" r="1.44"/><circle class="cls-8" cx="21.93" cy="24.99" r="1.44"/><circle class="cls-13" cx="18.27" cy="25" r="1.44"/><circle class="cls-13" cx="14.9" cy="25" r="1.44"/><circle class="cls-14" cx="11.54" cy="25" r="1.44"/><circle class="cls-15" cx="8.17" cy="25" r="1.44"/><circle class="cls-15" cx="4.81" cy="25" r="1.44"/><circle class="cls-5" cx="1.44" cy="25" r="1.44"/><circle class="cls-16" cx="48.56" cy="21.63" r="1.44"/><circle class="cls-10" cx="45.19" cy="21.63" r="1.44"/><circle class="cls-10" cx="41.83" cy="21.63" r="1.44"/><circle class="cls-10" cx="38.46" cy="21.63" r="1.44"/><circle class="cls-13" cx="35.1" cy="21.63" r="1.44"/><circle class="cls-13" cx="31.73" cy="21.63" r="1.44"/><circle class="cls-13" cx="28.37" cy="21.63" r="1.44"/><circle class="cls-13" cx="25" cy="21.63" r="1.44"/><circle class="cls-8" cx="21.63" cy="21.63" r="1.44"/><circle class="cls-13" cx="18.27" cy="21.63" r="1.44"/><circle class="cls-13" cx="14.9" cy="21.63" r="1.44"/><circle class="cls-14" cx="11.54" cy="21.63" r="1.44"/><circle class="cls-14" cx="8.17" cy="21.63" r="1.44"/><circle class="cls-14" cx="4.81" cy="21.63" r="1.44"/><circle class="cls-11" cx="1.44" cy="21.63" r="1.44"/><circle class="cls-13" cx="48.56" cy="18.27" r="1.44"/><circle class="cls-17" cx="45.19" cy="18.27" r="1.44"/><circle class="cls-10" cx="41.83" cy="18.27" r="1.44"/><circle class="cls-10" cx="38.46" cy="18.27" r="1.44"/><circle class="cls-10" cx="35.1" cy="18.27" r="1.44"/><circle class="cls-14" cx="31.73" cy="18.27" r="1.44"/><circle class="cls-14" cx="28.37" cy="18.27" r="1.44"/><circle class="cls-14" cx="25" cy="18.27" r="1.44"/><circle class="cls-8" cx="21.34" cy="18.28" r="1.44"/><circle class="cls-14" cx="18.27" cy="18.27" r="1.44"/><circle class="cls-14" cx="14.9" cy="18.27" r="1.44"/><circle class="cls-14" cx="11.54" cy="18.27" r="1.44"/><circle class="cls-14" cx="8.17" cy="18.27" r="1.44"/><circle class="cls-14" cx="4.81" cy="18.27" r="1.44"/><circle class="cls-6" cx="1.44" cy="18.27" r="1.44"/><circle class="cls-3" cx="48.56" cy="14.9" r="1.44"/><circle class="cls-17" cx="45.19" cy="14.9" r="1.44"/><circle class="cls-17" cx="41.83" cy="14.9" r="1.44"/><circle class="cls-17" cx="38.46" cy="14.9" r="1.44"/><circle class="cls-17" cx="35.1" cy="14.9" r="1.44"/><circle class="cls-17" cx="31.73" cy="14.9" r="1.44"/><circle class="cls-17" cx="28.37" cy="14.9" r="1.44"/><circle class="cls-17" cx="25" cy="14.9" r="1.44"/><circle class="cls-17" cx="21.63" cy="14.9" r="1.44"/><circle class="cls-17" cx="18.27" cy="14.9" r="1.44"/><circle class="cls-14" cx="14.9" cy="14.9" r="1.44"/><circle class="cls-14" cx="11.54" cy="14.9" r="1.44"/><circle class="cls-14" cx="8.17" cy="14.9" r="1.44"/><circle class="cls-14" cx="4.81" cy="14.9" r="1.44"/><circle class="cls-12" cx="1.44" cy="14.9" r="1.44"/><circle class="cls-3" cx="48.56" cy="11.54" r="1.44"/><circle class="cls-3" cx="45.19" cy="11.54" r="1.44"/><circle class="cls-3" cx="41.83" cy="11.54" r="1.44"/><circle class="cls-3" cx="38.46" cy="11.54" r="1.44"/><circle class="cls-3" cx="35.1" cy="11.54" r="1.44"/><circle class="cls-3" cx="31.73" cy="11.54" r="1.44"/><circle class="cls-3" cx="28.37" cy="11.54" r="1.44"/><circle class="cls-3" cx="25" cy="11.54" r="1.44"/><circle class="cls-3" cx="21.63" cy="11.54" r="1.44"/><circle class="cls-3" cx="18.27" cy="11.54" r="1.44"/><circle class="cls-3" cx="14.9" cy="11.54" r="1.44"/><circle class="cls-3" cx="11.54" cy="11.54" r="1.44"/><circle class="cls-3" cx="8.17" cy="11.54" r="1.44"/><circle class="cls-3" cx="4.81" cy="11.54" r="1.44"/><circle class="cls-3" cx="1.44" cy="11.54" r="1.44"/><circle class="cls-3" cx="48.56" cy="8.17" r="1.44"/><circle class="cls-3" cx="45.19" cy="8.17" r="1.44"/><circle class="cls-3" cx="41.83" cy="8.17" r="1.44"/><circle class="cls-3" cx="38.46" cy="8.17" r="1.44"/><circle class="cls-3" cx="35.1" cy="8.17" r="1.44"/><circle class="cls-3" cx="31.73" cy="8.17" r="1.44"/><circle class="cls-3" cx="28.37" cy="8.17" r="1.44"/><circle class="cls-3" cx="25" cy="8.17" r="1.44"/><circle class="cls-3" cx="21.63" cy="8.17" r="1.44"/><circle class="cls-3" cx="18.27" cy="8.17" r="1.44"/><circle class="cls-3" cx="14.9" cy="8.17" r="1.44"/><circle class="cls-3" cx="11.54" cy="8.17" r="1.44"/><circle class="cls-3" cx="8.17" cy="8.17" r="1.44"/><circle class="cls-3" cx="4.81" cy="8.17" r="1.44"/><circle class="cls-3" cx="1.44" cy="8.17" r="1.44"/><circle class="cls-3" cx="48.56" cy="4.81" r="1.44"/><circle class="cls-3" cx="45.19" cy="4.81" r="1.44"/><circle class="cls-3" cx="41.83" cy="4.81" r="1.44"/><circle class="cls-3" cx="38.46" cy="4.81" r="1.44"/><circle class="cls-3" cx="35.1" cy="4.81" r="1.44"/><circle class="cls-3" cx="31.73" cy="4.81" r="1.44"/><circle class="cls-3" cx="28.37" cy="4.81" r="1.44"/><circle class="cls-3" cx="25" cy="4.81" r="1.44"/><circle class="cls-3" cx="21.63" cy="4.81" r="1.44"/><circle class="cls-3" cx="18.27" cy="4.81" r="1.44"/><circle class="cls-3" cx="14.9" cy="4.81" r="1.44"/><circle class="cls-3" cx="11.54" cy="4.81" r="1.44"/><circle class="cls-3" cx="8.17" cy="4.81" r="1.44"/><circle class="cls-3" cx="4.81" cy="4.81" r="1.44"/><circle class="cls-3" cx="1.44" cy="4.81" r="1.44"/><circle class="cls-3" cx="48.56" cy="1.44" r="1.44"/><circle class="cls-3" cx="45.19" cy="1.44" r="1.44"/><circle class="cls-3" cx="41.83" cy="1.44" r="1.44"/><circle class="cls-3" cx="38.46" cy="1.44" r="1.44"/><circle class="cls-3" cx="35.1" cy="1.44" r="1.44"/><circle class="cls-3" cx="31.73" cy="1.44" r="1.44"/><circle class="cls-3" cx="28.37" cy="1.44" r="1.44"/><circle class="cls-3" cx="25" cy="1.44" r="1.44"/><circle class="cls-3" cx="21.63" cy="1.44" r="1.44"/><circle class="cls-3" cx="18.27" cy="1.44" r="1.44"/><circle class="cls-3" cx="14.9" cy="1.44" r="1.44"/><circle class="cls-3" cx="11.54" cy="1.44" r="1.44"/><circle class="cls-3" cx="8.17" cy="1.44" r="1.44"/><circle class="cls-3" cx="4.81" cy="1.44" r="1.44"/><circle class="cls-3" cx="1.44" cy="1.44" r="1.44"/></g></g></svg>