<svg xmlns="http://www.w3.org/2000/svg" viewBox="0 0 50 50"><defs><style>.cls-1{fill:none;}.cls-2{fill:#6a5f46;}.cls-3{fill:#8d7959;}.cls-4{fill:#ac8c5a;}.cls-5{fill:#ccc7c1;}.cls-6{fill:#b4a27b;}.cls-7{fill:#867659;}.cls-8{fill:#abaaa9;}.cls-9{fill:#d6d6d6;}.cls-10{fill:#c1ac8d;}.cls-11{fill:#40392a;}.cls-12{fill:#d2bc9c;}.cls-13{fill:#8c7a5d;}.cls-14{fill:#8a857e;}.cls-15{fill:#4c483c;}.cls-16{fill:#5b5b5b;}.cls-17{fill:#a6a199;}</style></defs><g id="Layer_2" data-name="Layer 2"><g id="Layer_1-2" data-name="Layer 1"><circle class="cls-1" cx="48.56" cy="48.56" r="1.44"/><circle class="cls-1" cx="45.19" cy="48.56" r="1.44"/><circle class="cls-1" cx="41.83" cy="48.56" r="1.44"/><circle class="cls-1" cx="38.46" cy="48.56" r="1.44"/><circle class="cls-1" cx="35.1" cy="48.56" r="1.44"/><circle class="cls-2" cx="31.73" cy="48.56" r="1.44"/><circle class="cls-2" cx="28.37" cy="48.56" r="1.44"/><circle class="cls-2" cx="25" cy="48.56" r="1.44"/><circle class="cls-2" cx="21.63" cy="48.56" r="1.44"/><circle class="cls-2" cx="18.27" cy="48.56" r="1.44"/><circle class="cls-1" cx="14.9" cy="48.56" r="1.44"/><circle class="cls-1" cx="11.54" cy="48.56" r="1.44"/><circle class="cls-1" cx="8.17" cy="48.56" r="1.44"/><circle class="cls-1" cx="4.81" cy="48.56" r="1.44"/><circle class="cls-1" cx="1.44" cy="48.56" r="1.44"/><circle class="cls-1" cx="48.56" cy="45.19" r="1.44"/><circle class="cls-1" cx="45.19" cy="45.19" r="1.44"/><circle class="cls-1" cx="41.83" cy="45.19" r="1.44"/><circle class="cls-1" cx="38.46" cy="45.19" r="1.44"/><circle class="cls-2" cx="35.1" cy="45.19" r="1.44"/><circle class="cls-2" cx="31.73" cy="45.19" r="1.44"/><circle class="cls-2" cx="28.37" cy="45.19" r="1.44"/><circle class="cls-3" cx="25" cy="45.19" r="1.44"/><circle class="cls-3" cx="21.63" cy="45.19" r="1.44"/><circle class="cls-4" cx="18.27" cy="45.19" r="1.44"/><circle class="cls-5" cx="14.9" cy="45.19" r="1.44"/><circle class="cls-1" cx="11.54" cy="45.19" r="1.44"/><circle class="cls-1" cx="8.17" cy="45.19" r="1.44"/><circle class="cls-1" cx="4.81" cy="45.19" r="1.44"/><circle class="cls-1" cx="1.44" cy="45.19" r="1.44"/><circle class="cls-1" cx="48.56" cy="41.83" r="1.44"/><circle class="cls-1" cx="45.19" cy="41.83" r="1.44"/><circle class="cls-1" cx="41.83" cy="41.83" r="1.44"/><circle class="cls-2" cx="38.46" cy="41.83" r="1.44"/><circle class="cls-3" cx="35.1" cy="41.83" r="1.44"/><circle class="cls-2" cx="31.73" cy="41.83" r="1.44"/><circle class="cls-2" cx="28.37" cy="41.83" r="1.44"/><circle class="cls-3" cx="25" cy="41.83" r="1.44"/><circle class="cls-6" cx="21.63" cy="41.83" r="1.44"/><circle class="cls-7" cx="18.27" cy="41.83" r="1.44"/><circle class="cls-5" cx="14.9" cy="41.83" r="1.44"/><circle class="cls-5" cx="11.54" cy="41.83" r="1.44"/><circle class="cls-1" cx="8.17" cy="41.83" r="1.44"/><circle class="cls-1" cx="4.81" cy="41.83" r="1.44"/><circle class="cls-1" cx="1.44" cy="41.83" r="1.44"/><circle class="cls-1" cx="48.56" cy="38.46" r="1.44"/><circle class="cls-1" cx="45.19" cy="38.46" r="1.44"/><circle class="cls-1" cx="41.83" cy="38.46" r="1.44"/><circle class="cls-8" cx="38.46" cy="38.46" r="1.44"/><circle class="cls-4" cx="35.1" cy="38.46" r="1.44"/><circle class="cls-2" cx="31.73" cy="38.46" r="1.44"/><circle class="cls-2" cx="28.37" cy="38.46" r="1.44"/><circle class="cls-7" cx="25" cy="38.46" r="1.44"/><circle class="cls-7" cx="21.63" cy="38.46" r="1.44"/><circle class="cls-7" cx="18.27" cy="38.46" r="1.44"/><circle class="cls-4" cx="14.9" cy="38.46" r="1.44"/><circle class="cls-5" cx="11.54" cy="38.46" r="1.44"/><circle class="cls-1" cx="8.17" cy="38.46" r="1.44"/><circle class="cls-1" cx="4.81" cy="38.46" r="1.44"/><circle class="cls-1" cx="1.44" cy="38.46" r="1.44"/><circle class="cls-1" cx="48.56" cy="35.1" r="1.44"/><circle class="cls-1" cx="45.19" cy="35.1" r="1.44"/><circle class="cls-1" cx="41.83" cy="35.1" r="1.44"/><circle class="cls-9" cx="38.46" cy="35.1" r="1.44"/><circle class="cls-10" cx="35.1" cy="35.1" r="1.44"/><circle class="cls-2" cx="31.73" cy="35.1" r="1.44"/><circle class="cls-2" cx="28.37" cy="35.1" r="1.44"/><circle class="cls-7" cx="25" cy="35.1" r="1.44"/><circle class="cls-7" cx="21.63" cy="35.1" r="1.44"/><circle class="cls-7" cx="18.27" cy="35.1" r="1.44"/><circle class="cls-4" cx="14.9" cy="35.1" r="1.44"/><circle class="cls-5" cx="11.54" cy="35.1" r="1.44"/><circle class="cls-1" cx="8.17" cy="35.1" r="1.44"/><circle class="cls-1" cx="4.81" cy="35.1" r="1.44"/><circle class="cls-1" cx="1.44" cy="35.1" r="1.44"/><circle class="cls-1" cx="48.56" cy="31.73" r="1.44"/><circle class="cls-1" cx="45.19" cy="31.73" r="1.44"/><circle class="cls-1" cx="41.83" cy="31.73" r="1.44"/><circle class="cls-9" cx="38.46" cy="31.73" r="1.44"/><circle class="cls-10" cx="35.1" cy="31.73" r="1.44"/><circle class="cls-2" cx="31.73" cy="31.73" r="1.44"/><circle class="cls-2" cx="28.37" cy="31.73" r="1.44"/><circle class="cls-7" cx="25" cy="31.73" r="1.44"/><circle class="cls-7" cx="21.63" cy="31.73" r="1.44"/><circle class="cls-7" cx="18.27" cy="31.73" r="1.44"/><circle class="cls-4" cx="14.9" cy="31.73" r="1.44"/><circle class="cls-9" cx="11.54" cy="31.73" r="1.44"/><circle class="cls-1" cx="8.17" cy="31.73" r="1.44"/><circle class="cls-1" cx="4.81" cy="31.73" r="1.44"/><circle class="cls-1" cx="1.44" cy="31.73" r="1.44"/><circle class="cls-1" cx="48.56" cy="28.37" r="1.44"/><circle class="cls-1" cx="45.19" cy="28.37" r="1.44"/><circle class="cls-1" cx="41.83" cy="28.37" r="1.44"/><circle class="cls-9" cx="38.46" cy="28.37" r="1.44"/><circle class="cls-10" cx="35.1" cy="28.37" r="1.44"/><circle class="cls-2" cx="31.73" cy="28.37" r="1.44"/><circle class="cls-2" cx="28.37" cy="28.37" r="1.44"/><circle class="cls-3" cx="25" cy="28.37" r="1.44"/><circle class="cls-3" cx="21.63" cy="28.37" r="1.44"/><circle class="cls-10" cx="18.27" cy="28.37" r="1.44"/><circle class="cls-10" cx="14.9" cy="28.37" r="1.44"/><circle class="cls-9" cx="11.54" cy="28.37" r="1.44"/><circle class="cls-1" cx="8.17" cy="28.37" r="1.44"/><circle class="cls-1" cx="4.81" cy="28.37" r="1.44"/><circle class="cls-1" cx="1.44" cy="28.37" r="1.44"/><circle class="cls-1" cx="48.56" cy="25" r="1.44"/><circle class="cls-1" cx="45.19" cy="25" r="1.44"/><circle class="cls-1" cx="41.83" cy="25" r="1.44"/><circle class="cls-8" cx="38.46" cy="25" r="1.44"/><circle class="cls-10" cx="35.1" cy="25" r="1.44"/><circle class="cls-2" cx="31.73" cy="25" r="1.44"/><circle class="cls-2" cx="28.37" cy="25" r="1.44"/><circle class="cls-2" cx="25" cy="25" r="1.44"/><circle class="cls-3" cx="21.63" cy="25" r="1.44"/><circle class="cls-2" cx="18.27" cy="25" r="1.44"/><circle class="cls-10" cx="14.9" cy="25" r="1.44"/><circle class="cls-9" cx="11.54" cy="25" r="1.44"/><circle class="cls-1" cx="8.17" cy="25" r="1.44"/><circle class="cls-1" cx="4.81" cy="25" r="1.44"/><circle class="cls-1" cx="1.44" cy="25" r="1.44"/><circle class="cls-1" cx="48.56" cy="21.63" r="1.44"/><circle class="cls-1" cx="45.19" cy="21.63" r="1.44"/><circle class="cls-1" cx="41.83" cy="21.63" r="1.44"/><circle class="cls-8" cx="38.46" cy="21.63" r="1.44"/><circle class="cls-11" cx="35.1" cy="21.63" r="1.44"/><circle class="cls-2" cx="31.73" cy="21.63" r="1.44"/><circle class="cls-2" cx="28.37" cy="21.63" r="1.44"/><circle class="cls-2" cx="25" cy="21.63" r="1.44"/><circle class="cls-2" cx="21.63" cy="21.63" r="1.44"/><circle class="cls-2" cx="18.27" cy="21.63" r="1.44"/><circle class="cls-10" cx="14.9" cy="21.63" r="1.44"/><circle class="cls-9" cx="11.54" cy="21.63" r="1.44"/><circle class="cls-1" cx="8.17" cy="21.63" r="1.44"/><circle class="cls-1" cx="4.81" cy="21.63" r="1.44"/><circle class="cls-1" cx="1.44" cy="21.63" r="1.44"/><circle class="cls-1" cx="48.56" cy="18.27" r="1.44"/><circle class="cls-1" cx="45.19" cy="18.27" r="1.44"/><circle class="cls-1" cx="41.83" cy="18.27" r="1.44"/><circle class="cls-8" cx="38.46" cy="18.27" r="1.44"/><circle class="cls-11" cx="35.1" cy="18.27" r="1.44"/><circle class="cls-11" cx="31.73" cy="18.27" r="1.44"/><circle class="cls-12" cx="28.37" cy="18.27" r="1.44"/><circle class="cls-12" cx="25" cy="18.27" r="1.44"/><circle class="cls-12" cx="21.63" cy="18.27" r="1.44"/><circle class="cls-13" cx="18.27" cy="18.27" r="1.44"/><circle class="cls-5" cx="14.9" cy="18.27" r="1.44"/><circle class="cls-9" cx="11.54" cy="18.27" r="1.44"/><circle class="cls-1" cx="8.17" cy="18.27" r="1.44"/><circle class="cls-1" cx="4.81" cy="18.27" r="1.44"/><circle class="cls-1" cx="1.44" cy="18.27" r="1.44"/><circle class="cls-1" cx="48.56" cy="14.9" r="1.44"/><circle class="cls-1" cx="45.19" cy="14.9" r="1.44"/><circle class="cls-1" cx="41.83" cy="14.9" r="1.44"/><circle class="cls-1" cx="38.46" cy="14.9" r="1.44"/><circle class="cls-8" cx="35.1" cy="14.9" r="1.44"/><circle class="cls-14" cx="31.73" cy="14.9" r="1.44"/><circle class="cls-15" cx="28.37" cy="14.9" r="1.44"/><circle class="cls-15" cx="25" cy="14.9" r="1.44"/><circle class="cls-15" cx="21.63" cy="14.9" r="1.44"/><circle class="cls-14" cx="18.27" cy="14.9" r="1.44"/><circle class="cls-5" cx="14.9" cy="14.9" r="1.44"/><circle class="cls-1" cx="11.54" cy="14.9" r="1.44"/><circle class="cls-1" cx="8.17" cy="14.9" r="1.44"/><circle class="cls-1" cx="4.81" cy="14.9" r="1.44"/><circle class="cls-1" cx="1.44" cy="14.9" r="1.44"/><circle class="cls-1" cx="48.56" cy="11.54" r="1.44"/><circle class="cls-1" cx="45.19" cy="11.54" r="1.44"/><circle class="cls-1" cx="41.83" cy="11.54" r="1.44"/><circle class="cls-1" cx="38.46" cy="11.54" r="1.44"/><circle class="cls-16" cx="35.1" cy="11.54" r="1.44"/><circle class="cls-16" cx="31.73" cy="11.54" r="1.44"/><circle class="cls-16" cx="28.37" cy="11.54" r="1.44"/><circle class="cls-15" cx="25" cy="11.54" r="1.44"/><circle class="cls-15" cx="21.63" cy="11.54" r="1.44"/><circle class="cls-16" cx="18.27" cy="11.54" r="1.44"/><circle class="cls-16" cx="14.9" cy="11.54" r="1.44"/><circle class="cls-1" cx="11.54" cy="11.54" r="1.44"/><circle class="cls-1" cx="8.17" cy="11.54" r="1.44"/><circle class="cls-1" cx="4.81" cy="11.54" r="1.44"/><circle class="cls-1" cx="1.44" cy="11.54" r="1.44"/><circle class="cls-1" cx="48.56" cy="8.17" r="1.44"/><circle class="cls-1" cx="45.19" cy="8.17" r="1.44"/><circle class="cls-1" cx="41.83" cy="8.17" r="1.44"/><circle class="cls-1" cx="38.46" cy="8.17" r="1.44"/><circle class="cls-16" cx="35.1" cy="8.17" r="1.44"/><circle class="cls-16" cx="31.73" cy="8.17" r="1.44"/><circle class="cls-14" cx="28.37" cy="8.17" r="1.44"/><circle class="cls-17" cx="25" cy="8.17" r="1.44"/><circle class="cls-14" cx="21.63" cy="8.17" r="1.44"/><circle class="cls-17" cx="18.27" cy="8.17" r="1.44"/><circle class="cls-17" cx="14.9" cy="8.17" r="1.44"/><circle class="cls-1" cx="11.54" cy="8.17" r="1.44"/><circle class="cls-1" cx="8.17" cy="8.17" r="1.44"/><circle class="cls-1" cx="4.81" cy="8.17" r="1.44"/><circle class="cls-1" cx="1.44" cy="8.17" r="1.44"/><circle class="cls-1" cx="48.56" cy="4.81" r="1.44"/><circle class="cls-1" cx="45.19" cy="4.81" r="1.44"/><circle class="cls-1" cx="41.83" cy="4.81" r="1.44"/><circle class="cls-1" cx="38.46" cy="4.81" r="1.44"/><circle class="cls-16" cx="35.1" cy="4.81" r="1.44"/><circle class="cls-15" cx="31.73" cy="4.81" r="1.44"/><circle class="cls-14" cx="28.37" cy="4.81" r="1.44"/><circle class="cls-14" cx="25" cy="4.81" r="1.44"/><circle class="cls-5" cx="21.63" cy="4.81" r="1.44"/><circle class="cls-5" cx="18.27" cy="4.81" r="1.44"/><circle class="cls-14" cx="14.9" cy="4.81" r="1.44"/><circle class="cls-1" cx="11.54" cy="4.81" r="1.44"/><circle class="cls-1" cx="8.17" cy="4.81" r="1.44"/><circle class="cls-1" cx="4.81" cy="4.81" r="1.44"/><circle class="cls-1" cx="1.44" cy="4.81" r="1.44"/><circle class="cls-1" cx="48.56" cy="1.44" r="1.44"/><circle class="cls-1" cx="45.19" cy="1.44" r="1.44"/><circle class="cls-1" cx="41.83" cy="1.44" r="1.44"/><circle class="cls-1" cx="38.46" cy="1.44" r="1.44"/><circle class="cls-1" cx="35.1" cy="1.44" r="1.44"/><circle class="cls-16" cx="31.73" cy="1.44" r="1.44"/><circle class="cls-14" cx="28.37" cy="1.44" r="1.44"/><circle class="cls-14" cx="25" cy="1.44" r="1.44"/><circle class="cls-14" cx="21.63" cy="1.44" r="1.44"/><circle class="cls-14" cx="18.27" cy="1.44" r="1.44"/><circle class="cls-1" cx="14.9" cy="1.44" r="1.44"/><circle class="cls-1" cx="11.54" cy="1.44" r="1.44"/><circle class="cls-1" cx="8.17" cy="1.44" r="1.44"/><circle class="cls-1" cx="4.81" cy="1.44" r="1.44"/><circle class="cls-1" cx="1.44" cy="1.44" r="1.44"/></g></g></svg>