<svg width="121" height="13" viewBox="0 0 420 45" fill="none" xmlns="http://www.w3.org/2000/svg">
<path d="M15.4893 45C12.7591 45.0482 10.0465 44.5465 7.50701 43.5238C5.29445 42.6393 3.38124 41.1197 1.99936 39.1492C0.609811 37.0057 -0.0890946 34.474 5.20864e-06 31.9067V30.369H9.92887V31.7299C9.89281 32.4448 9.99848 33.1598 10.2396 33.8322C10.4807 34.5045 10.8523 35.1205 11.3322 35.6432C12.2677 36.6068 13.6811 37.0886 15.5723 37.0886C17.0723 37.169 18.5683 36.8678 19.9256 36.2122C20.4188 35.924 20.8221 35.4999 21.089 34.9884C21.356 34.477 21.4758 33.8992 21.4346 33.3214C21.4215 32.8158 21.2992 32.3193 21.0762 31.8675C20.8531 31.4156 20.535 31.0195 20.1444 30.7074C19.0936 29.8179 17.9156 29.0971 16.6512 28.57C15.0382 27.8614 13.3855 27.2503 11.7019 26.7401C9.7373 26.1179 7.85281 25.2584 6.0886 24.1799C4.38976 23.1566 2.94425 21.7493 1.86355 20.0666C0.73405 18.2043 0.172151 16.0423 0.248983 13.8544C0.185025 11.5245 0.894828 9.24079 2.26342 7.37319C3.68575 5.5291 5.57038 4.11057 7.71827 3.26754C10.1723 2.28258 12.7918 1.79677 15.429 1.83752C18.1218 1.78925 20.7985 2.26951 23.3132 3.25215C25.489 4.09301 27.3841 5.54942 28.7756 7.45006C30.1583 9.45009 30.8629 11.8552 30.7825 14.3003V15.838H20.8838V14.7617C20.9478 13.4202 20.4988 12.1056 19.6314 11.0943C18.7939 10.1794 17.4359 9.71809 15.5421 9.71809C14.0561 9.62763 12.5767 9.98311 11.2869 10.7406C10.7914 11.0719 10.3908 11.531 10.1258 12.0711C9.86077 12.6113 9.74077 13.2132 9.77797 13.816C9.77716 14.2984 9.88167 14.775 10.0839 15.2112C10.2862 15.6473 10.5811 16.0321 10.9474 16.3378C11.9051 17.148 12.9855 17.7946 14.1464 18.2522C15.4944 18.8313 17.0335 19.4311 18.7638 20.0513C21.0014 20.8174 23.1677 21.7848 25.2371 22.9421C26.9713 23.8866 28.4527 25.2484 29.5527 26.9093C30.6305 28.7444 31.1552 30.8619 31.0617 32.9985C31.1298 35.3408 30.4318 37.6398 29.0774 39.5336C27.649 41.394 25.7349 42.8062 23.5546 43.6084C20.9741 44.5776 18.2392 45.0495 15.4893 45ZM53.0545 14.1928V29.2158C53.0574 30.4032 52.8372 31.5802 52.4057 32.6832C52.0048 33.7399 51.3481 34.6762 50.4969 35.4049C49.6176 36.1296 48.5111 36.5064 47.3809 36.4659C46.3569 36.5395 45.3428 36.2215 44.5365 35.5741C43.8584 34.9528 43.3953 34.125 43.2162 33.2138C42.9826 32.1619 42.8687 31.0861 42.8767 30.0077V14.1928H32.9554V32.6986C32.9536 34.2076 33.1079 35.7126 33.4156 37.1886C33.7023 38.5815 34.2394 39.9084 35 41.102C35.7848 42.2948 36.8721 43.2486 38.1462 43.8621C39.7637 44.6026 41.5272 44.9525 43.2992 44.8847C45.0223 44.916 46.7331 44.5836 48.324 43.9082C50.2585 43.0801 51.9003 41.6724 53.0319 39.8718V44.2926H62.9306V14.1928H53.0545ZM96.2255 20.6432C95.0254 18.4537 93.2552 16.6446 91.1102 15.4152C89.0508 14.2369 86.727 13.6223 84.3652 13.6314C82.1023 13.6132 79.8809 14.2504 77.9597 15.469C77.037 16.0557 76.1904 16.7583 75.4398 17.5603V-1.52588e-05H65.5109V44.2926H75.4398V40.8099C76.1879 41.6477 77.0343 42.3888 77.9597 43.0164C79.8559 44.3039 82.0867 44.9839 84.3652 44.9692C86.7611 44.9875 89.1201 44.3673 91.2082 43.1702C93.3553 41.9165 95.1104 40.0693 96.2708 37.8421C97.6294 35.1309 98.2889 32.1122 98.1871 29.0697C98.2827 26.1329 97.6054 23.2234 96.2255 20.6432V20.6432ZM86.0326 34.6284C85.0603 35.5501 83.8314 36.1419 82.5154 36.3223C81.1993 36.5026 79.8607 36.2627 78.684 35.6355C77.6778 35.1124 76.8385 34.3083 76.264 33.3172C75.6896 32.3261 75.4037 31.189 75.4398 30.0385V28.1087C75.4015 26.9119 75.7226 25.7316 76.3602 24.7258C76.9482 23.8285 77.7574 23.1047 78.7066 22.6269C79.8842 22.0202 81.2132 21.7875 82.5219 21.9588C83.8306 22.1302 85.0588 22.6977 86.0476 23.5879C87.3202 24.7104 87.9565 26.5377 87.9565 29.0697C87.9565 31.6069 87.3152 33.4521 86.0326 34.6284V34.6284ZM131.444 2.90621V20.2973L143.72 2.90621H131.444ZM199.852 37.6038C200.99 37.6044 202.116 37.3635 203.157 36.8964C204.23 36.4015 205.139 35.6003 205.775 34.5899C206.364 33.615 206.701 32.5043 206.756 31.3609C206.235 31.4839 205.7 31.6069 205.134 31.7145C203.579 32.0066 202.055 32.2296 200.607 32.3757C199.394 32.4565 198.202 32.7343 197.076 33.1984C196.716 33.3487 196.41 33.609 196.2 33.9435C195.991 34.278 195.888 34.6703 195.906 35.0666C195.889 35.4438 195.975 35.8185 196.153 36.1495C196.331 36.4804 196.596 36.7549 196.917 36.9426C197.822 37.4205 198.834 37.6485 199.852 37.6038V37.6038ZM115.947 2.90621V25.2025H98.4663V31.3532H115.947V44.3311H121.515V2.90621H115.947ZM131.444 33.5982V44.2926H144.429L135.458 28.0471L131.444 33.5982ZM261.749 21.6351C261.034 20.1217 260.037 18.7641 258.814 17.6371C257.409 16.3515 255.771 15.3566 253.993 14.7078C251.851 13.9337 249.589 13.5587 247.316 13.6008C244.265 13.5235 241.239 14.1877 238.489 15.5382C237.275 16.1601 236.153 16.9519 235.154 17.8908V2.90621H229.216V44.2926H235.154V40.51C236.149 41.4783 237.272 42.3011 238.489 42.9549C243.347 45.3215 248.924 45.6474 254.016 43.8621C255.8 43.1994 257.44 42.1888 258.845 40.8868C260.071 39.7524 261.064 38.3802 261.764 36.8504C262.399 35.4899 262.736 34.0051 262.753 32.4987H252.907C252.831 33.3161 252.573 34.1051 252.152 34.8052C251.717 35.5205 251.084 36.0899 250.334 36.4429C249.35 36.8887 248.279 37.0992 247.203 37.058C246.006 37.0812 244.83 36.7413 243.823 36.0815C242.826 35.3904 242.041 34.4254 241.56 33.2983C240.99 31.9844 240.71 30.5595 240.737 29.1235C240.696 27.6937 240.977 26.2732 241.56 24.9718C242.049 23.9067 242.836 23.0132 243.823 22.4039C244.805 21.8727 245.892 21.5721 247.003 21.5242C248.114 21.4763 249.221 21.6823 250.244 22.1271C250.95 22.4795 251.558 23.0085 252.009 23.6648C252.397 24.2365 252.68 24.8744 252.847 25.5484C252.878 25.6514 252.9 25.7569 252.914 25.8637C252.914 25.9559 252.914 26.0636 252.914 26.1712H262.723V25.9175C262.712 24.4344 262.379 22.9721 261.749 21.6351V21.6351ZM207.359 41.9093C207.276 41.6556 207.216 41.4172 207.148 41.1404C206.862 41.4442 206.557 41.7292 206.235 41.9938C204.993 42.973 203.584 43.7082 202.078 44.162L201.708 44.262H208.748C208.51 43.9844 208.293 43.6888 208.099 43.3778C207.792 42.9222 207.544 42.4287 207.359 41.9093V41.9093ZM154.169 2.90621L141.237 20.5894L155.248 44.262H164.792C163.636 43.9482 162.52 43.4993 161.465 42.9242C159.057 41.6538 157.054 39.7094 155.693 37.3193C154.31 34.8128 153.61 31.9753 153.664 29.1004C153.599 26.2414 154.301 23.4186 155.693 20.9354C157.063 18.5965 159.067 16.7114 161.465 15.5075C164.215 14.1569 167.24 13.4927 170.292 13.57C172.565 13.528 174.827 13.903 176.969 14.6771C178.747 15.3259 180.385 16.3207 181.79 17.6064C183.011 18.7354 184.007 20.0925 184.725 21.6043C185.367 22.9412 185.709 24.4064 185.729 25.8944V26.1481H175.92C175.92 26.0405 175.92 25.9328 175.92 25.8406C175.903 25.7336 175.878 25.6283 175.845 25.5254C175.685 24.8507 175.404 24.212 175.015 23.6417C174.564 22.9854 173.956 22.4564 173.25 22.104C172.231 21.6617 171.128 21.4563 170.021 21.5028C168.914 21.5494 167.832 21.8467 166.852 22.3731C165.865 22.9824 165.077 23.876 164.588 24.9411C164.002 26.2413 163.72 27.6627 163.766 29.0928C163.735 30.5292 164.016 31.9547 164.588 33.2676C165.07 34.3946 165.854 35.3596 166.852 36.0507C167.858 36.7105 169.035 37.0504 170.232 37.0272C171.308 37.0676 172.379 36.8572 173.363 36.4121C174.112 36.0569 174.743 35.488 175.181 34.7744C175.602 34.0743 175.86 33.2854 175.936 32.4679H185.781C185.765 33.9743 185.428 35.4591 184.793 36.8196C184.087 38.3462 183.096 39.7174 181.873 40.856C180.469 42.158 178.829 43.1686 177.045 43.8314C176.63 43.9928 176.2 44.1313 175.754 44.262H192.459C192.089 44.1466 191.704 44.0236 191.365 43.8775C189.8 43.2622 188.434 42.2161 187.419 40.856C186.43 39.4575 185.921 37.766 185.97 36.043C185.886 34.1086 186.535 32.2152 187.781 30.7534C189.076 29.3502 190.69 28.2939 192.481 27.6781C194.456 26.9578 196.511 26.4955 198.6 26.3019C201.708 25.9995 203.833 25.7433 204.975 25.5331C206.122 25.2948 206.688 24.8872 206.688 24.3029V24.2414C206.677 23.7773 206.541 23.3252 206.293 22.9356C206.045 22.546 205.696 22.2341 205.285 22.0349C204.096 21.407 202.766 21.1124 201.429 21.1815C200.064 21.0863 198.703 21.419 197.529 22.1348C197.087 22.4607 196.735 22.8956 196.504 23.3986C196.273 23.9016 196.171 24.4562 196.208 25.0103H186.4C186.33 22.7502 187.043 20.5371 188.415 18.7596C189.854 17.0014 191.734 15.6731 193.854 14.9154C196.307 14.015 198.898 13.5723 201.505 13.6084C204.034 13.586 206.549 13.9993 208.944 14.8309C211.087 15.5423 213.006 16.8212 214.504 18.5366C215.96 20.3122 216.718 22.575 216.632 24.8872V37.2425C216.632 38.0113 216.632 38.7801 216.685 39.549C216.713 40.2454 216.816 40.9364 216.994 41.6094C217.162 42.2178 217.416 42.798 217.748 43.3316C217.959 43.6853 218.213 44.0107 218.503 44.3003H219.499V2.90621H154.169ZM284.195 14.1928V29.2158C284.199 30.404 283.976 31.5818 283.538 32.6832C283.14 33.7394 282.486 34.6757 281.637 35.4049C280.757 36.1284 279.651 36.505 278.521 36.4659C277.495 36.5407 276.478 36.2227 275.669 35.5741C274.997 34.9484 274.535 34.1225 274.349 33.2138C274.122 32.161 274.01 31.0856 274.017 30.0077V14.1928H264.141V32.6986C264.135 34.2078 264.29 35.7132 264.601 37.1886C264.882 38.5834 265.42 39.9114 266.186 41.102C266.968 42.2945 268.052 43.2484 269.324 43.8621C270.944 44.6032 272.71 44.9531 274.485 44.8847C276.205 44.9161 277.914 44.5836 279.502 43.9082C280.942 43.2799 282.23 42.3378 283.274 41.1481C283.614 40.7425 283.929 40.3163 284.218 39.8718V44.2926H294.116V14.1928H284.195ZM306.829 -1.52588e-05V44.2926H297.089V-1.52588e-05H306.829ZM340.38 43.3239C340.048 42.7902 339.794 42.2101 339.626 41.6017C339.455 40.9276 339.353 40.237 339.324 39.5413C339.287 38.7725 339.264 38.0036 339.264 37.2348V24.8795C339.35 22.5687 338.595 20.3071 337.144 18.5289C335.644 16.8118 333.722 15.5328 331.576 14.8232C329.182 13.9904 326.666 13.5771 324.137 13.6008C321.533 13.5652 318.944 14.0079 316.494 14.9077C314.372 15.6633 312.492 16.992 311.054 18.7519C309.682 20.5294 308.969 22.7425 309.04 25.0026H318.848C318.811 24.4485 318.912 23.8939 319.143 23.3909C319.374 22.8879 319.727 22.453 320.168 22.1271C321.342 21.4113 322.704 21.0786 324.069 21.1738C325.405 21.1047 326.736 21.3993 327.924 22.0272C328.336 22.2264 328.685 22.5383 328.933 22.9279C329.18 23.3175 329.317 23.7696 329.327 24.2337V24.2952C329.327 24.8795 328.754 25.2871 327.615 25.5254C326.476 25.7638 324.348 26.0328 321.232 26.2942C319.146 26.4886 317.093 26.9509 315.121 27.6704C313.329 28.2842 311.714 29.3408 310.42 30.7457C309.174 32.2075 308.526 34.1009 308.61 36.0353C308.56 37.7583 309.069 39.4498 310.058 40.8483C311.074 42.2084 312.44 43.2545 314.004 43.8698C315.822 44.5871 317.759 44.937 319.708 44.9001C321.424 44.9033 323.13 44.6441 324.77 44.1312C326.275 43.6758 327.685 42.9408 328.928 41.9631C329.249 41.6986 329.554 41.4134 329.84 41.1096C329.908 41.3557 329.969 41.594 330.052 41.8785C330.239 42.4214 330.492 42.9381 330.806 43.4162C331.002 43.7279 331.222 44.0235 331.463 44.3003H341.165C340.875 44.0063 340.619 43.6786 340.403 43.3239H340.38ZM328.437 34.6284C327.801 35.6388 326.892 36.44 325.819 36.9349C324.778 37.4019 323.652 37.6429 322.515 37.6423C321.49 37.7043 320.467 37.4894 319.549 37.0195C319.227 36.8331 318.961 36.5589 318.783 36.2277C318.604 35.8964 318.52 35.521 318.539 35.1436C318.52 34.7481 318.621 34.3564 318.829 34.022C319.037 33.6876 319.341 33.4268 319.7 33.2753C320.827 32.813 322.019 32.5354 323.231 32.4526C324.74 32.304 326.262 32.0835 327.796 31.7914C328.362 31.6837 328.897 31.5607 329.418 31.4377C329.364 32.5659 329.035 33.6626 328.46 34.6284H328.437ZM356.549 44.9692C355.286 44.9643 354.025 44.864 352.776 44.6694C351.494 44.4852 350.251 44.0797 349.102 43.47C347.953 42.8428 346.999 41.8999 346.348 40.7483C345.593 39.2759 345.234 37.6259 345.307 35.9662V21.8887H338.607V14.2004H339.634C340.657 14.2171 341.681 14.1606 342.697 14.0313C343.347 13.9775 343.953 13.6754 344.394 13.1855C344.832 12.5652 345.093 11.8334 345.149 11.0712C345.288 9.74865 345.348 8.41866 345.33 7.08863V4.31315H355.289V14.2004H363.588V21.8887H355.289V33.2522C355.262 34.2607 355.402 35.2666 355.704 36.2276C355.983 36.9964 356.707 37.4116 357.869 37.4116C358.488 37.4159 359.105 37.3515 359.71 37.2194C360.142 37.1224 360.568 36.9991 360.985 36.8504V44.2697C360.417 44.4874 359.831 44.6546 359.235 44.7693C358.356 44.9285 357.464 44.9955 356.571 44.9692H356.549ZM379.598 44.9692C376.613 45.0331 373.659 44.3466 370.997 42.9703C368.593 41.708 366.58 39.792 365.18 37.4347C363.805 34.9402 363.082 32.1271 363.082 29.2658C363.082 26.4045 363.805 23.5914 365.18 21.0969C366.581 18.7463 368.595 16.838 370.997 15.5843C373.685 14.2785 376.624 13.6008 379.602 13.6008C382.579 13.6008 385.519 14.2785 388.207 15.5843C390.608 16.8361 392.62 18.745 394.016 21.0969C395.396 23.5899 396.121 26.4036 396.121 29.2658C396.121 32.1279 395.396 34.9416 394.016 37.4347C392.621 39.7933 390.609 41.7099 388.207 42.9703C385.549 44.3435 382.6 45.03 379.621 44.9692H379.598ZM379.598 37.1809C380.819 37.2135 382.022 36.8678 383.046 36.1892C384.048 35.5096 384.834 34.5479 385.309 33.4213C386.356 30.7508 386.356 27.773 385.309 25.1025C384.834 23.9902 384.047 23.0459 383.046 22.3885C382.006 21.7544 380.817 21.4196 379.606 21.4196C378.394 21.4196 377.205 21.7544 376.165 22.3885C375.162 23.0434 374.374 23.9884 373.902 25.1025C372.855 27.773 372.855 30.7508 373.902 33.4213C374.375 34.5491 375.162 35.5112 376.165 36.1892C377.192 36.8693 378.397 37.2151 379.621 37.1809H379.598ZM418.77 13.8544C417.86 13.6581 416.931 13.573 416.001 13.6008C414.639 13.5798 413.285 13.8197 412.01 14.308C410.858 14.7655 409.808 15.456 408.924 16.3378C408.345 16.9289 407.838 17.5899 407.415 18.306V14.1928H397.502V44.2926H407.431V30.8303C407.432 29.8141 407.569 28.8029 407.838 27.8242C408.096 26.8395 408.539 25.9152 409.143 25.1025C409.784 24.2654 410.615 23.6003 411.565 23.165C412.735 22.6479 414.003 22.4011 415.277 22.4424C416 22.4234 416.721 22.5247 417.412 22.7422C417.794 22.8601 418.168 23.0066 418.529 23.1804L420.038 14.2542C419.638 14.0755 419.221 13.9415 418.793 13.8544H418.77Z" fill="#00A652"/>
</svg>
