<svg width="50" height="50" viewBox="0 0 50 50" fill="none" xmlns="http://www.w3.org/2000/svg">
<path d="M48.5601 50C49.3554 50 50.0001 49.3553 50.0001 48.56C50.0001 47.7647 49.3554 47.12 48.5601 47.12C47.7648 47.12 47.1201 47.7647 47.1201 48.56C47.1201 49.3553 47.7648 50 48.5601 50Z" fill="black"/>
<path d="M45.19 50C45.9853 50 46.63 49.3553 46.63 48.56C46.63 47.7647 45.9853 47.12 45.19 47.12C44.3947 47.12 43.75 47.7647 43.75 48.56C43.75 49.3553 44.3947 50 45.19 50Z" fill="black"/>
<path d="M41.8299 50C42.6252 50 43.2699 49.3553 43.2699 48.56C43.2699 47.7647 42.6252 47.12 41.8299 47.12C41.0346 47.12 40.3899 47.7647 40.3899 48.56C40.3899 49.3553 41.0346 50 41.8299 50Z" fill="black"/>
<path d="M38.46 50C39.2553 50 39.9 49.3553 39.9 48.56C39.9 47.7647 39.2553 47.12 38.46 47.12C37.6647 47.12 37.02 47.7647 37.02 48.56C37.02 49.3553 37.6647 50 38.46 50Z" fill="black"/>
<path d="M35.0999 50C35.8952 50 36.5399 49.3553 36.5399 48.56C36.5399 47.7647 35.8952 47.12 35.0999 47.12C34.3046 47.12 33.6599 47.7647 33.6599 48.56C33.6599 49.3553 34.3046 50 35.0999 50Z" fill="black"/>
<path d="M31.73 50C32.5253 50 33.17 49.3553 33.17 48.56C33.17 47.7647 32.5253 47.12 31.73 47.12C30.9347 47.12 30.29 47.7647 30.29 48.56C30.29 49.3553 30.9347 50 31.73 50Z" fill="black"/>
<path d="M28.3699 50C29.1652 50 29.8099 49.3553 29.8099 48.56C29.8099 47.7647 29.1652 47.12 28.3699 47.12C27.5746 47.12 26.9299 47.7647 26.9299 48.56C26.9299 49.3553 27.5746 50 28.3699 50Z" fill="black"/>
<path d="M25.0001 50C25.7953 50 26.4401 49.3553 26.4401 48.56C26.4401 47.7647 25.7953 47.12 25.0001 47.12C24.2048 47.12 23.5601 47.7647 23.5601 48.56C23.5601 49.3553 24.2048 50 25.0001 50Z" fill="black"/>
<path d="M21.6299 50C22.4252 50 23.0699 49.3553 23.0699 48.56C23.0699 47.7647 22.4252 47.12 21.6299 47.12C20.8346 47.12 20.1899 47.7647 20.1899 48.56C20.1899 49.3553 20.8346 50 21.6299 50Z" fill="black"/>
<path d="M18.2701 50C19.0654 50 19.7101 49.3553 19.7101 48.56C19.7101 47.7647 19.0654 47.12 18.2701 47.12C17.4748 47.12 16.8301 47.7647 16.8301 48.56C16.8301 49.3553 17.4748 50 18.2701 50Z" fill="black"/>
<path d="M14.9 50C15.6953 50 16.34 49.3553 16.34 48.56C16.34 47.7647 15.6953 47.12 14.9 47.12C14.1047 47.12 13.46 47.7647 13.46 48.56C13.46 49.3553 14.1047 50 14.9 50Z" fill="black"/>
<path d="M11.5401 50C12.3354 50 12.9801 49.3553 12.9801 48.56C12.9801 47.7647 12.3354 47.12 11.5401 47.12C10.7448 47.12 10.1001 47.7647 10.1001 48.56C10.1001 49.3553 10.7448 50 11.5401 50Z" fill="black"/>
<path d="M8.16998 50C8.96527 50 9.60998 49.3553 9.60998 48.56C9.60998 47.7647 8.96527 47.12 8.16998 47.12C7.37469 47.12 6.72998 47.7647 6.72998 48.56C6.72998 49.3553 7.37469 50 8.16998 50Z" fill="black"/>
<path d="M4.81012 50C5.60541 50 6.25012 49.3553 6.25012 48.56C6.25012 47.7647 5.60541 47.12 4.81012 47.12C4.01483 47.12 3.37012 47.7647 3.37012 48.56C3.37012 49.3553 4.01483 50 4.81012 50Z" fill="black"/>
<path d="M1.44 50C2.23529 50 2.88 49.3553 2.88 48.56C2.88 47.7647 2.23529 47.12 1.44 47.12C0.64471 47.12 0 47.7647 0 48.56C0 49.3553 0.64471 50 1.44 50Z" fill="black"/>
<path d="M48.5601 46.63C49.3554 46.63 50.0001 45.9853 50.0001 45.19C50.0001 44.3947 49.3554 43.75 48.5601 43.75C47.7648 43.75 47.1201 44.3947 47.1201 45.19C47.1201 45.9853 47.7648 46.63 48.5601 46.63Z" fill="black"/>
<path d="M45.19 46.63C45.9853 46.63 46.63 45.9853 46.63 45.19C46.63 44.3947 45.9853 43.75 45.19 43.75C44.3947 43.75 43.75 44.3947 43.75 45.19C43.75 45.9853 44.3947 46.63 45.19 46.63Z" fill="black"/>
<path d="M41.8299 46.63C42.6252 46.63 43.2699 45.9853 43.2699 45.19C43.2699 44.3947 42.6252 43.75 41.8299 43.75C41.0346 43.75 40.3899 44.3947 40.3899 45.19C40.3899 45.9853 41.0346 46.63 41.8299 46.63Z" fill="black"/>
<path d="M38.46 46.63C39.2553 46.63 39.9 45.9853 39.9 45.19C39.9 44.3947 39.2553 43.75 38.46 43.75C37.6647 43.75 37.02 44.3947 37.02 45.19C37.02 45.9853 37.6647 46.63 38.46 46.63Z" fill="black"/>
<path d="M35.0999 46.63C35.8952 46.63 36.5399 45.9853 36.5399 45.19C36.5399 44.3947 35.8952 43.75 35.0999 43.75C34.3046 43.75 33.6599 44.3947 33.6599 45.19C33.6599 45.9853 34.3046 46.63 35.0999 46.63Z" fill="black"/>
<path d="M31.73 46.63C32.5253 46.63 33.17 45.9853 33.17 45.19C33.17 44.3947 32.5253 43.75 31.73 43.75C30.9347 43.75 30.29 44.3947 30.29 45.19C30.29 45.9853 30.9347 46.63 31.73 46.63Z" fill="black"/>
<path d="M28.3699 46.63C29.1652 46.63 29.8099 45.9853 29.8099 45.19C29.8099 44.3947 29.1652 43.75 28.3699 43.75C27.5746 43.75 26.9299 44.3947 26.9299 45.19C26.9299 45.9853 27.5746 46.63 28.3699 46.63Z" fill="black"/>
<path d="M25.0001 46.63C25.7953 46.63 26.4401 45.9853 26.4401 45.19C26.4401 44.3947 25.7953 43.75 25.0001 43.75C24.2048 43.75 23.5601 44.3947 23.5601 45.19C23.5601 45.9853 24.2048 46.63 25.0001 46.63Z" fill="black"/>
<path d="M21.6299 46.63C22.4252 46.63 23.0699 45.9853 23.0699 45.19C23.0699 44.3947 22.4252 43.75 21.6299 43.75C20.8346 43.75 20.1899 44.3947 20.1899 45.19C20.1899 45.9853 20.8346 46.63 21.6299 46.63Z" fill="black"/>
<path d="M18.2701 46.63C19.0654 46.63 19.7101 45.9853 19.7101 45.19C19.7101 44.3947 19.0654 43.75 18.2701 43.75C17.4748 43.75 16.8301 44.3947 16.8301 45.19C16.8301 45.9853 17.4748 46.63 18.2701 46.63Z" fill="black"/>
<path d="M14.9 46.63C15.6953 46.63 16.34 45.9853 16.34 45.19C16.34 44.3947 15.6953 43.75 14.9 43.75C14.1047 43.75 13.46 44.3947 13.46 45.19C13.46 45.9853 14.1047 46.63 14.9 46.63Z" fill="black"/>
<path d="M11.5401 46.63C12.3354 46.63 12.9801 45.9853 12.9801 45.19C12.9801 44.3947 12.3354 43.75 11.5401 43.75C10.7448 43.75 10.1001 44.3947 10.1001 45.19C10.1001 45.9853 10.7448 46.63 11.5401 46.63Z" fill="black"/>
<path d="M8.16998 46.63C8.96527 46.63 9.60998 45.9853 9.60998 45.19C9.60998 44.3947 8.96527 43.75 8.16998 43.75C7.37469 43.75 6.72998 44.3947 6.72998 45.19C6.72998 45.9853 7.37469 46.63 8.16998 46.63Z" fill="black"/>
<path d="M4.81012 46.63C5.60541 46.63 6.25012 45.9853 6.25012 45.19C6.25012 44.3947 5.60541 43.75 4.81012 43.75C4.01483 43.75 3.37012 44.3947 3.37012 45.19C3.37012 45.9853 4.01483 46.63 4.81012 46.63Z" fill="black"/>
<path d="M1.44 46.63C2.23529 46.63 2.88 45.9853 2.88 45.19C2.88 44.3947 2.23529 43.75 1.44 43.75C0.64471 43.75 0 44.3947 0 45.19C0 45.9853 0.64471 46.63 1.44 46.63Z" fill="black"/>
<path d="M48.5601 43.27C49.3554 43.27 50.0001 42.6253 50.0001 41.83C50.0001 41.0347 49.3554 40.39 48.5601 40.39C47.7648 40.39 47.1201 41.0347 47.1201 41.83C47.1201 42.6253 47.7648 43.27 48.5601 43.27Z" fill="black"/>
<path d="M45.19 43.27C45.9853 43.27 46.63 42.6253 46.63 41.83C46.63 41.0347 45.9853 40.39 45.19 40.39C44.3947 40.39 43.75 41.0347 43.75 41.83C43.75 42.6253 44.3947 43.27 45.19 43.27Z" fill="black"/>
<path d="M41.8299 43.27C42.6252 43.27 43.2699 42.6253 43.2699 41.83C43.2699 41.0347 42.6252 40.39 41.8299 40.39C41.0346 40.39 40.3899 41.0347 40.3899 41.83C40.3899 42.6253 41.0346 43.27 41.8299 43.27Z" fill="black"/>
<path d="M38.46 43.27C39.2553 43.27 39.9 42.6253 39.9 41.83C39.9 41.0347 39.2553 40.39 38.46 40.39C37.6647 40.39 37.02 41.0347 37.02 41.83C37.02 42.6253 37.6647 43.27 38.46 43.27Z" fill="black"/>
<path d="M35.0999 43.27C35.8952 43.27 36.5399 42.6253 36.5399 41.83C36.5399 41.0347 35.8952 40.39 35.0999 40.39C34.3046 40.39 33.6599 41.0347 33.6599 41.83C33.6599 42.6253 34.3046 43.27 35.0999 43.27Z" fill="black"/>
<path d="M31.73 43.27C32.5253 43.27 33.17 42.6253 33.17 41.83C33.17 41.0347 32.5253 40.39 31.73 40.39C30.9347 40.39 30.29 41.0347 30.29 41.83C30.29 42.6253 30.9347 43.27 31.73 43.27Z" fill="black"/>
<path d="M28.3699 43.27C29.1652 43.27 29.8099 42.6253 29.8099 41.83C29.8099 41.0347 29.1652 40.39 28.3699 40.39C27.5746 40.39 26.9299 41.0347 26.9299 41.83C26.9299 42.6253 27.5746 43.27 28.3699 43.27Z" fill="black"/>
<path d="M25.0001 43.27C25.7953 43.27 26.4401 42.6253 26.4401 41.83C26.4401 41.0347 25.7953 40.39 25.0001 40.39C24.2048 40.39 23.5601 41.0347 23.5601 41.83C23.5601 42.6253 24.2048 43.27 25.0001 43.27Z" fill="black"/>
<path d="M21.6299 43.27C22.4252 43.27 23.0699 42.6253 23.0699 41.83C23.0699 41.0347 22.4252 40.39 21.6299 40.39C20.8346 40.39 20.1899 41.0347 20.1899 41.83C20.1899 42.6253 20.8346 43.27 21.6299 43.27Z" fill="black"/>
<path d="M18.2701 43.27C19.0654 43.27 19.7101 42.6253 19.7101 41.83C19.7101 41.0347 19.0654 40.39 18.2701 40.39C17.4748 40.39 16.8301 41.0347 16.8301 41.83C16.8301 42.6253 17.4748 43.27 18.2701 43.27Z" fill="black"/>
<path d="M14.9 43.27C15.6953 43.27 16.34 42.6253 16.34 41.83C16.34 41.0347 15.6953 40.39 14.9 40.39C14.1047 40.39 13.46 41.0347 13.46 41.83C13.46 42.6253 14.1047 43.27 14.9 43.27Z" fill="black"/>
<path d="M11.5401 43.27C12.3354 43.27 12.9801 42.6253 12.9801 41.83C12.9801 41.0347 12.3354 40.39 11.5401 40.39C10.7448 40.39 10.1001 41.0347 10.1001 41.83C10.1001 42.6253 10.7448 43.27 11.5401 43.27Z" fill="black"/>
<path d="M8.16998 43.27C8.96527 43.27 9.60998 42.6253 9.60998 41.83C9.60998 41.0347 8.96527 40.39 8.16998 40.39C7.37469 40.39 6.72998 41.0347 6.72998 41.83C6.72998 42.6253 7.37469 43.27 8.16998 43.27Z" fill="black"/>
<path d="M4.81012 43.27C5.60541 43.27 6.25012 42.6253 6.25012 41.83C6.25012 41.0347 5.60541 40.39 4.81012 40.39C4.01483 40.39 3.37012 41.0347 3.37012 41.83C3.37012 42.6253 4.01483 43.27 4.81012 43.27Z" fill="black"/>
<path d="M1.44 43.27C2.23529 43.27 2.88 42.6253 2.88 41.83C2.88 41.0347 2.23529 40.39 1.44 40.39C0.64471 40.39 0 41.0347 0 41.83C0 42.6253 0.64471 43.27 1.44 43.27Z" fill="black"/>
<path d="M48.5601 39.9C49.3554 39.9 50.0001 39.2553 50.0001 38.46C50.0001 37.6647 49.3554 37.02 48.5601 37.02C47.7648 37.02 47.1201 37.6647 47.1201 38.46C47.1201 39.2553 47.7648 39.9 48.5601 39.9Z" fill="black"/>
<path d="M45.19 39.9C45.9853 39.9 46.63 39.2553 46.63 38.46C46.63 37.6647 45.9853 37.02 45.19 37.02C44.3947 37.02 43.75 37.6647 43.75 38.46C43.75 39.2553 44.3947 39.9 45.19 39.9Z" fill="black"/>
<path d="M41.8299 39.9C42.6252 39.9 43.2699 39.2553 43.2699 38.46C43.2699 37.6647 42.6252 37.02 41.8299 37.02C41.0346 37.02 40.3899 37.6647 40.3899 38.46C40.3899 39.2553 41.0346 39.9 41.8299 39.9Z" fill="black"/>
<path d="M38.46 39.9C39.2553 39.9 39.9 39.2553 39.9 38.46C39.9 37.6647 39.2553 37.02 38.46 37.02C37.6647 37.02 37.02 37.6647 37.02 38.46C37.02 39.2553 37.6647 39.9 38.46 39.9Z" fill="black"/>
<path d="M35.0999 39.9C35.8952 39.9 36.5399 39.2553 36.5399 38.46C36.5399 37.6647 35.8952 37.02 35.0999 37.02C34.3046 37.02 33.6599 37.6647 33.6599 38.46C33.6599 39.2553 34.3046 39.9 35.0999 39.9Z" fill="black"/>
<path d="M31.73 39.9C32.5253 39.9 33.17 39.2553 33.17 38.46C33.17 37.6647 32.5253 37.02 31.73 37.02C30.9347 37.02 30.29 37.6647 30.29 38.46C30.29 39.2553 30.9347 39.9 31.73 39.9Z" fill="black"/>
<path d="M28.3699 39.9C29.1652 39.9 29.8099 39.2553 29.8099 38.46C29.8099 37.6647 29.1652 37.02 28.3699 37.02C27.5746 37.02 26.9299 37.6647 26.9299 38.46C26.9299 39.2553 27.5746 39.9 28.3699 39.9Z" fill="black"/>
<path d="M25.0001 39.9C25.7953 39.9 26.4401 39.2553 26.4401 38.46C26.4401 37.6647 25.7953 37.02 25.0001 37.02C24.2048 37.02 23.5601 37.6647 23.5601 38.46C23.5601 39.2553 24.2048 39.9 25.0001 39.9Z" fill="black"/>
<path d="M21.6299 39.9C22.4252 39.9 23.0699 39.2553 23.0699 38.46C23.0699 37.6647 22.4252 37.02 21.6299 37.02C20.8346 37.02 20.1899 37.6647 20.1899 38.46C20.1899 39.2553 20.8346 39.9 21.6299 39.9Z" fill="black"/>
<path d="M18.2701 39.9C19.0654 39.9 19.7101 39.2553 19.7101 38.46C19.7101 37.6647 19.0654 37.02 18.2701 37.02C17.4748 37.02 16.8301 37.6647 16.8301 38.46C16.8301 39.2553 17.4748 39.9 18.2701 39.9Z" fill="black"/>
<path d="M14.9 39.9C15.6953 39.9 16.34 39.2553 16.34 38.46C16.34 37.6647 15.6953 37.02 14.9 37.02C14.1047 37.02 13.46 37.6647 13.46 38.46C13.46 39.2553 14.1047 39.9 14.9 39.9Z" fill="black"/>
<path d="M11.5401 39.9C12.3354 39.9 12.9801 39.2553 12.9801 38.46C12.9801 37.6647 12.3354 37.02 11.5401 37.02C10.7448 37.02 10.1001 37.6647 10.1001 38.46C10.1001 39.2553 10.7448 39.9 11.5401 39.9Z" fill="black"/>
<path d="M8.16998 39.9C8.96527 39.9 9.60998 39.2553 9.60998 38.46C9.60998 37.6647 8.96527 37.02 8.16998 37.02C7.37469 37.02 6.72998 37.6647 6.72998 38.46C6.72998 39.2553 7.37469 39.9 8.16998 39.9Z" fill="black"/>
<path d="M4.81012 39.9C5.60541 39.9 6.25012 39.2553 6.25012 38.46C6.25012 37.6647 5.60541 37.02 4.81012 37.02C4.01483 37.02 3.37012 37.6647 3.37012 38.46C3.37012 39.2553 4.01483 39.9 4.81012 39.9Z" fill="black"/>
<path d="M1.44 39.9C2.23529 39.9 2.88 39.2553 2.88 38.46C2.88 37.6647 2.23529 37.02 1.44 37.02C0.64471 37.02 0 37.6647 0 38.46C0 39.2553 0.64471 39.9 1.44 39.9Z" fill="black"/>
<path d="M48.5601 36.54C49.3554 36.54 50.0001 35.8953 50.0001 35.1C50.0001 34.3047 49.3554 33.66 48.5601 33.66C47.7648 33.66 47.1201 34.3047 47.1201 35.1C47.1201 35.8953 47.7648 36.54 48.5601 36.54Z" fill="black"/>
<path d="M45.19 36.54C45.9853 36.54 46.63 35.8953 46.63 35.1C46.63 34.3047 45.9853 33.66 45.19 33.66C44.3947 33.66 43.75 34.3047 43.75 35.1C43.75 35.8953 44.3947 36.54 45.19 36.54Z" fill="black"/>
<path d="M41.8299 36.54C42.6252 36.54 43.2699 35.8953 43.2699 35.1C43.2699 34.3047 42.6252 33.66 41.8299 33.66C41.0346 33.66 40.3899 34.3047 40.3899 35.1C40.3899 35.8953 41.0346 36.54 41.8299 36.54Z" fill="black"/>
<path d="M38.46 36.54C39.2553 36.54 39.9 35.8953 39.9 35.1C39.9 34.3047 39.2553 33.66 38.46 33.66C37.6647 33.66 37.02 34.3047 37.02 35.1C37.02 35.8953 37.6647 36.54 38.46 36.54Z" fill="black"/>
<path d="M35.0999 36.54C35.8952 36.54 36.5399 35.8953 36.5399 35.1C36.5399 34.3047 35.8952 33.66 35.0999 33.66C34.3046 33.66 33.6599 34.3047 33.6599 35.1C33.6599 35.8953 34.3046 36.54 35.0999 36.54Z" fill="black"/>
<path d="M31.73 36.54C32.5253 36.54 33.17 35.8953 33.17 35.1C33.17 34.3047 32.5253 33.66 31.73 33.66C30.9347 33.66 30.29 34.3047 30.29 35.1C30.29 35.8953 30.9347 36.54 31.73 36.54Z" fill="black"/>
<path d="M28.3699 36.54C29.1652 36.54 29.8099 35.8953 29.8099 35.1C29.8099 34.3047 29.1652 33.66 28.3699 33.66C27.5746 33.66 26.9299 34.3047 26.9299 35.1C26.9299 35.8953 27.5746 36.54 28.3699 36.54Z" fill="black"/>
<path d="M25.0001 36.54C25.7953 36.54 26.4401 35.8953 26.4401 35.1C26.4401 34.3047 25.7953 33.66 25.0001 33.66C24.2048 33.66 23.5601 34.3047 23.5601 35.1C23.5601 35.8953 24.2048 36.54 25.0001 36.54Z" fill="black"/>
<path d="M21.6299 36.54C22.4252 36.54 23.0699 35.8953 23.0699 35.1C23.0699 34.3047 22.4252 33.66 21.6299 33.66C20.8346 33.66 20.1899 34.3047 20.1899 35.1C20.1899 35.8953 20.8346 36.54 21.6299 36.54Z" fill="black"/>
<path d="M18.2701 36.54C19.0654 36.54 19.7101 35.8953 19.7101 35.1C19.7101 34.3047 19.0654 33.66 18.2701 33.66C17.4748 33.66 16.8301 34.3047 16.8301 35.1C16.8301 35.8953 17.4748 36.54 18.2701 36.54Z" fill="black"/>
<path d="M14.9 36.54C15.6953 36.54 16.34 35.8953 16.34 35.1C16.34 34.3047 15.6953 33.66 14.9 33.66C14.1047 33.66 13.46 34.3047 13.46 35.1C13.46 35.8953 14.1047 36.54 14.9 36.54Z" fill="black"/>
<path d="M11.5401 36.54C12.3354 36.54 12.9801 35.8953 12.9801 35.1C12.9801 34.3047 12.3354 33.66 11.5401 33.66C10.7448 33.66 10.1001 34.3047 10.1001 35.1C10.1001 35.8953 10.7448 36.54 11.5401 36.54Z" fill="black"/>
<path d="M8.16998 36.54C8.96527 36.54 9.60998 35.8953 9.60998 35.1C9.60998 34.3047 8.96527 33.66 8.16998 33.66C7.37469 33.66 6.72998 34.3047 6.72998 35.1C6.72998 35.8953 7.37469 36.54 8.16998 36.54Z" fill="black"/>
<path d="M4.81012 36.54C5.60541 36.54 6.25012 35.8953 6.25012 35.1C6.25012 34.3047 5.60541 33.66 4.81012 33.66C4.01483 33.66 3.37012 34.3047 3.37012 35.1C3.37012 35.8953 4.01483 36.54 4.81012 36.54Z" fill="black"/>
<path d="M1.44 36.54C2.23529 36.54 2.88 35.8953 2.88 35.1C2.88 34.3047 2.23529 33.66 1.44 33.66C0.64471 33.66 0 34.3047 0 35.1C0 35.8953 0.64471 36.54 1.44 36.54Z" fill="black"/>
<path d="M48.5601 33.17C49.3554 33.17 50.0001 32.5253 50.0001 31.73C50.0001 30.9347 49.3554 30.29 48.5601 30.29C47.7648 30.29 47.1201 30.9347 47.1201 31.73C47.1201 32.5253 47.7648 33.17 48.5601 33.17Z" fill="black"/>
<path d="M45.19 33.17C45.9853 33.17 46.63 32.5253 46.63 31.73C46.63 30.9347 45.9853 30.29 45.19 30.29C44.3947 30.29 43.75 30.9347 43.75 31.73C43.75 32.5253 44.3947 33.17 45.19 33.17Z" fill="black"/>
<path d="M41.8299 33.17C42.6252 33.17 43.2699 32.5253 43.2699 31.73C43.2699 30.9347 42.6252 30.29 41.8299 30.29C41.0346 30.29 40.3899 30.9347 40.3899 31.73C40.3899 32.5253 41.0346 33.17 41.8299 33.17Z" fill="black"/>
<path d="M38.46 33.17C39.2553 33.17 39.9 32.5253 39.9 31.73C39.9 30.9347 39.2553 30.29 38.46 30.29C37.6647 30.29 37.02 30.9347 37.02 31.73C37.02 32.5253 37.6647 33.17 38.46 33.17Z" fill="black"/>
<path d="M35.0999 33.17C35.8952 33.17 36.5399 32.5253 36.5399 31.73C36.5399 30.9347 35.8952 30.29 35.0999 30.29C34.3046 30.29 33.6599 30.9347 33.6599 31.73C33.6599 32.5253 34.3046 33.17 35.0999 33.17Z" fill="black"/>
<path d="M31.73 33.17C32.5253 33.17 33.17 32.5253 33.17 31.73C33.17 30.9347 32.5253 30.29 31.73 30.29C30.9347 30.29 30.29 30.9347 30.29 31.73C30.29 32.5253 30.9347 33.17 31.73 33.17Z" fill="black"/>
<path d="M28.3699 33.17C29.1652 33.17 29.8099 32.5253 29.8099 31.73C29.8099 30.9347 29.1652 30.29 28.3699 30.29C27.5746 30.29 26.9299 30.9347 26.9299 31.73C26.9299 32.5253 27.5746 33.17 28.3699 33.17Z" fill="black"/>
<path d="M25.0001 33.17C25.7953 33.17 26.4401 32.5253 26.4401 31.73C26.4401 30.9347 25.7953 30.29 25.0001 30.29C24.2048 30.29 23.5601 30.9347 23.5601 31.73C23.5601 32.5253 24.2048 33.17 25.0001 33.17Z" fill="black"/>
<path d="M21.6299 33.17C22.4252 33.17 23.0699 32.5253 23.0699 31.73C23.0699 30.9347 22.4252 30.29 21.6299 30.29C20.8346 30.29 20.1899 30.9347 20.1899 31.73C20.1899 32.5253 20.8346 33.17 21.6299 33.17Z" fill="black"/>
<path d="M18.2701 33.17C19.0654 33.17 19.7101 32.5253 19.7101 31.73C19.7101 30.9347 19.0654 30.29 18.2701 30.29C17.4748 30.29 16.8301 30.9347 16.8301 31.73C16.8301 32.5253 17.4748 33.17 18.2701 33.17Z" fill="black"/>
<path d="M14.9 33.17C15.6953 33.17 16.34 32.5253 16.34 31.73C16.34 30.9347 15.6953 30.29 14.9 30.29C14.1047 30.29 13.46 30.9347 13.46 31.73C13.46 32.5253 14.1047 33.17 14.9 33.17Z" fill="black"/>
<path d="M11.5401 33.17C12.3354 33.17 12.9801 32.5253 12.9801 31.73C12.9801 30.9347 12.3354 30.29 11.5401 30.29C10.7448 30.29 10.1001 30.9347 10.1001 31.73C10.1001 32.5253 10.7448 33.17 11.5401 33.17Z" fill="black"/>
<path d="M8.16998 33.17C8.96527 33.17 9.60998 32.5253 9.60998 31.73C9.60998 30.9347 8.96527 30.29 8.16998 30.29C7.37469 30.29 6.72998 30.9347 6.72998 31.73C6.72998 32.5253 7.37469 33.17 8.16998 33.17Z" fill="black"/>
<path d="M4.81012 33.17C5.60541 33.17 6.25012 32.5253 6.25012 31.73C6.25012 30.9347 5.60541 30.29 4.81012 30.29C4.01483 30.29 3.37012 30.9347 3.37012 31.73C3.37012 32.5253 4.01483 33.17 4.81012 33.17Z" fill="black"/>
<path d="M1.44 33.17C2.23529 33.17 2.88 32.5253 2.88 31.73C2.88 30.9347 2.23529 30.29 1.44 30.29C0.64471 30.29 0 30.9347 0 31.73C0 32.5253 0.64471 33.17 1.44 33.17Z" fill="black"/>
<path d="M48.5601 29.81C49.3554 29.81 50.0001 29.1653 50.0001 28.37C50.0001 27.5747 49.3554 26.93 48.5601 26.93C47.7648 26.93 47.1201 27.5747 47.1201 28.37C47.1201 29.1653 47.7648 29.81 48.5601 29.81Z" fill="black"/>
<path d="M45.19 29.81C45.9853 29.81 46.63 29.1653 46.63 28.37C46.63 27.5747 45.9853 26.93 45.19 26.93C44.3947 26.93 43.75 27.5747 43.75 28.37C43.75 29.1653 44.3947 29.81 45.19 29.81Z" fill="black"/>
<path d="M41.8299 29.81C42.6252 29.81 43.2699 29.1653 43.2699 28.37C43.2699 27.5747 42.6252 26.93 41.8299 26.93C41.0346 26.93 40.3899 27.5747 40.3899 28.37C40.3899 29.1653 41.0346 29.81 41.8299 29.81Z" fill="black"/>
<path d="M38.46 29.81C39.2553 29.81 39.9 29.1653 39.9 28.37C39.9 27.5747 39.2553 26.93 38.46 26.93C37.6647 26.93 37.02 27.5747 37.02 28.37C37.02 29.1653 37.6647 29.81 38.46 29.81Z" fill="black"/>
<path d="M35.0999 29.81C35.8952 29.81 36.5399 29.1653 36.5399 28.37C36.5399 27.5747 35.8952 26.93 35.0999 26.93C34.3046 26.93 33.6599 27.5747 33.6599 28.37C33.6599 29.1653 34.3046 29.81 35.0999 29.81Z" fill="black"/>
<path d="M31.73 29.81C32.5253 29.81 33.17 29.1653 33.17 28.37C33.17 27.5747 32.5253 26.93 31.73 26.93C30.9347 26.93 30.29 27.5747 30.29 28.37C30.29 29.1653 30.9347 29.81 31.73 29.81Z" fill="black"/>
<path d="M28.3699 29.81C29.1652 29.81 29.8099 29.1653 29.8099 28.37C29.8099 27.5747 29.1652 26.93 28.3699 26.93C27.5746 26.93 26.9299 27.5747 26.9299 28.37C26.9299 29.1653 27.5746 29.81 28.3699 29.81Z" fill="black"/>
<path d="M25.0001 29.81C25.7953 29.81 26.4401 29.1653 26.4401 28.37C26.4401 27.5747 25.7953 26.93 25.0001 26.93C24.2048 26.93 23.5601 27.5747 23.5601 28.37C23.5601 29.1653 24.2048 29.81 25.0001 29.81Z" fill="black"/>
<path d="M21.6299 29.81C22.4252 29.81 23.0699 29.1653 23.0699 28.37C23.0699 27.5747 22.4252 26.93 21.6299 26.93C20.8346 26.93 20.1899 27.5747 20.1899 28.37C20.1899 29.1653 20.8346 29.81 21.6299 29.81Z" fill="black"/>
<path d="M18.2701 29.81C19.0654 29.81 19.7101 29.1653 19.7101 28.37C19.7101 27.5747 19.0654 26.93 18.2701 26.93C17.4748 26.93 16.8301 27.5747 16.8301 28.37C16.8301 29.1653 17.4748 29.81 18.2701 29.81Z" fill="black"/>
<path d="M14.9 29.81C15.6953 29.81 16.34 29.1653 16.34 28.37C16.34 27.5747 15.6953 26.93 14.9 26.93C14.1047 26.93 13.46 27.5747 13.46 28.37C13.46 29.1653 14.1047 29.81 14.9 29.81Z" fill="black"/>
<path d="M11.5401 29.81C12.3354 29.81 12.9801 29.1653 12.9801 28.37C12.9801 27.5747 12.3354 26.93 11.5401 26.93C10.7448 26.93 10.1001 27.5747 10.1001 28.37C10.1001 29.1653 10.7448 29.81 11.5401 29.81Z" fill="black"/>
<path d="M8.16998 29.81C8.96527 29.81 9.60998 29.1653 9.60998 28.37C9.60998 27.5747 8.96527 26.93 8.16998 26.93C7.37469 26.93 6.72998 27.5747 6.72998 28.37C6.72998 29.1653 7.37469 29.81 8.16998 29.81Z" fill="black"/>
<path d="M4.81012 29.81C5.60541 29.81 6.25012 29.1653 6.25012 28.37C6.25012 27.5747 5.60541 26.93 4.81012 26.93C4.01483 26.93 3.37012 27.5747 3.37012 28.37C3.37012 29.1653 4.01483 29.81 4.81012 29.81Z" fill="black"/>
<path d="M1.44 29.81C2.23529 29.81 2.88 29.1653 2.88 28.37C2.88 27.5747 2.23529 26.93 1.44 26.93C0.64471 26.93 0 27.5747 0 28.37C0 29.1653 0.64471 29.81 1.44 29.81Z" fill="black"/>
<path d="M48.5601 26.44C49.3554 26.44 50.0001 25.7953 50.0001 25C50.0001 24.2047 49.3554 23.56 48.5601 23.56C47.7648 23.56 47.1201 24.2047 47.1201 25C47.1201 25.7953 47.7648 26.44 48.5601 26.44Z" fill="black"/>
<path d="M45.19 26.44C45.9853 26.44 46.63 25.7953 46.63 25C46.63 24.2047 45.9853 23.56 45.19 23.56C44.3947 23.56 43.75 24.2047 43.75 25C43.75 25.7953 44.3947 26.44 45.19 26.44Z" fill="black"/>
<path d="M41.8299 26.44C42.6252 26.44 43.2699 25.7953 43.2699 25C43.2699 24.2047 42.6252 23.56 41.8299 23.56C41.0346 23.56 40.3899 24.2047 40.3899 25C40.3899 25.7953 41.0346 26.44 41.8299 26.44Z" fill="black"/>
<path d="M38.46 26.44C39.2553 26.44 39.9 25.7953 39.9 25C39.9 24.2047 39.2553 23.56 38.46 23.56C37.6647 23.56 37.02 24.2047 37.02 25C37.02 25.7953 37.6647 26.44 38.46 26.44Z" fill="black"/>
<path d="M35.0999 26.44C35.8952 26.44 36.5399 25.7953 36.5399 25C36.5399 24.2047 35.8952 23.56 35.0999 23.56C34.3046 23.56 33.6599 24.2047 33.6599 25C33.6599 25.7953 34.3046 26.44 35.0999 26.44Z" fill="black"/>
<path d="M31.73 26.44C32.5253 26.44 33.17 25.7953 33.17 25C33.17 24.2047 32.5253 23.56 31.73 23.56C30.9347 23.56 30.29 24.2047 30.29 25C30.29 25.7953 30.9347 26.44 31.73 26.44Z" fill="black"/>
<path d="M28.3699 26.44C29.1652 26.44 29.8099 25.7953 29.8099 25C29.8099 24.2047 29.1652 23.56 28.3699 23.56C27.5746 23.56 26.9299 24.2047 26.9299 25C26.9299 25.7953 27.5746 26.44 28.3699 26.44Z" fill="black"/>
<path d="M25.0001 26.44C25.7953 26.44 26.4401 25.7953 26.4401 25C26.4401 24.2047 25.7953 23.56 25.0001 23.56C24.2048 23.56 23.5601 24.2047 23.5601 25C23.5601 25.7953 24.2048 26.44 25.0001 26.44Z" fill="black"/>
<path d="M21.6299 26.44C22.4252 26.44 23.0699 25.7953 23.0699 25C23.0699 24.2047 22.4252 23.56 21.6299 23.56C20.8346 23.56 20.1899 24.2047 20.1899 25C20.1899 25.7953 20.8346 26.44 21.6299 26.44Z" fill="black"/>
<path d="M18.2701 26.44C19.0654 26.44 19.7101 25.7953 19.7101 25C19.7101 24.2047 19.0654 23.56 18.2701 23.56C17.4748 23.56 16.8301 24.2047 16.8301 25C16.8301 25.7953 17.4748 26.44 18.2701 26.44Z" fill="black"/>
<path d="M14.9 26.44C15.6953 26.44 16.34 25.7953 16.34 25C16.34 24.2047 15.6953 23.56 14.9 23.56C14.1047 23.56 13.46 24.2047 13.46 25C13.46 25.7953 14.1047 26.44 14.9 26.44Z" fill="black"/>
<path d="M11.5401 26.44C12.3354 26.44 12.9801 25.7953 12.9801 25C12.9801 24.2047 12.3354 23.56 11.5401 23.56C10.7448 23.56 10.1001 24.2047 10.1001 25C10.1001 25.7953 10.7448 26.44 11.5401 26.44Z" fill="black"/>
<path d="M8.16998 26.44C8.96527 26.44 9.60998 25.7953 9.60998 25C9.60998 24.2047 8.96527 23.56 8.16998 23.56C7.37469 23.56 6.72998 24.2047 6.72998 25C6.72998 25.7953 7.37469 26.44 8.16998 26.44Z" fill="black"/>
<path d="M4.81012 26.44C5.60541 26.44 6.25012 25.7953 6.25012 25C6.25012 24.2047 5.60541 23.56 4.81012 23.56C4.01483 23.56 3.37012 24.2047 3.37012 25C3.37012 25.7953 4.01483 26.44 4.81012 26.44Z" fill="black"/>
<path d="M1.44 26.44C2.23529 26.44 2.88 25.7953 2.88 25C2.88 24.2047 2.23529 23.56 1.44 23.56C0.64471 23.56 0 24.2047 0 25C0 25.7953 0.64471 26.44 1.44 26.44Z" fill="black"/>
<path d="M48.5601 23.07C49.3554 23.07 50.0001 22.4253 50.0001 21.63C50.0001 20.8347 49.3554 20.19 48.5601 20.19C47.7648 20.19 47.1201 20.8347 47.1201 21.63C47.1201 22.4253 47.7648 23.07 48.5601 23.07Z" fill="black"/>
<path d="M45.19 23.07C45.9853 23.07 46.63 22.4253 46.63 21.63C46.63 20.8347 45.9853 20.19 45.19 20.19C44.3947 20.19 43.75 20.8347 43.75 21.63C43.75 22.4253 44.3947 23.07 45.19 23.07Z" fill="black"/>
<path d="M41.8299 23.07C42.6252 23.07 43.2699 22.4253 43.2699 21.63C43.2699 20.8347 42.6252 20.19 41.8299 20.19C41.0346 20.19 40.3899 20.8347 40.3899 21.63C40.3899 22.4253 41.0346 23.07 41.8299 23.07Z" fill="black"/>
<path d="M38.46 23.07C39.2553 23.07 39.9 22.4253 39.9 21.63C39.9 20.8347 39.2553 20.19 38.46 20.19C37.6647 20.19 37.02 20.8347 37.02 21.63C37.02 22.4253 37.6647 23.07 38.46 23.07Z" fill="black"/>
<path d="M35.0999 23.07C35.8952 23.07 36.5399 22.4253 36.5399 21.63C36.5399 20.8347 35.8952 20.19 35.0999 20.19C34.3046 20.19 33.6599 20.8347 33.6599 21.63C33.6599 22.4253 34.3046 23.07 35.0999 23.07Z" fill="black"/>
<path d="M31.73 23.07C32.5253 23.07 33.17 22.4253 33.17 21.63C33.17 20.8347 32.5253 20.19 31.73 20.19C30.9347 20.19 30.29 20.8347 30.29 21.63C30.29 22.4253 30.9347 23.07 31.73 23.07Z" fill="black"/>
<path d="M28.3699 23.07C29.1652 23.07 29.8099 22.4253 29.8099 21.63C29.8099 20.8347 29.1652 20.19 28.3699 20.19C27.5746 20.19 26.9299 20.8347 26.9299 21.63C26.9299 22.4253 27.5746 23.07 28.3699 23.07Z" fill="black"/>
<path d="M25.0001 23.07C25.7953 23.07 26.4401 22.4253 26.4401 21.63C26.4401 20.8347 25.7953 20.19 25.0001 20.19C24.2048 20.19 23.5601 20.8347 23.5601 21.63C23.5601 22.4253 24.2048 23.07 25.0001 23.07Z" fill="black"/>
<path d="M21.6299 23.07C22.4252 23.07 23.0699 22.4253 23.0699 21.63C23.0699 20.8347 22.4252 20.19 21.6299 20.19C20.8346 20.19 20.1899 20.8347 20.1899 21.63C20.1899 22.4253 20.8346 23.07 21.6299 23.07Z" fill="black"/>
<path d="M18.2701 23.07C19.0654 23.07 19.7101 22.4253 19.7101 21.63C19.7101 20.8347 19.0654 20.19 18.2701 20.19C17.4748 20.19 16.8301 20.8347 16.8301 21.63C16.8301 22.4253 17.4748 23.07 18.2701 23.07Z" fill="black"/>
<path d="M14.9 23.07C15.6953 23.07 16.34 22.4253 16.34 21.63C16.34 20.8347 15.6953 20.19 14.9 20.19C14.1047 20.19 13.46 20.8347 13.46 21.63C13.46 22.4253 14.1047 23.07 14.9 23.07Z" fill="black"/>
<path d="M11.5401 23.07C12.3354 23.07 12.9801 22.4253 12.9801 21.63C12.9801 20.8347 12.3354 20.19 11.5401 20.19C10.7448 20.19 10.1001 20.8347 10.1001 21.63C10.1001 22.4253 10.7448 23.07 11.5401 23.07Z" fill="black"/>
<path d="M8.16998 23.07C8.96527 23.07 9.60998 22.4253 9.60998 21.63C9.60998 20.8347 8.96527 20.19 8.16998 20.19C7.37469 20.19 6.72998 20.8347 6.72998 21.63C6.72998 22.4253 7.37469 23.07 8.16998 23.07Z" fill="black"/>
<path d="M4.81012 23.07C5.60541 23.07 6.25012 22.4253 6.25012 21.63C6.25012 20.8347 5.60541 20.19 4.81012 20.19C4.01483 20.19 3.37012 20.8347 3.37012 21.63C3.37012 22.4253 4.01483 23.07 4.81012 23.07Z" fill="black"/>
<path d="M1.44 23.07C2.23529 23.07 2.88 22.4253 2.88 21.63C2.88 20.8347 2.23529 20.19 1.44 20.19C0.64471 20.19 0 20.8347 0 21.63C0 22.4253 0.64471 23.07 1.44 23.07Z" fill="black"/>
<path d="M48.5601 19.71C49.3554 19.71 50.0001 19.0653 50.0001 18.27C50.0001 17.4747 49.3554 16.83 48.5601 16.83C47.7648 16.83 47.1201 17.4747 47.1201 18.27C47.1201 19.0653 47.7648 19.71 48.5601 19.71Z" fill="black"/>
<path d="M45.19 19.71C45.9853 19.71 46.63 19.0653 46.63 18.27C46.63 17.4747 45.9853 16.83 45.19 16.83C44.3947 16.83 43.75 17.4747 43.75 18.27C43.75 19.0653 44.3947 19.71 45.19 19.71Z" fill="black"/>
<path d="M41.8299 19.71C42.6252 19.71 43.2699 19.0653 43.2699 18.27C43.2699 17.4747 42.6252 16.83 41.8299 16.83C41.0346 16.83 40.3899 17.4747 40.3899 18.27C40.3899 19.0653 41.0346 19.71 41.8299 19.71Z" fill="black"/>
<path d="M38.46 19.71C39.2553 19.71 39.9 19.0653 39.9 18.27C39.9 17.4747 39.2553 16.83 38.46 16.83C37.6647 16.83 37.02 17.4747 37.02 18.27C37.02 19.0653 37.6647 19.71 38.46 19.71Z" fill="black"/>
<path d="M35.0999 19.71C35.8952 19.71 36.5399 19.0653 36.5399 18.27C36.5399 17.4747 35.8952 16.83 35.0999 16.83C34.3046 16.83 33.6599 17.4747 33.6599 18.27C33.6599 19.0653 34.3046 19.71 35.0999 19.71Z" fill="black"/>
<path d="M31.73 19.71C32.5253 19.71 33.17 19.0653 33.17 18.27C33.17 17.4747 32.5253 16.83 31.73 16.83C30.9347 16.83 30.29 17.4747 30.29 18.27C30.29 19.0653 30.9347 19.71 31.73 19.71Z" fill="black"/>
<path d="M28.3699 19.71C29.1652 19.71 29.8099 19.0653 29.8099 18.27C29.8099 17.4747 29.1652 16.83 28.3699 16.83C27.5746 16.83 26.9299 17.4747 26.9299 18.27C26.9299 19.0653 27.5746 19.71 28.3699 19.71Z" fill="black"/>
<path d="M25.0001 19.71C25.7953 19.71 26.4401 19.0653 26.4401 18.27C26.4401 17.4747 25.7953 16.83 25.0001 16.83C24.2048 16.83 23.5601 17.4747 23.5601 18.27C23.5601 19.0653 24.2048 19.71 25.0001 19.71Z" fill="black"/>
<path d="M21.6299 19.71C22.4252 19.71 23.0699 19.0653 23.0699 18.27C23.0699 17.4747 22.4252 16.83 21.6299 16.83C20.8346 16.83 20.1899 17.4747 20.1899 18.27C20.1899 19.0653 20.8346 19.71 21.6299 19.71Z" fill="black"/>
<path d="M18.2701 19.71C19.0654 19.71 19.7101 19.0653 19.7101 18.27C19.7101 17.4747 19.0654 16.83 18.2701 16.83C17.4748 16.83 16.8301 17.4747 16.8301 18.27C16.8301 19.0653 17.4748 19.71 18.2701 19.71Z" fill="black"/>
<path d="M14.9 19.71C15.6953 19.71 16.34 19.0653 16.34 18.27C16.34 17.4747 15.6953 16.83 14.9 16.83C14.1047 16.83 13.46 17.4747 13.46 18.27C13.46 19.0653 14.1047 19.71 14.9 19.71Z" fill="black"/>
<path d="M11.5401 19.71C12.3354 19.71 12.9801 19.0653 12.9801 18.27C12.9801 17.4747 12.3354 16.83 11.5401 16.83C10.7448 16.83 10.1001 17.4747 10.1001 18.27C10.1001 19.0653 10.7448 19.71 11.5401 19.71Z" fill="black"/>
<path d="M8.16998 19.71C8.96527 19.71 9.60998 19.0653 9.60998 18.27C9.60998 17.4747 8.96527 16.83 8.16998 16.83C7.37469 16.83 6.72998 17.4747 6.72998 18.27C6.72998 19.0653 7.37469 19.71 8.16998 19.71Z" fill="black"/>
<path d="M4.81012 19.71C5.60541 19.71 6.25012 19.0653 6.25012 18.27C6.25012 17.4747 5.60541 16.83 4.81012 16.83C4.01483 16.83 3.37012 17.4747 3.37012 18.27C3.37012 19.0653 4.01483 19.71 4.81012 19.71Z" fill="black"/>
<path d="M1.44 19.71C2.23529 19.71 2.88 19.0653 2.88 18.27C2.88 17.4747 2.23529 16.83 1.44 16.83C0.64471 16.83 0 17.4747 0 18.27C0 19.0653 0.64471 19.71 1.44 19.71Z" fill="black"/>
<path d="M48.5601 16.34C49.3554 16.34 50.0001 15.6953 50.0001 14.9C50.0001 14.1047 49.3554 13.46 48.5601 13.46C47.7648 13.46 47.1201 14.1047 47.1201 14.9C47.1201 15.6953 47.7648 16.34 48.5601 16.34Z" fill="black"/>
<path d="M45.19 16.34C45.9853 16.34 46.63 15.6953 46.63 14.9C46.63 14.1047 45.9853 13.46 45.19 13.46C44.3947 13.46 43.75 14.1047 43.75 14.9C43.75 15.6953 44.3947 16.34 45.19 16.34Z" fill="black"/>
<path d="M41.8299 16.34C42.6252 16.34 43.2699 15.6953 43.2699 14.9C43.2699 14.1047 42.6252 13.46 41.8299 13.46C41.0346 13.46 40.3899 14.1047 40.3899 14.9C40.3899 15.6953 41.0346 16.34 41.8299 16.34Z" fill="black"/>
<path d="M38.46 16.34C39.2553 16.34 39.9 15.6953 39.9 14.9C39.9 14.1047 39.2553 13.46 38.46 13.46C37.6647 13.46 37.02 14.1047 37.02 14.9C37.02 15.6953 37.6647 16.34 38.46 16.34Z" fill="black"/>
<path d="M35.0999 16.34C35.8952 16.34 36.5399 15.6953 36.5399 14.9C36.5399 14.1047 35.8952 13.46 35.0999 13.46C34.3046 13.46 33.6599 14.1047 33.6599 14.9C33.6599 15.6953 34.3046 16.34 35.0999 16.34Z" fill="black"/>
<path d="M31.73 16.34C32.5253 16.34 33.17 15.6953 33.17 14.9C33.17 14.1047 32.5253 13.46 31.73 13.46C30.9347 13.46 30.29 14.1047 30.29 14.9C30.29 15.6953 30.9347 16.34 31.73 16.34Z" fill="black"/>
<path d="M28.3699 16.34C29.1652 16.34 29.8099 15.6953 29.8099 14.9C29.8099 14.1047 29.1652 13.46 28.3699 13.46C27.5746 13.46 26.9299 14.1047 26.9299 14.9C26.9299 15.6953 27.5746 16.34 28.3699 16.34Z" fill="black"/>
<path d="M25.0001 16.34C25.7953 16.34 26.4401 15.6953 26.4401 14.9C26.4401 14.1047 25.7953 13.46 25.0001 13.46C24.2048 13.46 23.5601 14.1047 23.5601 14.9C23.5601 15.6953 24.2048 16.34 25.0001 16.34Z" fill="black"/>
<path d="M21.6299 16.34C22.4252 16.34 23.0699 15.6953 23.0699 14.9C23.0699 14.1047 22.4252 13.46 21.6299 13.46C20.8346 13.46 20.1899 14.1047 20.1899 14.9C20.1899 15.6953 20.8346 16.34 21.6299 16.34Z" fill="black"/>
<path d="M18.2701 16.34C19.0654 16.34 19.7101 15.6953 19.7101 14.9C19.7101 14.1047 19.0654 13.46 18.2701 13.46C17.4748 13.46 16.8301 14.1047 16.8301 14.9C16.8301 15.6953 17.4748 16.34 18.2701 16.34Z" fill="black"/>
<path d="M14.9 16.34C15.6953 16.34 16.34 15.6953 16.34 14.9C16.34 14.1047 15.6953 13.46 14.9 13.46C14.1047 13.46 13.46 14.1047 13.46 14.9C13.46 15.6953 14.1047 16.34 14.9 16.34Z" fill="black"/>
<path d="M11.5401 16.34C12.3354 16.34 12.9801 15.6953 12.9801 14.9C12.9801 14.1047 12.3354 13.46 11.5401 13.46C10.7448 13.46 10.1001 14.1047 10.1001 14.9C10.1001 15.6953 10.7448 16.34 11.5401 16.34Z" fill="black"/>
<path d="M8.16998 16.34C8.96527 16.34 9.60998 15.6953 9.60998 14.9C9.60998 14.1047 8.96527 13.46 8.16998 13.46C7.37469 13.46 6.72998 14.1047 6.72998 14.9C6.72998 15.6953 7.37469 16.34 8.16998 16.34Z" fill="black"/>
<path d="M4.81012 16.34C5.60541 16.34 6.25012 15.6953 6.25012 14.9C6.25012 14.1047 5.60541 13.46 4.81012 13.46C4.01483 13.46 3.37012 14.1047 3.37012 14.9C3.37012 15.6953 4.01483 16.34 4.81012 16.34Z" fill="black"/>
<path d="M1.44 16.34C2.23529 16.34 2.88 15.6953 2.88 14.9C2.88 14.1047 2.23529 13.46 1.44 13.46C0.64471 13.46 0 14.1047 0 14.9C0 15.6953 0.64471 16.34 1.44 16.34Z" fill="black"/>
<path d="M48.5601 12.98C49.3554 12.98 50.0001 12.3353 50.0001 11.54C50.0001 10.7447 49.3554 10.1 48.5601 10.1C47.7648 10.1 47.1201 10.7447 47.1201 11.54C47.1201 12.3353 47.7648 12.98 48.5601 12.98Z" fill="black"/>
<path d="M45.19 12.98C45.9853 12.98 46.63 12.3353 46.63 11.54C46.63 10.7447 45.9853 10.1 45.19 10.1C44.3947 10.1 43.75 10.7447 43.75 11.54C43.75 12.3353 44.3947 12.98 45.19 12.98Z" fill="black"/>
<path d="M41.8299 12.98C42.6252 12.98 43.2699 12.3353 43.2699 11.54C43.2699 10.7447 42.6252 10.1 41.8299 10.1C41.0346 10.1 40.3899 10.7447 40.3899 11.54C40.3899 12.3353 41.0346 12.98 41.8299 12.98Z" fill="black"/>
<path d="M38.46 12.98C39.2553 12.98 39.9 12.3353 39.9 11.54C39.9 10.7447 39.2553 10.1 38.46 10.1C37.6647 10.1 37.02 10.7447 37.02 11.54C37.02 12.3353 37.6647 12.98 38.46 12.98Z" fill="black"/>
<path d="M35.0999 12.98C35.8952 12.98 36.5399 12.3353 36.5399 11.54C36.5399 10.7447 35.8952 10.1 35.0999 10.1C34.3046 10.1 33.6599 10.7447 33.6599 11.54C33.6599 12.3353 34.3046 12.98 35.0999 12.98Z" fill="black"/>
<path d="M31.73 12.98C32.5253 12.98 33.17 12.3353 33.17 11.54C33.17 10.7447 32.5253 10.1 31.73 10.1C30.9347 10.1 30.29 10.7447 30.29 11.54C30.29 12.3353 30.9347 12.98 31.73 12.98Z" fill="black"/>
<path d="M28.3699 12.98C29.1652 12.98 29.8099 12.3353 29.8099 11.54C29.8099 10.7447 29.1652 10.1 28.3699 10.1C27.5746 10.1 26.9299 10.7447 26.9299 11.54C26.9299 12.3353 27.5746 12.98 28.3699 12.98Z" fill="black"/>
<path d="M25.0001 12.98C25.7953 12.98 26.4401 12.3353 26.4401 11.54C26.4401 10.7447 25.7953 10.1 25.0001 10.1C24.2048 10.1 23.5601 10.7447 23.5601 11.54C23.5601 12.3353 24.2048 12.98 25.0001 12.98Z" fill="black"/>
<path d="M21.6299 12.98C22.4252 12.98 23.0699 12.3353 23.0699 11.54C23.0699 10.7447 22.4252 10.1 21.6299 10.1C20.8346 10.1 20.1899 10.7447 20.1899 11.54C20.1899 12.3353 20.8346 12.98 21.6299 12.98Z" fill="black"/>
<path d="M18.2701 12.98C19.0654 12.98 19.7101 12.3353 19.7101 11.54C19.7101 10.7447 19.0654 10.1 18.2701 10.1C17.4748 10.1 16.8301 10.7447 16.8301 11.54C16.8301 12.3353 17.4748 12.98 18.2701 12.98Z" fill="black"/>
<path d="M14.9 12.98C15.6953 12.98 16.34 12.3353 16.34 11.54C16.34 10.7447 15.6953 10.1 14.9 10.1C14.1047 10.1 13.46 10.7447 13.46 11.54C13.46 12.3353 14.1047 12.98 14.9 12.98Z" fill="black"/>
<path d="M11.5401 12.98C12.3354 12.98 12.9801 12.3353 12.9801 11.54C12.9801 10.7447 12.3354 10.1 11.5401 10.1C10.7448 10.1 10.1001 10.7447 10.1001 11.54C10.1001 12.3353 10.7448 12.98 11.5401 12.98Z" fill="black"/>
<path d="M8.16998 12.98C8.96527 12.98 9.60998 12.3353 9.60998 11.54C9.60998 10.7447 8.96527 10.1 8.16998 10.1C7.37469 10.1 6.72998 10.7447 6.72998 11.54C6.72998 12.3353 7.37469 12.98 8.16998 12.98Z" fill="black"/>
<path d="M4.81012 12.98C5.60541 12.98 6.25012 12.3353 6.25012 11.54C6.25012 10.7447 5.60541 10.1 4.81012 10.1C4.01483 10.1 3.37012 10.7447 3.37012 11.54C3.37012 12.3353 4.01483 12.98 4.81012 12.98Z" fill="black"/>
<path d="M1.44 12.98C2.23529 12.98 2.88 12.3353 2.88 11.54C2.88 10.7447 2.23529 10.1 1.44 10.1C0.64471 10.1 0 10.7447 0 11.54C0 12.3353 0.64471 12.98 1.44 12.98Z" fill="black"/>
<path d="M48.5601 9.60998C49.3554 9.60998 50.0001 8.96527 50.0001 8.16998C50.0001 7.37469 49.3554 6.72998 48.5601 6.72998C47.7648 6.72998 47.1201 7.37469 47.1201 8.16998C47.1201 8.96527 47.7648 9.60998 48.5601 9.60998Z" fill="black"/>
<path d="M45.19 9.60998C45.9853 9.60998 46.63 8.96527 46.63 8.16998C46.63 7.37469 45.9853 6.72998 45.19 6.72998C44.3947 6.72998 43.75 7.37469 43.75 8.16998C43.75 8.96527 44.3947 9.60998 45.19 9.60998Z" fill="black"/>
<path d="M41.8299 9.60998C42.6252 9.60998 43.2699 8.96527 43.2699 8.16998C43.2699 7.37469 42.6252 6.72998 41.8299 6.72998C41.0346 6.72998 40.3899 7.37469 40.3899 8.16998C40.3899 8.96527 41.0346 9.60998 41.8299 9.60998Z" fill="black"/>
<path d="M38.46 9.60998C39.2553 9.60998 39.9 8.96527 39.9 8.16998C39.9 7.37469 39.2553 6.72998 38.46 6.72998C37.6647 6.72998 37.02 7.37469 37.02 8.16998C37.02 8.96527 37.6647 9.60998 38.46 9.60998Z" fill="black"/>
<path d="M35.0999 9.60998C35.8952 9.60998 36.5399 8.96527 36.5399 8.16998C36.5399 7.37469 35.8952 6.72998 35.0999 6.72998C34.3046 6.72998 33.6599 7.37469 33.6599 8.16998C33.6599 8.96527 34.3046 9.60998 35.0999 9.60998Z" fill="black"/>
<path d="M31.73 9.60998C32.5253 9.60998 33.17 8.96527 33.17 8.16998C33.17 7.37469 32.5253 6.72998 31.73 6.72998C30.9347 6.72998 30.29 7.37469 30.29 8.16998C30.29 8.96527 30.9347 9.60998 31.73 9.60998Z" fill="black"/>
<path d="M28.3699 9.60998C29.1652 9.60998 29.8099 8.96527 29.8099 8.16998C29.8099 7.37469 29.1652 6.72998 28.3699 6.72998C27.5746 6.72998 26.9299 7.37469 26.9299 8.16998C26.9299 8.96527 27.5746 9.60998 28.3699 9.60998Z" fill="black"/>
<path d="M25.0001 9.60998C25.7953 9.60998 26.4401 8.96527 26.4401 8.16998C26.4401 7.37469 25.7953 6.72998 25.0001 6.72998C24.2048 6.72998 23.5601 7.37469 23.5601 8.16998C23.5601 8.96527 24.2048 9.60998 25.0001 9.60998Z" fill="black"/>
<path d="M21.6299 9.60998C22.4252 9.60998 23.0699 8.96527 23.0699 8.16998C23.0699 7.37469 22.4252 6.72998 21.6299 6.72998C20.8346 6.72998 20.1899 7.37469 20.1899 8.16998C20.1899 8.96527 20.8346 9.60998 21.6299 9.60998Z" fill="black"/>
<path d="M18.2701 9.60998C19.0654 9.60998 19.7101 8.96527 19.7101 8.16998C19.7101 7.37469 19.0654 6.72998 18.2701 6.72998C17.4748 6.72998 16.8301 7.37469 16.8301 8.16998C16.8301 8.96527 17.4748 9.60998 18.2701 9.60998Z" fill="black"/>
<path d="M14.9 9.60998C15.6953 9.60998 16.34 8.96527 16.34 8.16998C16.34 7.37469 15.6953 6.72998 14.9 6.72998C14.1047 6.72998 13.46 7.37469 13.46 8.16998C13.46 8.96527 14.1047 9.60998 14.9 9.60998Z" fill="black"/>
<path d="M11.5401 9.60998C12.3354 9.60998 12.9801 8.96527 12.9801 8.16998C12.9801 7.37469 12.3354 6.72998 11.5401 6.72998C10.7448 6.72998 10.1001 7.37469 10.1001 8.16998C10.1001 8.96527 10.7448 9.60998 11.5401 9.60998Z" fill="black"/>
<path d="M8.16998 9.60998C8.96527 9.60998 9.60998 8.96527 9.60998 8.16998C9.60998 7.37469 8.96527 6.72998 8.16998 6.72998C7.37469 6.72998 6.72998 7.37469 6.72998 8.16998C6.72998 8.96527 7.37469 9.60998 8.16998 9.60998Z" fill="black"/>
<path d="M4.81012 9.60998C5.60541 9.60998 6.25012 8.96527 6.25012 8.16998C6.25012 7.37469 5.60541 6.72998 4.81012 6.72998C4.01483 6.72998 3.37012 7.37469 3.37012 8.16998C3.37012 8.96527 4.01483 9.60998 4.81012 9.60998Z" fill="black"/>
<path d="M1.44 9.60998C2.23529 9.60998 2.88 8.96527 2.88 8.16998C2.88 7.37469 2.23529 6.72998 1.44 6.72998C0.64471 6.72998 0 7.37469 0 8.16998C0 8.96527 0.64471 9.60998 1.44 9.60998Z" fill="black"/>
<path d="M48.5601 6.25C49.3554 6.25 50.0001 5.60529 50.0001 4.81C50.0001 4.01471 49.3554 3.37 48.5601 3.37C47.7648 3.37 47.1201 4.01471 47.1201 4.81C47.1201 5.60529 47.7648 6.25 48.5601 6.25Z" fill="black"/>
<path d="M45.19 6.25C45.9853 6.25 46.63 5.60529 46.63 4.81C46.63 4.01471 45.9853 3.37 45.19 3.37C44.3947 3.37 43.75 4.01471 43.75 4.81C43.75 5.60529 44.3947 6.25 45.19 6.25Z" fill="black"/>
<path d="M41.8299 6.25C42.6252 6.25 43.2699 5.60529 43.2699 4.81C43.2699 4.01471 42.6252 3.37 41.8299 3.37C41.0346 3.37 40.3899 4.01471 40.3899 4.81C40.3899 5.60529 41.0346 6.25 41.8299 6.25Z" fill="black"/>
<path d="M38.46 6.25C39.2553 6.25 39.9 5.60529 39.9 4.81C39.9 4.01471 39.2553 3.37 38.46 3.37C37.6647 3.37 37.02 4.01471 37.02 4.81C37.02 5.60529 37.6647 6.25 38.46 6.25Z" fill="black"/>
<path d="M35.0999 6.25C35.8952 6.25 36.5399 5.60529 36.5399 4.81C36.5399 4.01471 35.8952 3.37 35.0999 3.37C34.3046 3.37 33.6599 4.01471 33.6599 4.81C33.6599 5.60529 34.3046 6.25 35.0999 6.25Z" fill="black"/>
<path d="M31.73 6.25C32.5253 6.25 33.17 5.60529 33.17 4.81C33.17 4.01471 32.5253 3.37 31.73 3.37C30.9347 3.37 30.29 4.01471 30.29 4.81C30.29 5.60529 30.9347 6.25 31.73 6.25Z" fill="black"/>
<path d="M28.3699 6.25C29.1652 6.25 29.8099 5.60529 29.8099 4.81C29.8099 4.01471 29.1652 3.37 28.3699 3.37C27.5746 3.37 26.9299 4.01471 26.9299 4.81C26.9299 5.60529 27.5746 6.25 28.3699 6.25Z" fill="black"/>
<path d="M25.0001 6.25C25.7953 6.25 26.4401 5.60529 26.4401 4.81C26.4401 4.01471 25.7953 3.37 25.0001 3.37C24.2048 3.37 23.5601 4.01471 23.5601 4.81C23.5601 5.60529 24.2048 6.25 25.0001 6.25Z" fill="black"/>
<path d="M21.6299 6.25C22.4252 6.25 23.0699 5.60529 23.0699 4.81C23.0699 4.01471 22.4252 3.37 21.6299 3.37C20.8346 3.37 20.1899 4.01471 20.1899 4.81C20.1899 5.60529 20.8346 6.25 21.6299 6.25Z" fill="black"/>
<path d="M18.2701 6.25C19.0654 6.25 19.7101 5.60529 19.7101 4.81C19.7101 4.01471 19.0654 3.37 18.2701 3.37C17.4748 3.37 16.8301 4.01471 16.8301 4.81C16.8301 5.60529 17.4748 6.25 18.2701 6.25Z" fill="black"/>
<path d="M14.9 6.25C15.6953 6.25 16.34 5.60529 16.34 4.81C16.34 4.01471 15.6953 3.37 14.9 3.37C14.1047 3.37 13.46 4.01471 13.46 4.81C13.46 5.60529 14.1047 6.25 14.9 6.25Z" fill="black"/>
<path d="M11.5401 6.25C12.3354 6.25 12.9801 5.60529 12.9801 4.81C12.9801 4.01471 12.3354 3.37 11.5401 3.37C10.7448 3.37 10.1001 4.01471 10.1001 4.81C10.1001 5.60529 10.7448 6.25 11.5401 6.25Z" fill="black"/>
<path d="M8.16998 6.25C8.96527 6.25 9.60998 5.60529 9.60998 4.81C9.60998 4.01471 8.96527 3.37 8.16998 3.37C7.37469 3.37 6.72998 4.01471 6.72998 4.81C6.72998 5.60529 7.37469 6.25 8.16998 6.25Z" fill="black"/>
<path d="M4.81012 6.25C5.60541 6.25 6.25012 5.60529 6.25012 4.81C6.25012 4.01471 5.60541 3.37 4.81012 3.37C4.01483 3.37 3.37012 4.01471 3.37012 4.81C3.37012 5.60529 4.01483 6.25 4.81012 6.25Z" fill="black"/>
<path d="M1.44 6.25C2.23529 6.25 2.88 5.60529 2.88 4.81C2.88 4.01471 2.23529 3.37 1.44 3.37C0.64471 3.37 0 4.01471 0 4.81C0 5.60529 0.64471 6.25 1.44 6.25Z" fill="black"/>
<path d="M48.5601 2.88C49.3554 2.88 50.0001 2.23529 50.0001 1.44C50.0001 0.64471 49.3554 0 48.5601 0C47.7648 0 47.1201 0.64471 47.1201 1.44C47.1201 2.23529 47.7648 2.88 48.5601 2.88Z" fill="black"/>
<path d="M45.19 2.88C45.9853 2.88 46.63 2.23529 46.63 1.44C46.63 0.64471 45.9853 0 45.19 0C44.3947 0 43.75 0.64471 43.75 1.44C43.75 2.23529 44.3947 2.88 45.19 2.88Z" fill="black"/>
<path d="M41.8299 2.88C42.6252 2.88 43.2699 2.23529 43.2699 1.44C43.2699 0.64471 42.6252 0 41.8299 0C41.0346 0 40.3899 0.64471 40.3899 1.44C40.3899 2.23529 41.0346 2.88 41.8299 2.88Z" fill="black"/>
<path d="M38.46 2.88C39.2553 2.88 39.9 2.23529 39.9 1.44C39.9 0.64471 39.2553 0 38.46 0C37.6647 0 37.02 0.64471 37.02 1.44C37.02 2.23529 37.6647 2.88 38.46 2.88Z" fill="black"/>
<path d="M35.0999 2.88C35.8952 2.88 36.5399 2.23529 36.5399 1.44C36.5399 0.64471 35.8952 0 35.0999 0C34.3046 0 33.6599 0.64471 33.6599 1.44C33.6599 2.23529 34.3046 2.88 35.0999 2.88Z" fill="black"/>
<path d="M31.73 2.88C32.5253 2.88 33.17 2.23529 33.17 1.44C33.17 0.64471 32.5253 0 31.73 0C30.9347 0 30.29 0.64471 30.29 1.44C30.29 2.23529 30.9347 2.88 31.73 2.88Z" fill="black"/>
<path d="M28.3699 2.88C29.1652 2.88 29.8099 2.23529 29.8099 1.44C29.8099 0.64471 29.1652 0 28.3699 0C27.5746 0 26.9299 0.64471 26.9299 1.44C26.9299 2.23529 27.5746 2.88 28.3699 2.88Z" fill="black"/>
<path d="M25.0001 2.88C25.7953 2.88 26.4401 2.23529 26.4401 1.44C26.4401 0.64471 25.7953 0 25.0001 0C24.2048 0 23.5601 0.64471 23.5601 1.44C23.5601 2.23529 24.2048 2.88 25.0001 2.88Z" fill="black"/>
<path d="M21.6299 2.88C22.4252 2.88 23.0699 2.23529 23.0699 1.44C23.0699 0.64471 22.4252 0 21.6299 0C20.8346 0 20.1899 0.64471 20.1899 1.44C20.1899 2.23529 20.8346 2.88 21.6299 2.88Z" fill="black"/>
<path d="M18.2701 2.88C19.0654 2.88 19.7101 2.23529 19.7101 1.44C19.7101 0.64471 19.0654 0 18.2701 0C17.4748 0 16.8301 0.64471 16.8301 1.44C16.8301 2.23529 17.4748 2.88 18.2701 2.88Z" fill="black"/>
<path d="M14.9 2.88C15.6953 2.88 16.34 2.23529 16.34 1.44C16.34 0.64471 15.6953 0 14.9 0C14.1047 0 13.46 0.64471 13.46 1.44C13.46 2.23529 14.1047 2.88 14.9 2.88Z" fill="black"/>
<path d="M11.5401 2.88C12.3354 2.88 12.9801 2.23529 12.9801 1.44C12.9801 0.64471 12.3354 0 11.5401 0C10.7448 0 10.1001 0.64471 10.1001 1.44C10.1001 2.23529 10.7448 2.88 11.5401 2.88Z" fill="black"/>
<path d="M8.16998 2.88C8.96527 2.88 9.60998 2.23529 9.60998 1.44C9.60998 0.64471 8.96527 0 8.16998 0C7.37469 0 6.72998 0.64471 6.72998 1.44C6.72998 2.23529 7.37469 2.88 8.16998 2.88Z" fill="black"/>
<path d="M4.81012 2.88C5.60541 2.88 6.25012 2.23529 6.25012 1.44C6.25012 0.64471 5.60541 0 4.81012 0C4.01483 0 3.37012 0.64471 3.37012 1.44C3.37012 2.23529 4.01483 2.88 4.81012 2.88Z" fill="black"/>
<path d="M1.44 2.88C2.23529 2.88 2.88 2.23529 2.88 1.44C2.88 0.64471 2.23529 0 1.44 0C0.64471 0 0 0.64471 0 1.44C0 2.23529 0.64471 2.88 1.44 2.88Z" fill="black"/>
</svg>
