<svg xmlns="http://www.w3.org/2000/svg" viewBox="0 0 319.87 393.99"><defs><style>.cls-1{fill:#00a652;}</style></defs><g id="Layer_2" data-name="Layer 2"><g id="Layer_1-2" data-name="Layer 1"><path class="cls-1" d="M45.66,34.51a19.71,19.71,0,0,1-5.13,13.07A19,19,0,0,1,34,52.22,22.79,22.79,0,0,1,24.62,54a22,22,0,0,1-12.28-3.31,21.2,21.2,0,0,1-7.78-9.17A31.89,31.89,0,0,1,1.87,28.05,31.85,31.85,0,0,1,4.56,14.6a21.15,21.15,0,0,1,7.78-9.13A22.19,22.19,0,0,1,24.62,2.18a22.59,22.59,0,0,1,10.16,2.1,19,19,0,0,1,6.77,5.48,19.64,19.64,0,0,1,3.5,7.14,19.36,19.36,0,0,1,.61,4.72H33.49a12.77,12.77,0,0,0-.14-1.93,10.32,10.32,0,0,0-1.46-4.13,8.06,8.06,0,0,0-3-2.81,8.72,8.72,0,0,0-4.31-1,8.73,8.73,0,0,0-5.33,1.72,11.48,11.48,0,0,0-3.7,5.32,26.32,26.32,0,0,0-1.38,9.28,26.64,26.64,0,0,0,1.38,9.32,11.65,11.65,0,0,0,3.7,5.37,8.74,8.74,0,0,0,5.33,1.73,8.67,8.67,0,0,0,3.75-.78,8,8,0,0,0,2.79-2.16,9.81,9.81,0,0,0,1.74-3.18,12.35,12.35,0,0,0,.59-3.84ZM87.4,52a7.86,7.86,0,0,1-.94-2.08,11.54,11.54,0,0,1-.37-2.46c0-.9-.07-1.82-.07-2.77V29.85a11.19,11.19,0,0,0-2.6-7.61,15.62,15.62,0,0,0-6.8-4.46,27.61,27.61,0,0,0-9.1-1.46,26.62,26.62,0,0,0-9.35,1.56,15.22,15.22,0,0,0-6.64,4.61A11.5,11.5,0,0,0,49.06,30H61a4,4,0,0,1,1.61-3.45,8.29,8.29,0,0,1,4.78-1.14,9.2,9.2,0,0,1,4.71,1,3,3,0,0,1,1.72,2.65v.07c0,.7-.7,1.19-2.09,1.48s-4,.6-7.81,1a30.94,30.94,0,0,0-7.48,1.64,14,14,0,0,0-5.74,3.71,9,9,0,0,0-2.21,6.34,9.39,9.39,0,0,0,1.77,5.78,10.85,10.85,0,0,0,4.82,3.62,18.39,18.39,0,0,0,7,1.24,20.92,20.92,0,0,0,6.19-.9,15.35,15.35,0,0,0,5.08-2.6,12.37,12.37,0,0,0,1.13-1c.08.29.15.59.25.89a8.4,8.4,0,0,0,.9,1.8,7.85,7.85,0,0,0,.8,1H88.3A6.16,6.16,0,0,1,87.4,52ZM72.79,41.55a7.45,7.45,0,0,1-3.19,2.72,10.07,10.07,0,0,1-4,.85,7.08,7.08,0,0,1-3.62-.75,2.45,2.45,0,0,1-1.24-2.24,2.33,2.33,0,0,1,1.43-2.25,14,14,0,0,1,4.32-1c1.81-.19,3.67-.45,5.57-.8q1-.2,2-.42A8,8,0,0,1,72.79,41.55ZM103.49,0V53.14H91.56V0Zm24.18,54a22.48,22.48,0,0,1-10.8-2.45,17.4,17.4,0,0,1-7.05-6.73A19.23,19.23,0,0,1,107.34,35a18.77,18.77,0,0,1,2.48-9.79,16.84,16.84,0,0,1,7.05-6.51,23.56,23.56,0,0,1,10.8-2.33,23,23,0,0,1,8.16,1.33,17.5,17.5,0,0,1,5.9,3.52A15.6,15.6,0,0,1,145.31,26a12,12,0,0,1,1.23,5.15v.31h-12c0-.14,0-.26,0-.38a1.42,1.42,0,0,0-.09-.37,6.7,6.7,0,0,0-1-2.26,5.57,5.57,0,0,0-2.16-1.84,9.11,9.11,0,0,0-7.82.32A7.13,7.13,0,0,0,120.65,30a11.13,11.13,0,0,0-1,5,11.77,11.77,0,0,0,1,5,7.71,7.71,0,0,0,2.78,3.33,7.38,7.38,0,0,0,4.14,1.17,8.61,8.61,0,0,0,3.82-.73,5.2,5.2,0,0,0,2.23-2A6.36,6.36,0,0,0,134.5,39h12a12.4,12.4,0,0,1-1.21,5.22,15.32,15.32,0,0,1-3.57,4.84,17.65,17.65,0,0,1-5.9,3.57A22.68,22.68,0,0,1,127.67,54Zm47.16-37v18a11.17,11.17,0,0,1-.8,4.17,8.18,8.18,0,0,1-2.33,3.26,5.75,5.75,0,0,1-3.81,1.28,5.13,5.13,0,0,1-3.49-1.07,5.29,5.29,0,0,1-1.61-2.84,17.2,17.2,0,0,1-.41-3.84V17h-12.1V39.24a25.05,25.05,0,0,0,.56,5.38,13.62,13.62,0,0,0,1.94,4.7,9.45,9.45,0,0,0,3.84,3.31,14.1,14.1,0,0,0,6.31,1.23,15.13,15.13,0,0,0,6.13-1.18,13,13,0,0,0,4.61-3.31,14.63,14.63,0,0,0,1.16-1.53v5.3h12.1V17ZM204.54,0V53.14H192.61V0ZM247.6,52a8.19,8.19,0,0,1-.93-2.08,11.53,11.53,0,0,1-.38-2.46c0-.9-.07-1.82-.07-2.77V29.85a11.14,11.14,0,0,0-2.6-7.61,15.57,15.57,0,0,0-6.8-4.46,27.59,27.59,0,0,0-9.09-1.46,26.58,26.58,0,0,0-9.35,1.56,15.2,15.2,0,0,0-6.65,4.61,11.55,11.55,0,0,0-2.46,7.5h12a3.94,3.94,0,0,1,1.62-3.45,8.27,8.27,0,0,1,4.78-1.14,9.18,9.18,0,0,1,4.7,1,3,3,0,0,1,1.72,2.65v.07c0,.7-.7,1.19-2.09,1.48s-4,.6-7.8,1a30.83,30.83,0,0,0-7.48,1.64,14,14,0,0,0-5.75,3.71,9.08,9.08,0,0,0-2.21,6.34,9.39,9.39,0,0,0,1.77,5.78,10.93,10.93,0,0,0,4.83,3.62,18.36,18.36,0,0,0,7,1.24,21,21,0,0,0,6.19-.9,15.44,15.44,0,0,0,5.08-2.6,11,11,0,0,0,1.12-1c.08.29.16.59.26.89a8,8,0,0,0,.9,1.8,7.07,7.07,0,0,0,.8,1H248.5A6.16,6.16,0,0,1,247.6,52ZM233,41.55a7.48,7.48,0,0,1-3.2,2.72,10.06,10.06,0,0,1-4,.85,7.12,7.12,0,0,1-3.63-.75,2.47,2.47,0,0,1-1.24-2.24,2.33,2.33,0,0,1,1.43-2.25,14,14,0,0,1,4.32-1c1.81-.19,3.67-.45,5.58-.8.69-.13,1.34-.27,2-.42A8,8,0,0,1,233,41.55ZM269.41,54a31.36,31.36,0,0,1-4.62-.36,14.15,14.15,0,0,1-4.49-1.44,8.52,8.52,0,0,1-3.37-3.27,11.25,11.25,0,0,1-1.29-5.78V26.21h-8.19V17h1.26a26.58,26.58,0,0,0,3.74-.2,3.2,3.2,0,0,0,2.07-1,5,5,0,0,0,.9-2.53,39.28,39.28,0,0,0,.22-4.78V5.17h12.17V17H278v9.18h-10.2V39.85a10.71,10.71,0,0,0,.51,3.57c.34.95,1.23,1.43,2.66,1.43a10.06,10.06,0,0,0,2.24-.24,12.39,12.39,0,0,0,1.56-.44v8.9a11.72,11.72,0,0,1-2.14.6A16.2,16.2,0,0,1,269.41,54Zm48-28.49a16.8,16.8,0,0,0-7-6.75,25.09,25.09,0,0,0-21.33,0,17.56,17.56,0,0,0-7.13,6.6,18.76,18.76,0,0,0-2.55,9.88,19,19,0,0,0,2.5,9.79A17.43,17.43,0,0,0,289,51.6,22.74,22.74,0,0,0,299.71,54a29.16,29.16,0,0,0,8-1,20.12,20.12,0,0,0,6.05-2.77,14.7,14.7,0,0,0,3.93-3.94,9.92,9.92,0,0,0,1.63-4.54h-12a2.89,2.89,0,0,1-.53,1.17A4,4,0,0,1,305.61,44a7.92,7.92,0,0,1-2.18.8,15,15,0,0,1-3.21.3,9.31,9.31,0,0,1-5-1.2,7.19,7.19,0,0,1-2.87-3.5,11,11,0,0,1-.54-1.82h27.89a10.24,10.24,0,0,0,.1-1.19c0-.5,0-1.06,0-1.67A20.54,20.54,0,0,0,317.42,25.47Zm-22.15.76a10.09,10.09,0,0,1,9.06-.13,6.22,6.22,0,0,1,2.48,2.51,6.73,6.73,0,0,1,.74,2.36H291.93a10.15,10.15,0,0,1,.48-1.41A7.16,7.16,0,0,1,295.27,26.23ZM22,122a31.36,31.36,0,0,1-4.62-.36,14.15,14.15,0,0,1-4.49-1.44,8.5,8.5,0,0,1-3.36-3.27,11.15,11.15,0,0,1-1.3-5.78V94.21H0V85H1.26A26.58,26.58,0,0,0,5,84.83a3.2,3.2,0,0,0,2.07-1A4.8,4.8,0,0,0,8,81.28a39.28,39.28,0,0,0,.22-4.78V73.17H20.37V85h10.2v9.18H20.37v13.64a10.71,10.71,0,0,0,.51,3.57c.34,1,1.22,1.43,2.65,1.43a10.06,10.06,0,0,0,2.24-.24,12.65,12.65,0,0,0,1.57-.44v8.9a12.11,12.11,0,0,1-2.15.6A16.2,16.2,0,0,1,22,122ZM68.77,88.21q-3.18-3.88-9.85-3.89A15.69,15.69,0,0,0,51,86.26a13.58,13.58,0,0,0-4.35,3.94V68H34.58v53.14h12.1V102.37a10.74,10.74,0,0,1,.75-4.21,5.65,5.65,0,0,1,2.3-2.72,7.32,7.32,0,0,1,3.92-1q3.68,0,4.93,2.14a11.69,11.69,0,0,1,1.26,5.91v18.6h12.1V99Q71.94,92.11,68.77,88.21Zm44.52,5.26a16.8,16.8,0,0,0-7-6.75,22.65,22.65,0,0,0-10.75-2.4A22.82,22.82,0,0,0,85,86.68a17.54,17.54,0,0,0-7.12,6.6,20.42,20.42,0,0,0,0,19.67,17.41,17.41,0,0,0,7,6.65A22.8,22.8,0,0,0,95.57,122a29.06,29.06,0,0,0,8-1,20.18,20.18,0,0,0,6.06-2.77,14.66,14.66,0,0,0,3.92-3.94,9.83,9.83,0,0,0,1.64-4.54h-12a3,3,0,0,1-.53,1.17,3.94,3.94,0,0,1-1.26,1.09,7.73,7.73,0,0,1-2.17.8,15,15,0,0,1-3.22.3,9.3,9.3,0,0,1-5-1.2,7.19,7.19,0,0,1-2.87-3.5,12.1,12.1,0,0,1-.55-1.82h27.9c0-.3.08-.7.1-1.19s0-1.06,0-1.67A20.54,20.54,0,0,0,113.29,93.47Zm-22.15.76a10.09,10.09,0,0,1,9.06-.13,6.22,6.22,0,0,1,2.48,2.51,6.94,6.94,0,0,1,.74,2.36H87.79a11.68,11.68,0,0,1,.49-1.41A7.16,7.16,0,0,1,91.14,94.23ZM45.66,170.51a19.71,19.71,0,0,1-5.13,13.07A19,19,0,0,1,34,188.22,22.79,22.79,0,0,1,24.62,190a22,22,0,0,1-12.28-3.31,21.2,21.2,0,0,1-7.78-9.17,35,35,0,0,1,0-26.91,21.15,21.15,0,0,1,7.78-9.13,22.19,22.19,0,0,1,12.28-3.29,22.59,22.59,0,0,1,10.16,2.1,19,19,0,0,1,6.77,5.48,19.64,19.64,0,0,1,3.5,7.14,19.36,19.36,0,0,1,.61,4.72H33.49a12.77,12.77,0,0,0-.14-1.93,10.32,10.32,0,0,0-1.46-4.13,8.06,8.06,0,0,0-3-2.81,8.72,8.72,0,0,0-4.31-1,8.73,8.73,0,0,0-5.33,1.72,11.48,11.48,0,0,0-3.7,5.32,26.32,26.32,0,0,0-1.38,9.28,26.64,26.64,0,0,0,1.38,9.32,11.65,11.65,0,0,0,3.7,5.37,8.74,8.74,0,0,0,5.33,1.73,8.67,8.67,0,0,0,3.75-.78,8,8,0,0,0,2.79-2.16,9.81,9.81,0,0,0,1.74-3.18,12.35,12.35,0,0,0,.59-3.84ZM87.4,188a7.86,7.86,0,0,1-.94-2.08,11.54,11.54,0,0,1-.37-2.46c0-.9-.07-1.82-.07-2.77V165.85a11.19,11.19,0,0,0-2.6-7.61,15.62,15.62,0,0,0-6.8-4.46,27.61,27.61,0,0,0-9.1-1.46,26.62,26.62,0,0,0-9.35,1.56,15.22,15.22,0,0,0-6.64,4.61,11.5,11.5,0,0,0-2.47,7.5H61a4,4,0,0,1,1.61-3.45,8.29,8.29,0,0,1,4.78-1.14,9.2,9.2,0,0,1,4.71,1,3,3,0,0,1,1.72,2.65v.07c0,.7-.7,1.19-2.09,1.48s-4,.6-7.81,1a30.94,30.94,0,0,0-7.48,1.64,14,14,0,0,0-5.74,3.71,9,9,0,0,0-2.21,6.34,9.39,9.39,0,0,0,1.77,5.78,10.85,10.85,0,0,0,4.82,3.62,18.39,18.39,0,0,0,7,1.24,20.92,20.92,0,0,0,6.19-.9,15.35,15.35,0,0,0,5.08-2.6,12.37,12.37,0,0,0,1.13-1c.08.29.15.59.25.89a8.4,8.4,0,0,0,.9,1.8,7.85,7.85,0,0,0,.8,1H88.3A6.16,6.16,0,0,1,87.4,188ZM72.79,177.55a7.45,7.45,0,0,1-3.19,2.72,10.07,10.07,0,0,1-4,.85,7.08,7.08,0,0,1-3.62-.75,2.45,2.45,0,0,1-1.24-2.24,2.33,2.33,0,0,1,1.43-2.25,14,14,0,0,1,4.32-1c1.81-.19,3.67-.45,5.57-.8q1-.19,2-.42A8,8,0,0,1,72.79,177.55ZM103.49,136v53.14H91.56V136Zm24,54a22.15,22.15,0,0,1-10.52-2.4,17.82,17.82,0,0,1-7.11-6.65,20,20,0,0,1,0-19.6A17.79,17.79,0,0,1,117,154.7a24.44,24.44,0,0,1,21,0,17.79,17.79,0,0,1,7.11,6.61,20,20,0,0,1,0,19.6,17.82,17.82,0,0,1-7.11,6.65A22.15,22.15,0,0,1,127.53,190Zm0-9.35a7.42,7.42,0,0,0,4.22-1.19,7.72,7.72,0,0,0,2.72-3.32,13.58,13.58,0,0,0,0-10,7.82,7.82,0,0,0-11.14-3.26,7.38,7.38,0,0,0-2.73,3.26,13.45,13.45,0,0,0,0,10,7.6,7.6,0,0,0,2.73,3.32A7.42,7.42,0,0,0,127.53,180.61Zm49.93-28a13.86,13.86,0,0,0-3.38-.31,13.14,13.14,0,0,0-4.88.85,11.36,11.36,0,0,0-3.78,2.43,12.69,12.69,0,0,0-1.85,2.36V153H151.43v36.11h12.14V173a13.94,13.94,0,0,1,.49-3.6,9.77,9.77,0,0,1,1.6-3.27,7.79,7.79,0,0,1,3-2.33,10.82,10.82,0,0,1,4.54-.86,8.24,8.24,0,0,1,2.62.36,10.5,10.5,0,0,1,1.36.52l1.8-10.71A8.27,8.27,0,0,0,177.46,152.63Zm9.81-4.66a8.18,8.18,0,0,1-4.78-1.43,5,5,0,0,1,0-8.11,8.82,8.82,0,0,1,9.57,0,5.07,5.07,0,0,1,0,8.13A8.22,8.22,0,0,1,187.27,148Zm-6,41.17V153h12v36.11Zm53-27.67a16.86,16.86,0,0,0-7-6.75,25.11,25.11,0,0,0-21.34,0,17.54,17.54,0,0,0-7.12,6.6,20.42,20.42,0,0,0-.05,19.67,17.34,17.34,0,0,0,7.05,6.65A22.8,22.8,0,0,0,216.54,190a29.16,29.16,0,0,0,8-1,20.18,20.18,0,0,0,6.06-2.77,14.66,14.66,0,0,0,3.92-3.94,9.81,9.81,0,0,0,1.63-4.54h-12a3,3,0,0,1-.53,1.17,3.94,3.94,0,0,1-1.26,1.09,7.73,7.73,0,0,1-2.17.8,15,15,0,0,1-3.22.3,9.27,9.27,0,0,1-5-1.2,7.19,7.19,0,0,1-2.87-3.5,12.1,12.1,0,0,1-.55-1.82h27.9c0-.3.08-.7.1-1.19s0-1.06,0-1.67A20.54,20.54,0,0,0,234.26,161.47Zm-22.16.76a10.11,10.11,0,0,1,9.07-.13,6.22,6.22,0,0,1,2.48,2.51,6.94,6.94,0,0,1,.74,2.36H208.76a10.17,10.17,0,0,1,.49-1.41A7.2,7.2,0,0,1,212.1,162.23ZM255.81,190a26.12,26.12,0,0,1-6.27-.75A18.9,18.9,0,0,1,244,187a12.23,12.23,0,0,1-3.94-3.79,9.47,9.47,0,0,1-1.48-5.3v-.48h12v.41a2.56,2.56,0,0,0,1.48,2.45,9,9,0,0,0,4,.75,11.54,11.54,0,0,0,2.37-.26,5.39,5.39,0,0,0,2-.85,1.8,1.8,0,0,0,.83-1.51,2.19,2.19,0,0,0-1.75-2.08,41.69,41.69,0,0,0-5.9-1.29,39.52,39.52,0,0,1-5-1.12,22.34,22.34,0,0,1-4.78-2,10.8,10.8,0,0,1-3.57-3.19,8.13,8.13,0,0,1-1.36-4.76,9.19,9.19,0,0,1,2.32-6.41,14.36,14.36,0,0,1,6.13-3.89,25.42,25.42,0,0,1,8.42-1.33,22.53,22.53,0,0,1,8.14,1.46,15.35,15.35,0,0,1,6.16,4.18,9.57,9.57,0,0,1,2.36,6.46v.41h-11.9v-.37a2.52,2.52,0,0,0-.73-1.87,4.46,4.46,0,0,0-1.84-1.06,7.88,7.88,0,0,0-2.26-.34,11.24,11.24,0,0,0-2.14.23,5.36,5.36,0,0,0-2,.74,1.72,1.72,0,0,0-.82,1.55,1.78,1.78,0,0,0,1,1.5,8.75,8.75,0,0,0,2.62,1c1.11.26,2.38.5,3.81.73a45.47,45.47,0,0,1,4.66.95,22,22,0,0,1,4.86,1.86,10.86,10.86,0,0,1,3.79,3.21,8.42,8.42,0,0,1,1.48,5.1,9.87,9.87,0,0,1-1.5,5.54,11.3,11.3,0,0,1-4,3.69,19.84,19.84,0,0,1-5.59,2.06A29.9,29.9,0,0,1,255.81,190ZM3.16,257.14V207h12v50.15Zm53.6-29.88a10.61,10.61,0,0,0-4.11-5.1,13.12,13.12,0,0,0-7.33-1.84,15.49,15.49,0,0,0-7.78,2,14.24,14.24,0,0,0-4.73,4.37V221H20.71v36.11h12.1V238.65a11,11,0,0,1,.78-4.32,6.12,6.12,0,0,1,2.35-2.84,7,7,0,0,1,3.84-1,6,6,0,0,1,4,1.1,5.5,5.5,0,0,1,1.77,2.89,15.64,15.64,0,0,1,.46,3.83v18.83h12.1V234.77A20.1,20.1,0,0,0,56.76,227.26ZM100.57,221l-6.17,26.3L88,221H75.34l12.45,36.69-.48,1.39a7.53,7.53,0,0,1-1.46,2.61,7,7,0,0,1-2.23,1.66,6.48,6.48,0,0,1-2.8.6c-.87,0-1.68,0-2.43-.11a5.46,5.46,0,0,1-1.59-.3v8.94a9.06,9.06,0,0,0,1.77.26c.93.07,2,.11,3.23.11a23.21,23.21,0,0,0,9.56-1.66,14,14,0,0,0,5.83-4.88,31.41,31.41,0,0,0,3.72-7.84L113,221ZM132.46,258a22.18,22.18,0,0,1-10.52-2.4,17.82,17.82,0,0,1-7.11-6.65,20,20,0,0,1,0-19.6,17.79,17.79,0,0,1,7.11-6.61,24.46,24.46,0,0,1,21.05,0,17.83,17.83,0,0,1,7.1,6.61,20,20,0,0,1,0,19.6,17.86,17.86,0,0,1-7.1,6.65A22.22,22.22,0,0,1,132.46,258Zm0-9.35a7.42,7.42,0,0,0,4.22-1.19,7.72,7.72,0,0,0,2.72-3.32,13.58,13.58,0,0,0,0-10,7.82,7.82,0,0,0-11.14-3.26,7.38,7.38,0,0,0-2.73,3.26,13.45,13.45,0,0,0,0,10,7.6,7.6,0,0,0,2.73,3.32A7.42,7.42,0,0,0,132.46,248.61ZM180.91,221v18a11,11,0,0,1-.8,4.17,8.09,8.09,0,0,1-2.33,3.26,5.75,5.75,0,0,1-3.8,1.28,5.11,5.11,0,0,1-3.49-1.07,5.29,5.29,0,0,1-1.61-2.84,16.63,16.63,0,0,1-.41-3.84V221H156.36v22.21a25.7,25.7,0,0,0,.56,5.38,13.82,13.82,0,0,0,1.94,4.7,9.55,9.55,0,0,0,3.85,3.31,14.08,14.08,0,0,0,6.3,1.23,15.15,15.15,0,0,0,6.14-1.18,13,13,0,0,0,4.61-3.31,14.55,14.55,0,0,0,1.15-1.53v5.3H193V221Zm43.3-.4a13.86,13.86,0,0,0-3.38-.31,13.14,13.14,0,0,0-4.88.85,11.36,11.36,0,0,0-3.78,2.43,12.69,12.69,0,0,0-1.85,2.36V221H198.18v36.11h12.14V241a13.94,13.94,0,0,1,.49-3.6,9.77,9.77,0,0,1,1.6-3.27,7.79,7.79,0,0,1,3-2.33,10.82,10.82,0,0,1,4.54-.86,8.24,8.24,0,0,1,2.62.36,10.5,10.5,0,0,1,1.36.52l1.8-10.71A8.27,8.27,0,0,0,224.21,220.63ZM21.45,326a22.18,22.18,0,0,1-10.52-2.4,17.86,17.86,0,0,1-7.1-6.65,20,20,0,0,1,0-19.6,17.83,17.83,0,0,1,7.1-6.61,22.3,22.3,0,0,1,10.52-2.38A22.34,22.34,0,0,1,32,290.7a17.83,17.83,0,0,1,7.1,6.61,20,20,0,0,1,0,19.6,17.86,17.86,0,0,1-7.1,6.65A22.22,22.22,0,0,1,21.45,326Zm0-9.35a7.39,7.39,0,0,0,4.22-1.19,7.65,7.65,0,0,0,2.72-3.32,13.58,13.58,0,0,0,0-10,7.43,7.43,0,0,0-2.72-3.26,7.54,7.54,0,0,0-4.22-1.16,7.53,7.53,0,0,0-4.19,1.16,7.34,7.34,0,0,0-2.74,3.26,13.58,13.58,0,0,0,0,10,7.56,7.56,0,0,0,2.74,3.32A7.39,7.39,0,0,0,21.45,316.61ZM84.83,289l-3.45,27.24L75.68,289H63.14l-5.68,27.39L54,289H41.51l7,36.11H65l4.38-23.86,4.43,23.86H90.34l7-36.11Zm50.85,6.23a10.69,10.69,0,0,0-4.12-5.1,13.11,13.11,0,0,0-7.32-1.84,15.52,15.52,0,0,0-7.79,2,14.43,14.43,0,0,0-4.73,4.37V289H99.62v36.11h12.1V306.65a10.78,10.78,0,0,1,.79-4.32,6.1,6.1,0,0,1,2.34-2.84,7,7,0,0,1,3.84-1,6,6,0,0,1,4,1.1,5.38,5.38,0,0,1,1.77,2.89,15.17,15.17,0,0,1,.46,3.83v18.83H137V302.77A20.1,20.1,0,0,0,135.68,295.26ZM20.81,394a25.39,25.39,0,0,1-9.76-1.77,14.1,14.1,0,0,1-9.18-13.94v-1.87H14v1.64a6.36,6.36,0,0,0,1.72,4.69,7,7,0,0,0,5.18,1.73,11.07,11.07,0,0,0,5.32-1.05A3.66,3.66,0,0,0,28.12,380a4.12,4.12,0,0,0-1.58-3.13,16.66,16.66,0,0,0-4.27-2.57,55.76,55.76,0,0,0-6.05-2.19A31.32,31.32,0,0,1,9.35,369a15.92,15.92,0,0,1-5.17-4.92,13.4,13.4,0,0,1-2-7.47,12.38,12.38,0,0,1,2.47-7.77,15.67,15.67,0,0,1,6.66-4.93,24.79,24.79,0,0,1,9.43-1.71,25.54,25.54,0,0,1,9.64,1.7,14.92,14.92,0,0,1,6.68,5,13.46,13.46,0,0,1,2.45,8.23V359H27.44v-1.3a6.22,6.22,0,0,0-1.53-4.4q-1.53-1.65-5-1.65a9.3,9.3,0,0,0-5.2,1.23,4.1,4.1,0,0,0-1.84,3.67,3.88,3.88,0,0,0,1.43,3,14.15,14.15,0,0,0,3.91,2.3c1.65.69,3.54,1.41,5.64,2.16a48.81,48.81,0,0,1,7.93,3.47,14.79,14.79,0,0,1,5.27,4.76,13.15,13.15,0,0,1,1.87,7.31,12.6,12.6,0,0,1-2.43,7.83,15.12,15.12,0,0,1-6.75,4.9A27.27,27.27,0,0,1,20.81,394Zm48-37v18a11,11,0,0,1-.8,4.17,8.09,8.09,0,0,1-2.33,3.26,5.75,5.75,0,0,1-3.8,1.28,5.13,5.13,0,0,1-3.49-1.07,5.29,5.29,0,0,1-1.61-2.84,16.63,16.63,0,0,1-.41-3.84V357H44.23v22.21a25.7,25.7,0,0,0,.56,5.38,13.82,13.82,0,0,0,1.94,4.7,9.55,9.55,0,0,0,3.85,3.31,14.08,14.08,0,0,0,6.3,1.23A15.15,15.15,0,0,0,63,392.68a13,13,0,0,0,4.61-3.31,14.55,14.55,0,0,0,1.15-1.53v5.3H80.89V357Zm54.83,7.74a16.39,16.39,0,0,0-6.26-6.27,16.7,16.7,0,0,0-8.24-2.15,14.58,14.58,0,0,0-7.84,2.21,15.88,15.88,0,0,0-3.08,2.51V340H86.05v53.14H98.19V389a16.54,16.54,0,0,0,3.08,2.64,13.89,13.89,0,0,0,7.84,2.35,16.78,16.78,0,0,0,8.36-2.16,16.09,16.09,0,0,0,6.19-6.39A21.55,21.55,0,0,0,126,374.88,19.93,19.93,0,0,0,123.61,364.77Zm-12.46,16.78a7.86,7.86,0,0,1-5.38,2.11,7.74,7.74,0,0,1-3.62-.91,7.29,7.29,0,0,1-2.85-2.61,7.4,7.4,0,0,1-1.11-4.1v-2.31a7.08,7.08,0,0,1,1.12-4.06,7.43,7.43,0,0,1,2.88-2.52,8,8,0,0,1,9,1.16c1.55,1.34,2.33,3.54,2.33,6.57S112.71,380.14,111.15,381.55Z"/></g></g></svg>