<svg width="101" height="50" viewBox="0 0 101 50" fill="none" xmlns="http://www.w3.org/2000/svg">
<g clip-path="url(#clip0_221_27709)">
<path d="M48.5601 50C49.3554 50 50.0001 49.3553 50.0001 48.56C50.0001 47.7647 49.3554 47.12 48.5601 47.12C47.7648 47.12 47.1201 47.7647 47.1201 48.56C47.1201 49.3553 47.7648 50 48.5601 50Z" fill="#B5742E"/>
<path d="M45.19 50C45.9853 50 46.63 49.3553 46.63 48.56C46.63 47.7647 45.9853 47.12 45.19 47.12C44.3947 47.12 43.75 47.7647 43.75 48.56C43.75 49.3553 44.3947 50 45.19 50Z" fill="#B5742E"/>
<path d="M41.8299 50C42.6252 50 43.2699 49.3553 43.2699 48.56C43.2699 47.7647 42.6252 47.12 41.8299 47.12C41.0346 47.12 40.3899 47.7647 40.3899 48.56C40.3899 49.3553 41.0346 50 41.8299 50Z" fill="#B5742E"/>
<path d="M38.46 50C39.2553 50 39.9 49.3553 39.9 48.56C39.9 47.7647 39.2553 47.12 38.46 47.12C37.6647 47.12 37.02 47.7647 37.02 48.56C37.02 49.3553 37.6647 50 38.46 50Z" fill="#B5742E"/>
<path d="M35.0999 50C35.8952 50 36.5399 49.3553 36.5399 48.56C36.5399 47.7647 35.8952 47.12 35.0999 47.12C34.3046 47.12 33.6599 47.7647 33.6599 48.56C33.6599 49.3553 34.3046 50 35.0999 50Z" fill="#B5742E"/>
<path d="M31.73 50C32.5253 50 33.17 49.3553 33.17 48.56C33.17 47.7647 32.5253 47.12 31.73 47.12C30.9347 47.12 30.29 47.7647 30.29 48.56C30.29 49.3553 30.9347 50 31.73 50Z" fill="#B5742E"/>
<path d="M28.3699 50C29.1652 50 29.8099 49.3553 29.8099 48.56C29.8099 47.7647 29.1652 47.12 28.3699 47.12C27.5746 47.12 26.9299 47.7647 26.9299 48.56C26.9299 49.3553 27.5746 50 28.3699 50Z" fill="#B5742E"/>
<path d="M25.0001 50C25.7953 50 26.4401 49.3553 26.4401 48.56C26.4401 47.7647 25.7953 47.12 25.0001 47.12C24.2048 47.12 23.5601 47.7647 23.5601 48.56C23.5601 49.3553 24.2048 50 25.0001 50Z" fill="#B5742E"/>
<path d="M21.6299 50C22.4252 50 23.0699 49.3553 23.0699 48.56C23.0699 47.7647 22.4252 47.12 21.6299 47.12C20.8346 47.12 20.1899 47.7647 20.1899 48.56C20.1899 49.3553 20.8346 50 21.6299 50Z" fill="#B5742E"/>
<path d="M18.2701 50C19.0654 50 19.7101 49.3553 19.7101 48.56C19.7101 47.7647 19.0654 47.12 18.2701 47.12C17.4748 47.12 16.8301 47.7647 16.8301 48.56C16.8301 49.3553 17.4748 50 18.2701 50Z" fill="#B5742E"/>
<path d="M14.9 50C15.6953 50 16.34 49.3553 16.34 48.56C16.34 47.7647 15.6953 47.12 14.9 47.12C14.1047 47.12 13.46 47.7647 13.46 48.56C13.46 49.3553 14.1047 50 14.9 50Z" fill="#B5742E"/>
<path d="M11.5401 50C12.3354 50 12.9801 49.3553 12.9801 48.56C12.9801 47.7647 12.3354 47.12 11.5401 47.12C10.7448 47.12 10.1001 47.7647 10.1001 48.56C10.1001 49.3553 10.7448 50 11.5401 50Z" fill="#E7A156"/>
<path d="M8.16998 50C8.96527 50 9.60998 49.3553 9.60998 48.56C9.60998 47.7647 8.96527 47.12 8.16998 47.12C7.37469 47.12 6.72998 47.7647 6.72998 48.56C6.72998 49.3553 7.37469 50 8.16998 50Z" fill="#E7A156"/>
<path d="M48.5601 46.63C49.3554 46.63 50.0001 45.9853 50.0001 45.19C50.0001 44.3947 49.3554 43.75 48.5601 43.75C47.7648 43.75 47.1201 44.3947 47.1201 45.19C47.1201 45.9853 47.7648 46.63 48.5601 46.63Z" fill="#B5742E"/>
<path d="M45.19 46.63C45.9853 46.63 46.63 45.9853 46.63 45.19C46.63 44.3947 45.9853 43.75 45.19 43.75C44.3947 43.75 43.75 44.3947 43.75 45.19C43.75 45.9853 44.3947 46.63 45.19 46.63Z" fill="#B5742E"/>
<path d="M41.8299 46.63C42.6252 46.63 43.2699 45.9853 43.2699 45.19C43.2699 44.3947 42.6252 43.75 41.8299 43.75C41.0346 43.75 40.3899 44.3947 40.3899 45.19C40.3899 45.9853 41.0346 46.63 41.8299 46.63Z" fill="#B5742E"/>
<path d="M38.46 46.63C39.2553 46.63 39.9 45.9853 39.9 45.19C39.9 44.3947 39.2553 43.75 38.46 43.75C37.6647 43.75 37.02 44.3947 37.02 45.19C37.02 45.9853 37.6647 46.63 38.46 46.63Z" fill="#B5742E"/>
<path d="M35.0999 46.63C35.8952 46.63 36.5399 45.9853 36.5399 45.19C36.5399 44.3947 35.8952 43.75 35.0999 43.75C34.3046 43.75 33.6599 44.3947 33.6599 45.19C33.6599 45.9853 34.3046 46.63 35.0999 46.63Z" fill="#B5742E"/>
<path d="M31.73 46.63C32.5253 46.63 33.17 45.9853 33.17 45.19C33.17 44.3947 32.5253 43.75 31.73 43.75C30.9347 43.75 30.29 44.3947 30.29 45.19C30.29 45.9853 30.9347 46.63 31.73 46.63Z" fill="#B5742E"/>
<path d="M28.3699 46.63C29.1652 46.63 29.8099 45.9853 29.8099 45.19C29.8099 44.3947 29.1652 43.75 28.3699 43.75C27.5746 43.75 26.9299 44.3947 26.9299 45.19C26.9299 45.9853 27.5746 46.63 28.3699 46.63Z" fill="#B5742E"/>
<path d="M25.0001 46.63C25.7953 46.63 26.4401 45.9853 26.4401 45.19C26.4401 44.3947 25.7953 43.75 25.0001 43.75C24.2048 43.75 23.5601 44.3947 23.5601 45.19C23.5601 45.9853 24.2048 46.63 25.0001 46.63Z" fill="#B5742E"/>
<path d="M21.6299 46.63C22.4252 46.63 23.0699 45.9853 23.0699 45.19C23.0699 44.3947 22.4252 43.75 21.6299 43.75C20.8346 43.75 20.1899 44.3947 20.1899 45.19C20.1899 45.9853 20.8346 46.63 21.6299 46.63Z" fill="#B5742E"/>
<path d="M18.2701 46.63C19.0654 46.63 19.7101 45.9853 19.7101 45.19C19.7101 44.3947 19.0654 43.75 18.2701 43.75C17.4748 43.75 16.8301 44.3947 16.8301 45.19C16.8301 45.9853 17.4748 46.63 18.2701 46.63Z" fill="#B5742E"/>
<path d="M14.9 46.63C15.6953 46.63 16.34 45.9853 16.34 45.19C16.34 44.3947 15.6953 43.75 14.9 43.75C14.1047 43.75 13.46 44.3947 13.46 45.19C13.46 45.9853 14.1047 46.63 14.9 46.63Z" fill="#B5742E"/>
<path d="M11.5401 46.63C12.3354 46.63 12.9801 45.9853 12.9801 45.19C12.9801 44.3947 12.3354 43.75 11.5401 43.75C10.7448 43.75 10.1001 44.3947 10.1001 45.19C10.1001 45.9853 10.7448 46.63 11.5401 46.63Z" fill="#B5742E"/>
<path d="M8.16998 46.63C8.96527 46.63 9.60998 45.9853 9.60998 45.19C9.60998 44.3947 8.96527 43.75 8.16998 43.75C7.37469 43.75 6.72998 44.3947 6.72998 45.19C6.72998 45.9853 7.37469 46.63 8.16998 46.63Z" fill="#B5742E"/>
<path d="M4.81012 46.63C5.60541 46.63 6.25012 45.9853 6.25012 45.19C6.25012 44.3947 5.60541 43.75 4.81012 43.75C4.01483 43.75 3.37012 44.3947 3.37012 45.19C3.37012 45.9853 4.01483 46.63 4.81012 46.63Z" fill="#E7A156"/>
<path d="M48.5601 43.27C49.3554 43.27 50.0001 42.6253 50.0001 41.83C50.0001 41.0347 49.3554 40.39 48.5601 40.39C47.7648 40.39 47.1201 41.0347 47.1201 41.83C47.1201 42.6253 47.7648 43.27 48.5601 43.27Z" fill="#CD944F"/>
<path d="M45.19 43.27C45.9853 43.27 46.63 42.6253 46.63 41.83C46.63 41.0347 45.9853 40.39 45.19 40.39C44.3947 40.39 43.75 41.0347 43.75 41.83C43.75 42.6253 44.3947 43.27 45.19 43.27Z" fill="#CD944F"/>
<path d="M41.8299 43.27C42.6252 43.27 43.2699 42.6253 43.2699 41.83C43.2699 41.0347 42.6252 40.39 41.8299 40.39C41.0346 40.39 40.3899 41.0347 40.3899 41.83C40.3899 42.6253 41.0346 43.27 41.8299 43.27Z" fill="#CD944F"/>
<path d="M38.46 43.27C39.2553 43.27 39.9 42.6253 39.9 41.83C39.9 41.0347 39.2553 40.39 38.46 40.39C37.6647 40.39 37.02 41.0347 37.02 41.83C37.02 42.6253 37.6647 43.27 38.46 43.27Z" fill="#CD944F"/>
<path d="M35.0999 43.27C35.8952 43.27 36.5399 42.6253 36.5399 41.83C36.5399 41.0347 35.8952 40.39 35.0999 40.39C34.3046 40.39 33.6599 41.0347 33.6599 41.83C33.6599 42.6253 34.3046 43.27 35.0999 43.27Z" fill="#CD944F"/>
<path d="M31.73 43.27C32.5253 43.27 33.17 42.6253 33.17 41.83C33.17 41.0347 32.5253 40.39 31.73 40.39C30.9347 40.39 30.29 41.0347 30.29 41.83C30.29 42.6253 30.9347 43.27 31.73 43.27Z" fill="#CD944F"/>
<path d="M28.3699 43.27C29.1652 43.27 29.8099 42.6253 29.8099 41.83C29.8099 41.0347 29.1652 40.39 28.3699 40.39C27.5746 40.39 26.9299 41.0347 26.9299 41.83C26.9299 42.6253 27.5746 43.27 28.3699 43.27Z" fill="#CD944F"/>
<path d="M25.0001 43.27C25.7953 43.27 26.4401 42.6253 26.4401 41.83C26.4401 41.0347 25.7953 40.39 25.0001 40.39C24.2048 40.39 23.5601 41.0347 23.5601 41.83C23.5601 42.6253 24.2048 43.27 25.0001 43.27Z" fill="#E3B575"/>
<path d="M21.6299 43.27C22.4252 43.27 23.0699 42.6253 23.0699 41.83C23.0699 41.0347 22.4252 40.39 21.6299 40.39C20.8346 40.39 20.1899 41.0347 20.1899 41.83C20.1899 42.6253 20.8346 43.27 21.6299 43.27Z" fill="#E3B575"/>
<path d="M18.2701 43.27C19.0654 43.27 19.7101 42.6253 19.7101 41.83C19.7101 41.0347 19.0654 40.39 18.2701 40.39C17.4748 40.39 16.8301 41.0347 16.8301 41.83C16.8301 42.6253 17.4748 43.27 18.2701 43.27Z" fill="#E3B575"/>
<path d="M14.9 43.27C15.6953 43.27 16.34 42.6253 16.34 41.83C16.34 41.0347 15.6953 40.39 14.9 40.39C14.1047 40.39 13.46 41.0347 13.46 41.83C13.46 42.6253 14.1047 43.27 14.9 43.27Z" fill="#E3B575"/>
<path d="M11.5401 43.27C12.3354 43.27 12.9801 42.6253 12.9801 41.83C12.9801 41.0347 12.3354 40.39 11.5401 40.39C10.7448 40.39 10.1001 41.0347 10.1001 41.83C10.1001 42.6253 10.7448 43.27 11.5401 43.27Z" fill="#E3B575"/>
<path d="M8.16998 43.27C8.96527 43.27 9.60998 42.6253 9.60998 41.83C9.60998 41.0347 8.96527 40.39 8.16998 40.39C7.37469 40.39 6.72998 41.0347 6.72998 41.83C6.72998 42.6253 7.37469 43.27 8.16998 43.27Z" fill="#E7A156"/>
<path d="M4.81012 43.27C5.60541 43.27 6.25012 42.6253 6.25012 41.83C6.25012 41.0347 5.60541 40.39 4.81012 40.39C4.01483 40.39 3.37012 41.0347 3.37012 41.83C3.37012 42.6253 4.01483 43.27 4.81012 43.27Z" fill="#E7A156"/>
<path d="M1.44 43.27C2.23529 43.27 2.88 42.6253 2.88 41.83C2.88 41.0347 2.23529 40.39 1.44 40.39C0.64471 40.39 0 41.0347 0 41.83C0 42.6253 0.64471 43.27 1.44 43.27Z" fill="#E7A156"/>
<path d="M48.5601 39.9C49.3554 39.9 50.0001 39.2553 50.0001 38.46C50.0001 37.6647 49.3554 37.02 48.5601 37.02C47.7648 37.02 47.1201 37.6647 47.1201 38.46C47.1201 39.2553 47.7648 39.9 48.5601 39.9Z" fill="#C5843D"/>
<path d="M45.19 39.9C45.9853 39.9 46.63 39.2553 46.63 38.46C46.63 37.6647 45.9853 37.02 45.19 37.02C44.3947 37.02 43.75 37.6647 43.75 38.46C43.75 39.2553 44.3947 39.9 45.19 39.9Z" fill="#C5843D"/>
<path d="M41.8299 39.9C42.6252 39.9 43.2699 39.2553 43.2699 38.46C43.2699 37.6647 42.6252 37.02 41.8299 37.02C41.0346 37.02 40.3899 37.6647 40.3899 38.46C40.3899 39.2553 41.0346 39.9 41.8299 39.9Z" fill="#C5843D"/>
<path d="M38.46 39.9C39.2553 39.9 39.9 39.2553 39.9 38.46C39.9 37.6647 39.2553 37.02 38.46 37.02C37.6647 37.02 37.02 37.6647 37.02 38.46C37.02 39.2553 37.6647 39.9 38.46 39.9Z" fill="#C5843D"/>
<path d="M35.0999 39.9C35.8952 39.9 36.5399 39.2553 36.5399 38.46C36.5399 37.6647 35.8952 37.02 35.0999 37.02C34.3046 37.02 33.6599 37.6647 33.6599 38.46C33.6599 39.2553 34.3046 39.9 35.0999 39.9Z" fill="#C5843D"/>
<path d="M31.73 39.9C32.5253 39.9 33.17 39.2553 33.17 38.46C33.17 37.6647 32.5253 37.02 31.73 37.02C30.9347 37.02 30.29 37.6647 30.29 38.46C30.29 39.2553 30.9347 39.9 31.73 39.9Z" fill="#C5843D"/>
<path d="M28.3699 39.9C29.1652 39.9 29.8099 39.2553 29.8099 38.46C29.8099 37.6647 29.1652 37.02 28.3699 37.02C27.5746 37.02 26.9299 37.6647 26.9299 38.46C26.9299 39.2553 27.5746 39.9 28.3699 39.9Z" fill="#C5843D"/>
<path d="M25.0001 39.9C25.7953 39.9 26.4401 39.2553 26.4401 38.46C26.4401 37.6647 25.7953 37.02 25.0001 37.02C24.2048 37.02 23.5601 37.6647 23.5601 38.46C23.5601 39.2553 24.2048 39.9 25.0001 39.9Z" fill="#C5843D"/>
<path d="M21.6299 39.9C22.4252 39.9 23.0699 39.2553 23.0699 38.46C23.0699 37.6647 22.4252 37.02 21.6299 37.02C20.8346 37.02 20.1899 37.6647 20.1899 38.46C20.1899 39.2553 20.8346 39.9 21.6299 39.9Z" fill="#C5843D"/>
<path d="M18.2701 39.9C19.0654 39.9 19.7101 39.2553 19.7101 38.46C19.7101 37.6647 19.0654 37.02 18.2701 37.02C17.4748 37.02 16.8301 37.6647 16.8301 38.46C16.8301 39.2553 17.4748 39.9 18.2701 39.9Z" fill="#C5843D"/>
<path d="M14.9 39.9C15.6953 39.9 16.34 39.2553 16.34 38.46C16.34 37.6647 15.6953 37.02 14.9 37.02C14.1047 37.02 13.46 37.6647 13.46 38.46C13.46 39.2553 14.1047 39.9 14.9 39.9Z" fill="#C5843D"/>
<path d="M11.5401 39.9C12.3354 39.9 12.9801 39.2553 12.9801 38.46C12.9801 37.6647 12.3354 37.02 11.5401 37.02C10.7448 37.02 10.1001 37.6647 10.1001 38.46C10.1001 39.2553 10.7448 39.9 11.5401 39.9Z" fill="#C5843D"/>
<path d="M8.16998 39.9C8.96527 39.9 9.60998 39.2553 9.60998 38.46C9.60998 37.6647 8.96527 37.02 8.16998 37.02C7.37469 37.02 6.72998 37.6647 6.72998 38.46C6.72998 39.2553 7.37469 39.9 8.16998 39.9Z" fill="#E7A156"/>
<path d="M4.81012 39.9C5.60541 39.9 6.25012 39.2553 6.25012 38.46C6.25012 37.6647 5.60541 37.02 4.81012 37.02C4.01483 37.02 3.37012 37.6647 3.37012 38.46C3.37012 39.2553 4.01483 39.9 4.81012 39.9Z" fill="#E7A156"/>
<path d="M1.44 39.9C2.23529 39.9 2.88 39.2553 2.88 38.46C2.88 37.6647 2.23529 37.02 1.44 37.02C0.64471 37.02 0 37.6647 0 38.46C0 39.2553 0.64471 39.9 1.44 39.9Z" fill="#E7A156"/>
<path d="M48.5601 36.54C49.3554 36.54 50.0001 35.8953 50.0001 35.1C50.0001 34.3047 49.3554 33.66 48.5601 33.66C47.7648 33.66 47.1201 34.3047 47.1201 35.1C47.1201 35.8953 47.7648 36.54 48.5601 36.54Z" fill="#E7A156"/>
<path d="M45.19 36.54C45.9853 36.54 46.63 35.8953 46.63 35.1C46.63 34.3047 45.9853 33.66 45.19 33.66C44.3947 33.66 43.75 34.3047 43.75 35.1C43.75 35.8953 44.3947 36.54 45.19 36.54Z" fill="#E7A156"/>
<path d="M41.8299 36.54C42.6252 36.54 43.2699 35.8953 43.2699 35.1C43.2699 34.3047 42.6252 33.66 41.8299 33.66C41.0346 33.66 40.3899 34.3047 40.3899 35.1C40.3899 35.8953 41.0346 36.54 41.8299 36.54Z" fill="#E7A156"/>
<path d="M38.46 36.54C39.2553 36.54 39.9 35.8953 39.9 35.1C39.9 34.3047 39.2553 33.66 38.46 33.66C37.6647 33.66 37.02 34.3047 37.02 35.1C37.02 35.8953 37.6647 36.54 38.46 36.54Z" fill="#E7A156"/>
<path d="M35.0999 36.54C35.8952 36.54 36.5399 35.8953 36.5399 35.1C36.5399 34.3047 35.8952 33.66 35.0999 33.66C34.3046 33.66 33.6599 34.3047 33.6599 35.1C33.6599 35.8953 34.3046 36.54 35.0999 36.54Z" fill="#E7A156"/>
<path d="M31.73 36.54C32.5253 36.54 33.17 35.8953 33.17 35.1C33.17 34.3047 32.5253 33.66 31.73 33.66C30.9347 33.66 30.29 34.3047 30.29 35.1C30.29 35.8953 30.9347 36.54 31.73 36.54Z" fill="#E7A156"/>
<path d="M28.3699 36.54C29.1652 36.54 29.8099 35.8953 29.8099 35.1C29.8099 34.3047 29.1652 33.66 28.3699 33.66C27.5746 33.66 26.9299 34.3047 26.9299 35.1C26.9299 35.8953 27.5746 36.54 28.3699 36.54Z" fill="#E7A156"/>
<path d="M25.0001 36.54C25.7953 36.54 26.4401 35.8953 26.4401 35.1C26.4401 34.3047 25.7953 33.66 25.0001 33.66C24.2048 33.66 23.5601 34.3047 23.5601 35.1C23.5601 35.8953 24.2048 36.54 25.0001 36.54Z" fill="#E7A156"/>
<path d="M21.6299 36.54C22.4252 36.54 23.0699 35.8953 23.0699 35.1C23.0699 34.3047 22.4252 33.66 21.6299 33.66C20.8346 33.66 20.1899 34.3047 20.1899 35.1C20.1899 35.8953 20.8346 36.54 21.6299 36.54Z" fill="#E7A156"/>
<path d="M18.2701 36.54C19.0654 36.54 19.7101 35.8953 19.7101 35.1C19.7101 34.3047 19.0654 33.66 18.2701 33.66C17.4748 33.66 16.8301 34.3047 16.8301 35.1C16.8301 35.8953 17.4748 36.54 18.2701 36.54Z" fill="#E7A156"/>
<path d="M14.9 36.54C15.6953 36.54 16.34 35.8953 16.34 35.1C16.34 34.3047 15.6953 33.66 14.9 33.66C14.1047 33.66 13.46 34.3047 13.46 35.1C13.46 35.8953 14.1047 36.54 14.9 36.54Z" fill="#E7A156"/>
<path d="M11.5401 36.54C12.3354 36.54 12.9801 35.8953 12.9801 35.1C12.9801 34.3047 12.3354 33.66 11.5401 33.66C10.7448 33.66 10.1001 34.3047 10.1001 35.1C10.1001 35.8953 10.7448 36.54 11.5401 36.54Z" fill="#E7A156"/>
<path d="M8.16998 36.54C8.96527 36.54 9.60998 35.8953 9.60998 35.1C9.60998 34.3047 8.96527 33.66 8.16998 33.66C7.37469 33.66 6.72998 34.3047 6.72998 35.1C6.72998 35.8953 7.37469 36.54 8.16998 36.54Z" fill="#E3B575"/>
<path d="M4.81012 36.54C5.60541 36.54 6.25012 35.8953 6.25012 35.1C6.25012 34.3047 5.60541 33.66 4.81012 33.66C4.01483 33.66 3.37012 34.3047 3.37012 35.1C3.37012 35.8953 4.01483 36.54 4.81012 36.54Z" fill="#E3B575"/>
<path d="M1.44 36.54C2.23529 36.54 2.88 35.8953 2.88 35.1C2.88 34.3047 2.23529 33.66 1.44 33.66C0.64471 33.66 0 34.3047 0 35.1C0 35.8953 0.64471 36.54 1.44 36.54Z" fill="#E3B575"/>
<path d="M48.5601 33.17C49.3554 33.17 50.0001 32.5253 50.0001 31.73C50.0001 30.9347 49.3554 30.29 48.5601 30.29C47.7648 30.29 47.1201 30.9347 47.1201 31.73C47.1201 32.5253 47.7648 33.17 48.5601 33.17Z" fill="#E7A156"/>
<path d="M45.19 33.17C45.9853 33.17 46.63 32.5253 46.63 31.73C46.63 30.9347 45.9853 30.29 45.19 30.29C44.3947 30.29 43.75 30.9347 43.75 31.73C43.75 32.5253 44.3947 33.17 45.19 33.17Z" fill="#E7A156"/>
<path d="M41.8299 33.17C42.6252 33.17 43.2699 32.5253 43.2699 31.73C43.2699 30.9347 42.6252 30.29 41.8299 30.29C41.0346 30.29 40.3899 30.9347 40.3899 31.73C40.3899 32.5253 41.0346 33.17 41.8299 33.17Z" fill="#E7A156"/>
<path d="M38.46 33.17C39.2553 33.17 39.9 32.5253 39.9 31.73C39.9 30.9347 39.2553 30.29 38.46 30.29C37.6647 30.29 37.02 30.9347 37.02 31.73C37.02 32.5253 37.6647 33.17 38.46 33.17Z" fill="#E7A156"/>
<path d="M35.0999 33.17C35.8952 33.17 36.5399 32.5253 36.5399 31.73C36.5399 30.9347 35.8952 30.29 35.0999 30.29C34.3046 30.29 33.6599 30.9347 33.6599 31.73C33.6599 32.5253 34.3046 33.17 35.0999 33.17Z" fill="#E7A156"/>
<path d="M31.73 33.17C32.5253 33.17 33.17 32.5253 33.17 31.73C33.17 30.9347 32.5253 30.29 31.73 30.29C30.9347 30.29 30.29 30.9347 30.29 31.73C30.29 32.5253 30.9347 33.17 31.73 33.17Z" fill="#E7A156"/>
<path d="M28.3699 33.17C29.1652 33.17 29.8099 32.5253 29.8099 31.73C29.8099 30.9347 29.1652 30.29 28.3699 30.29C27.5746 30.29 26.9299 30.9347 26.9299 31.73C26.9299 32.5253 27.5746 33.17 28.3699 33.17Z" fill="#E7A156"/>
<path d="M25.0001 33.17C25.7953 33.17 26.4401 32.5253 26.4401 31.73C26.4401 30.9347 25.7953 30.29 25.0001 30.29C24.2048 30.29 23.5601 30.9347 23.5601 31.73C23.5601 32.5253 24.2048 33.17 25.0001 33.17Z" fill="#E7A156"/>
<path d="M21.6299 33.17C22.4252 33.17 23.0699 32.5253 23.0699 31.73C23.0699 30.9347 22.4252 30.29 21.6299 30.29C20.8346 30.29 20.1899 30.9347 20.1899 31.73C20.1899 32.5253 20.8346 33.17 21.6299 33.17Z" fill="#E7A156"/>
<path d="M18.2701 33.17C19.0654 33.17 19.7101 32.5253 19.7101 31.73C19.7101 30.9347 19.0654 30.29 18.2701 30.29C17.4748 30.29 16.8301 30.9347 16.8301 31.73C16.8301 32.5253 17.4748 33.17 18.2701 33.17Z" fill="#E7A156"/>
<path d="M14.9 33.17C15.6953 33.17 16.34 32.5253 16.34 31.73C16.34 30.9347 15.6953 30.29 14.9 30.29C14.1047 30.29 13.46 30.9347 13.46 31.73C13.46 32.5253 14.1047 33.17 14.9 33.17Z" fill="#E7A156"/>
<path d="M11.5401 33.17C12.3354 33.17 12.9801 32.5253 12.9801 31.73C12.9801 30.9347 12.3354 30.29 11.5401 30.29C10.7448 30.29 10.1001 30.9347 10.1001 31.73C10.1001 32.5253 10.7448 33.17 11.5401 33.17Z" fill="#E7A156"/>
<path d="M8.16998 33.17C8.96527 33.17 9.60998 32.5253 9.60998 31.73C9.60998 30.9347 8.96527 30.29 8.16998 30.29C7.37469 30.29 6.72998 30.9347 6.72998 31.73C6.72998 32.5253 7.37469 33.17 8.16998 33.17Z" fill="#E3B575"/>
<path d="M4.81012 33.17C5.60541 33.17 6.25012 32.5253 6.25012 31.73C6.25012 30.9347 5.60541 30.29 4.81012 30.29C4.01483 30.29 3.37012 30.9347 3.37012 31.73C3.37012 32.5253 4.01483 33.17 4.81012 33.17Z" fill="#E3B575"/>
<path d="M1.44 33.17C2.23529 33.17 2.88 32.5253 2.88 31.73C2.88 30.9347 2.23529 30.29 1.44 30.29C0.64471 30.29 0 30.9347 0 31.73C0 32.5253 0.64471 33.17 1.44 33.17Z" fill="#E3B575"/>
<path d="M48.5601 29.8101C49.3554 29.8101 50.0001 29.1653 50.0001 28.3701C50.0001 27.5748 49.3554 26.9301 48.5601 26.9301C47.7648 26.9301 47.1201 27.5748 47.1201 28.3701C47.1201 29.1653 47.7648 29.8101 48.5601 29.8101Z" fill="#E7A156"/>
<path d="M45.19 29.8101C45.9853 29.8101 46.63 29.1653 46.63 28.3701C46.63 27.5748 45.9853 26.9301 45.19 26.9301C44.3947 26.9301 43.75 27.5748 43.75 28.3701C43.75 29.1653 44.3947 29.8101 45.19 29.8101Z" fill="#E7A156"/>
<path d="M41.8299 29.8101C42.6252 29.8101 43.2699 29.1653 43.2699 28.3701C43.2699 27.5748 42.6252 26.9301 41.8299 26.9301C41.0346 26.9301 40.3899 27.5748 40.3899 28.3701C40.3899 29.1653 41.0346 29.8101 41.8299 29.8101Z" fill="#E7A156"/>
<path d="M38.46 29.8101C39.2553 29.8101 39.9 29.1653 39.9 28.3701C39.9 27.5748 39.2553 26.9301 38.46 26.9301C37.6647 26.9301 37.02 27.5748 37.02 28.3701C37.02 29.1653 37.6647 29.8101 38.46 29.8101Z" fill="#E7A156"/>
<path d="M35.0999 29.8101C35.8952 29.8101 36.5399 29.1653 36.5399 28.3701C36.5399 27.5748 35.8952 26.9301 35.0999 26.9301C34.3046 26.9301 33.6599 27.5748 33.6599 28.3701C33.6599 29.1653 34.3046 29.8101 35.0999 29.8101Z" fill="#E7A156"/>
<path d="M31.73 29.8101C32.5253 29.8101 33.17 29.1653 33.17 28.3701C33.17 27.5748 32.5253 26.9301 31.73 26.9301C30.9347 26.9301 30.29 27.5748 30.29 28.3701C30.29 29.1653 30.9347 29.8101 31.73 29.8101Z" fill="#E7A156"/>
<path d="M28.3699 29.8101C29.1652 29.8101 29.8099 29.1653 29.8099 28.3701C29.8099 27.5748 29.1652 26.9301 28.3699 26.9301C27.5746 26.9301 26.9299 27.5748 26.9299 28.3701C26.9299 29.1653 27.5746 29.8101 28.3699 29.8101Z" fill="#E7A156"/>
<path d="M25.0001 29.8101C25.7953 29.8101 26.4401 29.1653 26.4401 28.3701C26.4401 27.5748 25.7953 26.9301 25.0001 26.9301C24.2048 26.9301 23.5601 27.5748 23.5601 28.3701C23.5601 29.1653 24.2048 29.8101 25.0001 29.8101Z" fill="#E7A156"/>
<path d="M21.6299 29.8101C22.4252 29.8101 23.0699 29.1653 23.0699 28.3701C23.0699 27.5748 22.4252 26.9301 21.6299 26.9301C20.8346 26.9301 20.1899 27.5748 20.1899 28.3701C20.1899 29.1653 20.8346 29.8101 21.6299 29.8101Z" fill="#E7A156"/>
<path d="M18.2701 29.8101C19.0654 29.8101 19.7101 29.1653 19.7101 28.3701C19.7101 27.5748 19.0654 26.9301 18.2701 26.9301C17.4748 26.9301 16.8301 27.5748 16.8301 28.3701C16.8301 29.1653 17.4748 29.8101 18.2701 29.8101Z" fill="#E7A156"/>
<path d="M14.9 29.8101C15.6953 29.8101 16.34 29.1653 16.34 28.3701C16.34 27.5748 15.6953 26.9301 14.9 26.9301C14.1047 26.9301 13.46 27.5748 13.46 28.3701C13.46 29.1653 14.1047 29.8101 14.9 29.8101Z" fill="#E7A156"/>
<path d="M11.5401 29.8101C12.3354 29.8101 12.9801 29.1653 12.9801 28.3701C12.9801 27.5748 12.3354 26.9301 11.5401 26.9301C10.7448 26.9301 10.1001 27.5748 10.1001 28.3701C10.1001 29.1653 10.7448 29.8101 11.5401 29.8101Z" fill="#E7A156"/>
<path d="M8.16998 29.8101C8.96527 29.8101 9.60998 29.1653 9.60998 28.3701C9.60998 27.5748 8.96527 26.9301 8.16998 26.9301C7.37469 26.9301 6.72998 27.5748 6.72998 28.3701C6.72998 29.1653 7.37469 29.8101 8.16998 29.8101Z" fill="#E3B575"/>
<path d="M4.81012 29.8101C5.60541 29.8101 6.25012 29.1653 6.25012 28.3701C6.25012 27.5748 5.60541 26.9301 4.81012 26.9301C4.01483 26.9301 3.37012 27.5748 3.37012 28.3701C3.37012 29.1653 4.01483 29.8101 4.81012 29.8101Z" fill="#E3B575"/>
<path d="M1.44 29.8101C2.23529 29.8101 2.88 29.1653 2.88 28.3701C2.88 27.5748 2.23529 26.9301 1.44 26.9301C0.64471 26.9301 0 27.5748 0 28.3701C0 29.1653 0.64471 29.8101 1.44 29.8101Z" fill="#E3B575"/>
<path d="M48.5601 26.4401C49.3554 26.4401 50.0001 25.7953 50.0001 25.0001C50.0001 24.2048 49.3554 23.5601 48.5601 23.5601C47.7648 23.5601 47.1201 24.2048 47.1201 25.0001C47.1201 25.7953 47.7648 26.4401 48.5601 26.4401Z" fill="#E7A156"/>
<path d="M45.19 26.4401C45.9853 26.4401 46.63 25.7953 46.63 25.0001C46.63 24.2048 45.9853 23.5601 45.19 23.5601C44.3947 23.5601 43.75 24.2048 43.75 25.0001C43.75 25.7953 44.3947 26.4401 45.19 26.4401Z" fill="#E7A156"/>
<path d="M41.8299 26.4401C42.6252 26.4401 43.2699 25.7953 43.2699 25.0001C43.2699 24.2048 42.6252 23.5601 41.8299 23.5601C41.0346 23.5601 40.3899 24.2048 40.3899 25.0001C40.3899 25.7953 41.0346 26.4401 41.8299 26.4401Z" fill="#E7A156"/>
<path d="M38.46 26.4401C39.2553 26.4401 39.9 25.7953 39.9 25.0001C39.9 24.2048 39.2553 23.5601 38.46 23.5601C37.6647 23.5601 37.02 24.2048 37.02 25.0001C37.02 25.7953 37.6647 26.4401 38.46 26.4401Z" fill="#E7A156"/>
<path d="M35.0999 26.4401C35.8952 26.4401 36.5399 25.7953 36.5399 25.0001C36.5399 24.2048 35.8952 23.5601 35.0999 23.5601C34.3046 23.5601 33.6599 24.2048 33.6599 25.0001C33.6599 25.7953 34.3046 26.4401 35.0999 26.4401Z" fill="#E7A156"/>
<path d="M31.73 26.4401C32.5253 26.4401 33.17 25.7953 33.17 25.0001C33.17 24.2048 32.5253 23.5601 31.73 23.5601C30.9347 23.5601 30.29 24.2048 30.29 25.0001C30.29 25.7953 30.9347 26.4401 31.73 26.4401Z" fill="#E7A156"/>
<path d="M28.3699 26.4401C29.1652 26.4401 29.8099 25.7953 29.8099 25.0001C29.8099 24.2048 29.1652 23.5601 28.3699 23.5601C27.5746 23.5601 26.9299 24.2048 26.9299 25.0001C26.9299 25.7953 27.5746 26.4401 28.3699 26.4401Z" fill="#E3B575"/>
<path d="M25.0001 26.4401C25.7953 26.4401 26.4401 25.7953 26.4401 25.0001C26.4401 24.2048 25.7953 23.5601 25.0001 23.5601C24.2048 23.5601 23.5601 24.2048 23.5601 25.0001C23.5601 25.7953 24.2048 26.4401 25.0001 26.4401Z" fill="#E7A156"/>
<path d="M21.6299 26.4401C22.4252 26.4401 23.0699 25.7953 23.0699 25.0001C23.0699 24.2048 22.4252 23.5601 21.6299 23.5601C20.8346 23.5601 20.1899 24.2048 20.1899 25.0001C20.1899 25.7953 20.8346 26.4401 21.6299 26.4401Z" fill="#E7A156"/>
<path d="M18.2701 26.4401C19.0654 26.4401 19.7101 25.7953 19.7101 25.0001C19.7101 24.2048 19.0654 23.5601 18.2701 23.5601C17.4748 23.5601 16.8301 24.2048 16.8301 25.0001C16.8301 25.7953 17.4748 26.4401 18.2701 26.4401Z" fill="#E7A156"/>
<path d="M14.9 26.4401C15.6953 26.4401 16.34 25.7953 16.34 25.0001C16.34 24.2048 15.6953 23.5601 14.9 23.5601C14.1047 23.5601 13.46 24.2048 13.46 25.0001C13.46 25.7953 14.1047 26.4401 14.9 26.4401Z" fill="#E7A156"/>
<path d="M11.5401 26.4401C12.3354 26.4401 12.9801 25.7953 12.9801 25.0001C12.9801 24.2048 12.3354 23.5601 11.5401 23.5601C10.7448 23.5601 10.1001 24.2048 10.1001 25.0001C10.1001 25.7953 10.7448 26.4401 11.5401 26.4401Z" fill="#E7A156"/>
<path d="M8.16998 26.4401C8.96527 26.4401 9.60998 25.7953 9.60998 25.0001C9.60998 24.2048 8.96527 23.5601 8.16998 23.5601C7.37469 23.5601 6.72998 24.2048 6.72998 25.0001C6.72998 25.7953 7.37469 26.4401 8.16998 26.4401Z" fill="#E3B575"/>
<path d="M4.81012 26.4401C5.60541 26.4401 6.25012 25.7953 6.25012 25.0001C6.25012 24.2048 5.60541 23.5601 4.81012 23.5601C4.01483 23.5601 3.37012 24.2048 3.37012 25.0001C3.37012 25.7953 4.01483 26.4401 4.81012 26.4401Z" fill="#E3B575"/>
<path d="M1.44 26.4401C2.23529 26.4401 2.88 25.7953 2.88 25.0001C2.88 24.2048 2.23529 23.5601 1.44 23.5601C0.64471 23.5601 0 24.2048 0 25.0001C0 25.7953 0.64471 26.4401 1.44 26.4401Z" fill="#E3B575"/>
<path d="M48.5601 23.0699C49.3554 23.0699 50.0001 22.4252 50.0001 21.6299C50.0001 20.8346 49.3554 20.1899 48.5601 20.1899C47.7648 20.1899 47.1201 20.8346 47.1201 21.6299C47.1201 22.4252 47.7648 23.0699 48.5601 23.0699Z" fill="#DD954F"/>
<path d="M45.19 23.0699C45.9853 23.0699 46.63 22.4252 46.63 21.6299C46.63 20.8346 45.9853 20.1899 45.19 20.1899C44.3947 20.1899 43.75 20.8346 43.75 21.6299C43.75 22.4252 44.3947 23.0699 45.19 23.0699Z" fill="#DD954F"/>
<path d="M41.8299 23.0699C42.6252 23.0699 43.2699 22.4252 43.2699 21.6299C43.2699 20.8346 42.6252 20.1899 41.8299 20.1899C41.0346 20.1899 40.3899 20.8346 40.3899 21.6299C40.3899 22.4252 41.0346 23.0699 41.8299 23.0699Z" fill="#E7A156"/>
<path d="M38.46 23.0699C39.2553 23.0699 39.9 22.4252 39.9 21.6299C39.9 20.8346 39.2553 20.1899 38.46 20.1899C37.6647 20.1899 37.02 20.8346 37.02 21.6299C37.02 22.4252 37.6647 23.0699 38.46 23.0699Z" fill="#E7A156"/>
<path d="M35.0999 23.0699C35.8952 23.0699 36.5399 22.4252 36.5399 21.6299C36.5399 20.8346 35.8952 20.1899 35.0999 20.1899C34.3046 20.1899 33.6599 20.8346 33.6599 21.6299C33.6599 22.4252 34.3046 23.0699 35.0999 23.0699Z" fill="#E7A156"/>
<path d="M31.73 23.0699C32.5253 23.0699 33.17 22.4252 33.17 21.6299C33.17 20.8346 32.5253 20.1899 31.73 20.1899C30.9347 20.1899 30.29 20.8346 30.29 21.6299C30.29 22.4252 30.9347 23.0699 31.73 23.0699Z" fill="#D8A66A"/>
<path d="M28.3699 23.0699C29.1652 23.0699 29.8099 22.4252 29.8099 21.6299C29.8099 20.8346 29.1652 20.1899 28.3699 20.1899C27.5746 20.1899 26.9299 20.8346 26.9299 21.6299C26.9299 22.4252 27.5746 23.0699 28.3699 23.0699Z" fill="#E3B575"/>
<path d="M25.0001 23.0699C25.7953 23.0699 26.4401 22.4252 26.4401 21.6299C26.4401 20.8346 25.7953 20.1899 25.0001 20.1899C24.2048 20.1899 23.5601 20.8346 23.5601 21.6299C23.5601 22.4252 24.2048 23.0699 25.0001 23.0699Z" fill="#E7A156"/>
<path d="M21.6299 23.0699C22.4252 23.0699 23.0699 22.4252 23.0699 21.6299C23.0699 20.8346 22.4252 20.1899 21.6299 20.1899C20.8346 20.1899 20.1899 20.8346 20.1899 21.6299C20.1899 22.4252 20.8346 23.0699 21.6299 23.0699Z" fill="#E7A156"/>
<path d="M18.2701 23.0699C19.0654 23.0699 19.7101 22.4252 19.7101 21.6299C19.7101 20.8346 19.0654 20.1899 18.2701 20.1899C17.4748 20.1899 16.8301 20.8346 16.8301 21.6299C16.8301 22.4252 17.4748 23.0699 18.2701 23.0699Z" fill="#E7A156"/>
<path d="M14.9 23.0699C15.6953 23.0699 16.34 22.4252 16.34 21.6299C16.34 20.8346 15.6953 20.1899 14.9 20.1899C14.1047 20.1899 13.46 20.8346 13.46 21.6299C13.46 22.4252 14.1047 23.0699 14.9 23.0699Z" fill="#E7A156"/>
<path d="M11.5401 23.0699C12.3354 23.0699 12.9801 22.4252 12.9801 21.6299C12.9801 20.8346 12.3354 20.1899 11.5401 20.1899C10.7448 20.1899 10.1001 20.8346 10.1001 21.6299C10.1001 22.4252 10.7448 23.0699 11.5401 23.0699Z" fill="#E7A156"/>
<path d="M8.16998 23.0699C8.96527 23.0699 9.60998 22.4252 9.60998 21.6299C9.60998 20.8346 8.96527 20.1899 8.16998 20.1899C7.37469 20.1899 6.72998 20.8346 6.72998 21.6299C6.72998 22.4252 7.37469 23.0699 8.16998 23.0699Z" fill="#E7A156"/>
<path d="M4.81012 23.0699C5.60541 23.0699 6.25012 22.4252 6.25012 21.6299C6.25012 20.8346 5.60541 20.1899 4.81012 20.1899C4.01483 20.1899 3.37012 20.8346 3.37012 21.6299C3.37012 22.4252 4.01483 23.0699 4.81012 23.0699Z" fill="#E7A156"/>
<path d="M1.44 23.0699C2.23529 23.0699 2.88 22.4252 2.88 21.6299C2.88 20.8346 2.23529 20.1899 1.44 20.1899C0.64471 20.1899 0 20.8346 0 21.6299C0 22.4252 0.64471 23.0699 1.44 23.0699Z" fill="#E7A156"/>
<path d="M48.5601 19.71C49.3554 19.71 50.0001 19.0652 50.0001 18.27C50.0001 17.4747 49.3554 16.83 48.5601 16.83C47.7648 16.83 47.1201 17.4747 47.1201 18.27C47.1201 19.0652 47.7648 19.71 48.5601 19.71Z" fill="#DD954F"/>
<path d="M45.19 19.71C45.9853 19.71 46.63 19.0652 46.63 18.27C46.63 17.4747 45.9853 16.83 45.19 16.83C44.3947 16.83 43.75 17.4747 43.75 18.27C43.75 19.0652 44.3947 19.71 45.19 19.71Z" fill="#DD954F"/>
<path d="M41.8299 19.71C42.6252 19.71 43.2699 19.0652 43.2699 18.27C43.2699 17.4747 42.6252 16.83 41.8299 16.83C41.0346 16.83 40.3899 17.4747 40.3899 18.27C40.3899 19.0652 41.0346 19.71 41.8299 19.71Z" fill="#E7A156"/>
<path d="M38.46 19.71C39.2553 19.71 39.9 19.0652 39.9 18.27C39.9 17.4747 39.2553 16.83 38.46 16.83C37.6647 16.83 37.02 17.4747 37.02 18.27C37.02 19.0652 37.6647 19.71 38.46 19.71Z" fill="#E7A156"/>
<path d="M35.0999 19.71C35.8952 19.71 36.5399 19.0652 36.5399 18.27C36.5399 17.4747 35.8952 16.83 35.0999 16.83C34.3046 16.83 33.6599 17.4747 33.6599 18.27C33.6599 19.0652 34.3046 19.71 35.0999 19.71Z" fill="#E7A156"/>
<path d="M31.73 19.71C32.5253 19.71 33.17 19.0652 33.17 18.27C33.17 17.4747 32.5253 16.83 31.73 16.83C30.9347 16.83 30.29 17.4747 30.29 18.27C30.29 19.0652 30.9347 19.71 31.73 19.71Z" fill="#E3B575"/>
<path d="M28.3699 19.71C29.1652 19.71 29.8099 19.0652 29.8099 18.27C29.8099 17.4747 29.1652 16.83 28.3699 16.83C27.5746 16.83 26.9299 17.4747 26.9299 18.27C26.9299 19.0652 27.5746 19.71 28.3699 19.71Z" fill="#E7A156"/>
<path d="M25.0001 19.71C25.7953 19.71 26.4401 19.0652 26.4401 18.27C26.4401 17.4747 25.7953 16.83 25.0001 16.83C24.2048 16.83 23.5601 17.4747 23.5601 18.27C23.5601 19.0652 24.2048 19.71 25.0001 19.71Z" fill="#E7A156"/>
<path d="M21.6299 19.71C22.4252 19.71 23.0699 19.0652 23.0699 18.27C23.0699 17.4747 22.4252 16.83 21.6299 16.83C20.8346 16.83 20.1899 17.4747 20.1899 18.27C20.1899 19.0652 20.8346 19.71 21.6299 19.71Z" fill="#E7A156"/>
<path d="M18.2701 19.71C19.0654 19.71 19.7101 19.0652 19.7101 18.27C19.7101 17.4747 19.0654 16.83 18.2701 16.83C17.4748 16.83 16.8301 17.4747 16.8301 18.27C16.8301 19.0652 17.4748 19.71 18.2701 19.71Z" fill="#E7A156"/>
<path d="M14.9 19.71C15.6953 19.71 16.34 19.0652 16.34 18.27C16.34 17.4747 15.6953 16.83 14.9 16.83C14.1047 16.83 13.46 17.4747 13.46 18.27C13.46 19.0652 14.1047 19.71 14.9 19.71Z" fill="#E7A156"/>
<path d="M11.5401 19.71C12.3354 19.71 12.9801 19.0652 12.9801 18.27C12.9801 17.4747 12.3354 16.83 11.5401 16.83C10.7448 16.83 10.1001 17.4747 10.1001 18.27C10.1001 19.0652 10.7448 19.71 11.5401 19.71Z" fill="#E7A156"/>
<path d="M8.16998 19.71C8.96527 19.71 9.60998 19.0652 9.60998 18.27C9.60998 17.4747 8.96527 16.83 8.16998 16.83C7.37469 16.83 6.72998 17.4747 6.72998 18.27C6.72998 19.0652 7.37469 19.71 8.16998 19.71Z" fill="#E7A156"/>
<path d="M4.81012 19.71C5.60541 19.71 6.25012 19.0652 6.25012 18.27C6.25012 17.4747 5.60541 16.83 4.81012 16.83C4.01483 16.83 3.37012 17.4747 3.37012 18.27C3.37012 19.0652 4.01483 19.71 4.81012 19.71Z" fill="#E7A156"/>
<path d="M45.19 16.34C45.9853 16.34 46.63 15.6953 46.63 14.9C46.63 14.1047 45.9853 13.46 45.19 13.46C44.3947 13.46 43.75 14.1047 43.75 14.9C43.75 15.6953 44.3947 16.34 45.19 16.34Z" fill="#DD954F"/>
<path d="M41.8299 16.34C42.6252 16.34 43.2699 15.6953 43.2699 14.9C43.2699 14.1047 42.6252 13.46 41.8299 13.46C41.0346 13.46 40.3899 14.1047 40.3899 14.9C40.3899 15.6953 41.0346 16.34 41.8299 16.34Z" fill="#DD954F"/>
<path d="M38.46 16.34C39.2553 16.34 39.9 15.6953 39.9 14.9C39.9 14.1047 39.2553 13.46 38.46 13.46C37.6647 13.46 37.02 14.1047 37.02 14.9C37.02 15.6953 37.6647 16.34 38.46 16.34Z" fill="#DD954F"/>
<path d="M35.0999 16.34C35.8952 16.34 36.5399 15.6953 36.5399 14.9C36.5399 14.1047 35.8952 13.46 35.0999 13.46C34.3046 13.46 33.6599 14.1047 33.6599 14.9C33.6599 15.6953 34.3046 16.34 35.0999 16.34Z" fill="#DD954F"/>
<path d="M31.73 16.34C32.5253 16.34 33.17 15.6953 33.17 14.9C33.17 14.1047 32.5253 13.46 31.73 13.46C30.9347 13.46 30.29 14.1047 30.29 14.9C30.29 15.6953 30.9347 16.34 31.73 16.34Z" fill="#DD954F"/>
<path d="M28.3699 16.34C29.1652 16.34 29.8099 15.6953 29.8099 14.9C29.8099 14.1047 29.1652 13.46 28.3699 13.46C27.5746 13.46 26.9299 14.1047 26.9299 14.9C26.9299 15.6953 27.5746 16.34 28.3699 16.34Z" fill="#DD954F"/>
<path d="M21.6299 16.34C22.4252 16.34 23.0699 15.6953 23.0699 14.9C23.0699 14.1047 22.4252 13.46 21.6299 13.46C20.8346 13.46 20.1899 14.1047 20.1899 14.9C20.1899 15.6953 20.8346 16.34 21.6299 16.34Z" fill="#DD954F"/>
<path d="M18.2701 16.34C19.0654 16.34 19.7101 15.6953 19.7101 14.9C19.7101 14.1047 19.0654 13.46 18.2701 13.46C17.4748 13.46 16.8301 14.1047 16.8301 14.9C16.8301 15.6953 17.4748 16.34 18.2701 16.34Z" fill="#DD954F"/>
<path d="M14.9 16.34C15.6953 16.34 16.34 15.6953 16.34 14.9C16.34 14.1047 15.6953 13.46 14.9 13.46C14.1047 13.46 13.46 14.1047 13.46 14.9C13.46 15.6953 14.1047 16.34 14.9 16.34Z" fill="#DD954F"/>
<path d="M11.5401 16.34C12.3354 16.34 12.9801 15.6953 12.9801 14.9C12.9801 14.1047 12.3354 13.46 11.5401 13.46C10.7448 13.46 10.1001 14.1047 10.1001 14.9C10.1001 15.6953 10.7448 16.34 11.5401 16.34Z" fill="#DD954F"/>
<path d="M8.16998 16.34C8.96527 16.34 9.60998 15.6953 9.60998 14.9C9.60998 14.1047 8.96527 13.46 8.16998 13.46C7.37469 13.46 6.72998 14.1047 6.72998 14.9C6.72998 15.6953 7.37469 16.34 8.16998 16.34Z" fill="#E7A156"/>
<path d="M51.92 50C52.7153 50 53.36 49.3553 53.36 48.56C53.36 47.7647 52.7153 47.12 51.92 47.12C51.1247 47.12 50.48 47.7647 50.48 48.56C50.48 49.3553 51.1247 50 51.92 50Z" fill="#B5742E"/>
<path d="M55.2901 50C56.0854 50 56.7301 49.3553 56.7301 48.56C56.7301 47.7647 56.0854 47.12 55.2901 47.12C54.4948 47.12 53.8501 47.7647 53.8501 48.56C53.8501 49.3553 54.4948 50 55.2901 50Z" fill="#B5742E"/>
<path d="M58.65 50C59.4453 50 60.09 49.3553 60.09 48.56C60.09 47.7647 59.4453 47.12 58.65 47.12C57.8547 47.12 57.21 47.7647 57.21 48.56C57.21 49.3553 57.8547 50 58.65 50Z" fill="#B5742E"/>
<path d="M62.0201 50C62.8154 50 63.4601 49.3553 63.4601 48.56C63.4601 47.7647 62.8154 47.12 62.0201 47.12C61.2248 47.12 60.5801 47.7647 60.5801 48.56C60.5801 49.3553 61.2248 50 62.0201 50Z" fill="#B5742E"/>
<path d="M65.3799 50C66.1752 50 66.8199 49.3553 66.8199 48.56C66.8199 47.7647 66.1752 47.12 65.3799 47.12C64.5846 47.12 63.9399 47.7647 63.9399 48.56C63.9399 49.3553 64.5846 50 65.3799 50Z" fill="#B5742E"/>
<path d="M68.7501 50C69.5454 50 70.1901 49.3553 70.1901 48.56C70.1901 47.7647 69.5454 47.12 68.7501 47.12C67.9548 47.12 67.3101 47.7647 67.3101 48.56C67.3101 49.3553 67.9548 50 68.7501 50Z" fill="#B5742E"/>
<path d="M72.1199 50C72.9152 50 73.5599 49.3553 73.5599 48.56C73.5599 47.7647 72.9152 47.12 72.1199 47.12C71.3246 47.12 70.6799 47.7647 70.6799 48.56C70.6799 49.3553 71.3246 50 72.1199 50Z" fill="#B5742E"/>
<path d="M75.48 50C76.2753 50 76.92 49.3553 76.92 48.56C76.92 47.7647 76.2753 47.12 75.48 47.12C74.6848 47.12 74.04 47.7647 74.04 48.56C74.04 49.3553 74.6848 50 75.48 50Z" fill="#B5742E"/>
<path d="M78.8499 50C79.6452 50 80.2899 49.3553 80.2899 48.56C80.2899 47.7647 79.6452 47.12 78.8499 47.12C78.0546 47.12 77.4099 47.7647 77.4099 48.56C77.4099 49.3553 78.0546 50 78.8499 50Z" fill="#B5742E"/>
<path d="M82.21 50C83.0053 50 83.65 49.3553 83.65 48.56C83.65 47.7647 83.0053 47.12 82.21 47.12C81.4147 47.12 80.77 47.7647 80.77 48.56C80.77 49.3553 81.4147 50 82.21 50Z" fill="#B5742E"/>
<path d="M85.5799 50C86.3752 50 87.0199 49.3553 87.0199 48.56C87.0199 47.7647 86.3752 47.12 85.5799 47.12C84.7846 47.12 84.1399 47.7647 84.1399 48.56C84.1399 49.3553 84.7846 50 85.5799 50Z" fill="#B5742E"/>
<path d="M88.94 50C89.7353 50 90.38 49.3553 90.38 48.56C90.38 47.7647 89.7353 47.12 88.94 47.12C88.1447 47.12 87.5 47.7647 87.5 48.56C87.5 49.3553 88.1447 50 88.94 50Z" fill="#CC8640"/>
<path d="M92.3101 50C93.1054 50 93.7501 49.3553 93.7501 48.56C93.7501 47.7647 93.1054 47.12 92.3101 47.12C91.5148 47.12 90.8701 47.7647 90.8701 48.56C90.8701 49.3553 91.5148 50 92.3101 50Z" fill="#CC8640"/>
<path d="M51.92 46.63C52.7153 46.63 53.36 45.9853 53.36 45.19C53.36 44.3947 52.7153 43.75 51.92 43.75C51.1247 43.75 50.48 44.3947 50.48 45.19C50.48 45.9853 51.1247 46.63 51.92 46.63Z" fill="#B5742E"/>
<path d="M55.2901 46.63C56.0854 46.63 56.7301 45.9853 56.7301 45.19C56.7301 44.3947 56.0854 43.75 55.2901 43.75C54.4948 43.75 53.8501 44.3947 53.8501 45.19C53.8501 45.9853 54.4948 46.63 55.2901 46.63Z" fill="#B5742E"/>
<path d="M58.65 46.63C59.4453 46.63 60.09 45.9853 60.09 45.19C60.09 44.3947 59.4453 43.75 58.65 43.75C57.8547 43.75 57.21 44.3947 57.21 45.19C57.21 45.9853 57.8547 46.63 58.65 46.63Z" fill="#B5742E"/>
<path d="M62.0201 46.63C62.8154 46.63 63.4601 45.9853 63.4601 45.19C63.4601 44.3947 62.8154 43.75 62.0201 43.75C61.2248 43.75 60.5801 44.3947 60.5801 45.19C60.5801 45.9853 61.2248 46.63 62.0201 46.63Z" fill="#B5742E"/>
<path d="M65.3799 46.63C66.1752 46.63 66.8199 45.9853 66.8199 45.19C66.8199 44.3947 66.1752 43.75 65.3799 43.75C64.5846 43.75 63.9399 44.3947 63.9399 45.19C63.9399 45.9853 64.5846 46.63 65.3799 46.63Z" fill="#B5742E"/>
<path d="M68.7501 46.63C69.5454 46.63 70.1901 45.9853 70.1901 45.19C70.1901 44.3947 69.5454 43.75 68.7501 43.75C67.9548 43.75 67.3101 44.3947 67.3101 45.19C67.3101 45.9853 67.9548 46.63 68.7501 46.63Z" fill="#B5742E"/>
<path d="M72.1199 46.63C72.9152 46.63 73.5599 45.9853 73.5599 45.19C73.5599 44.3947 72.9152 43.75 72.1199 43.75C71.3246 43.75 70.6799 44.3947 70.6799 45.19C70.6799 45.9853 71.3246 46.63 72.1199 46.63Z" fill="#B5742E"/>
<path d="M75.48 46.63C76.2753 46.63 76.92 45.9853 76.92 45.19C76.92 44.3947 76.2753 43.75 75.48 43.75C74.6848 43.75 74.04 44.3947 74.04 45.19C74.04 45.9853 74.6848 46.63 75.48 46.63Z" fill="#B5742E"/>
<path d="M78.8499 46.63C79.6452 46.63 80.2899 45.9853 80.2899 45.19C80.2899 44.3947 79.6452 43.75 78.8499 43.75C78.0546 43.75 77.4099 44.3947 77.4099 45.19C77.4099 45.9853 78.0546 46.63 78.8499 46.63Z" fill="#B5742E"/>
<path d="M82.21 46.63C83.0053 46.63 83.65 45.9853 83.65 45.19C83.65 44.3947 83.0053 43.75 82.21 43.75C81.4147 43.75 80.77 44.3947 80.77 45.19C80.77 45.9853 81.4147 46.63 82.21 46.63Z" fill="#B5742E"/>
<path d="M85.5799 46.63C86.3752 46.63 87.0199 45.9853 87.0199 45.19C87.0199 44.3947 86.3752 43.75 85.5799 43.75C84.7846 43.75 84.1399 44.3947 84.1399 45.19C84.1399 45.9853 84.7846 46.63 85.5799 46.63Z" fill="#B5742E"/>
<path d="M88.94 46.63C89.7353 46.63 90.38 45.9853 90.38 45.19C90.38 44.3947 89.7353 43.75 88.94 43.75C88.1447 43.75 87.5 44.3947 87.5 45.19C87.5 45.9853 88.1447 46.63 88.94 46.63Z" fill="#B5742E"/>
<path d="M92.3101 46.63C93.1054 46.63 93.7501 45.9853 93.7501 45.19C93.7501 44.3947 93.1054 43.75 92.3101 43.75C91.5148 43.75 90.8701 44.3947 90.8701 45.19C90.8701 45.9853 91.5148 46.63 92.3101 46.63Z" fill="#CC8640"/>
<path d="M95.67 46.63C96.4653 46.63 97.11 45.9853 97.11 45.19C97.11 44.3947 96.4653 43.75 95.67 43.75C94.8747 43.75 94.23 44.3947 94.23 45.19C94.23 45.9853 94.8747 46.63 95.67 46.63Z" fill="#CC8640"/>
<path d="M51.92 43.27C52.7153 43.27 53.36 42.6253 53.36 41.83C53.36 41.0347 52.7153 40.39 51.92 40.39C51.1247 40.39 50.48 41.0347 50.48 41.83C50.48 42.6253 51.1247 43.27 51.92 43.27Z" fill="#CD944F"/>
<path d="M55.2901 43.27C56.0854 43.27 56.7301 42.6253 56.7301 41.83C56.7301 41.0347 56.0854 40.39 55.2901 40.39C54.4948 40.39 53.8501 41.0347 53.8501 41.83C53.8501 42.6253 54.4948 43.27 55.2901 43.27Z" fill="#CD944F"/>
<path d="M58.65 43.27C59.4453 43.27 60.09 42.6253 60.09 41.83C60.09 41.0347 59.4453 40.39 58.65 40.39C57.8547 40.39 57.21 41.0347 57.21 41.83C57.21 42.6253 57.8547 43.27 58.65 43.27Z" fill="#CD944F"/>
<path d="M62.0201 43.27C62.8154 43.27 63.4601 42.6253 63.4601 41.83C63.4601 41.0347 62.8154 40.39 62.0201 40.39C61.2248 40.39 60.5801 41.0347 60.5801 41.83C60.5801 42.6253 61.2248 43.27 62.0201 43.27Z" fill="#CD944F"/>
<path d="M65.3799 43.27C66.1752 43.27 66.8199 42.6253 66.8199 41.83C66.8199 41.0347 66.1752 40.39 65.3799 40.39C64.5846 40.39 63.9399 41.0347 63.9399 41.83C63.9399 42.6253 64.5846 43.27 65.3799 43.27Z" fill="#CD944F"/>
<path d="M68.7501 43.27C69.5454 43.27 70.1901 42.6253 70.1901 41.83C70.1901 41.0347 69.5454 40.39 68.7501 40.39C67.9548 40.39 67.3101 41.0347 67.3101 41.83C67.3101 42.6253 67.9548 43.27 68.7501 43.27Z" fill="#A56D47"/>
<path d="M72.1199 43.27C72.9152 43.27 73.5599 42.6253 73.5599 41.83C73.5599 41.0347 72.9152 40.39 72.1199 40.39C71.3246 40.39 70.6799 41.0347 70.6799 41.83C70.6799 42.6253 71.3246 43.27 72.1199 43.27Z" fill="#A56D47"/>
<path d="M75.48 43.27C76.2753 43.27 76.92 42.6253 76.92 41.83C76.92 41.0347 76.2753 40.39 75.48 40.39C74.6848 40.39 74.04 41.0347 74.04 41.83C74.04 42.6253 74.6848 43.27 75.48 43.27Z" fill="#A56D47"/>
<path d="M78.8499 43.27C79.6452 43.27 80.2899 42.6253 80.2899 41.83C80.2899 41.0347 79.6452 40.39 78.8499 40.39C78.0546 40.39 77.4099 41.0347 77.4099 41.83C77.4099 42.6253 78.0546 43.27 78.8499 43.27Z" fill="#A56D47"/>
<path d="M82.21 43.27C83.0053 43.27 83.65 42.6253 83.65 41.83C83.65 41.0347 83.0053 40.39 82.21 40.39C81.4147 40.39 80.77 41.0347 80.77 41.83C80.77 42.6253 81.4147 43.27 82.21 43.27Z" fill="#A16433"/>
<path d="M85.5799 43.27C86.3752 43.27 87.0199 42.6253 87.0199 41.83C87.0199 41.0347 86.3752 40.39 85.5799 40.39C84.7846 40.39 84.1399 41.0347 84.1399 41.83C84.1399 42.6253 84.7846 43.27 85.5799 43.27Z" fill="#A16433"/>
<path d="M88.94 43.27C89.7353 43.27 90.38 42.6253 90.38 41.83C90.38 41.0347 89.7353 40.39 88.94 40.39C88.1447 40.39 87.5 41.0347 87.5 41.83C87.5 42.6253 88.1447 43.27 88.94 43.27Z" fill="#A8683D"/>
<path d="M92.3101 43.27C93.1054 43.27 93.7501 42.6253 93.7501 41.83C93.7501 41.0347 93.1054 40.39 92.3101 40.39C91.5148 40.39 90.8701 41.0347 90.8701 41.83C90.8701 42.6253 91.5148 43.27 92.3101 43.27Z" fill="#A8683D"/>
<path d="M95.67 43.27C96.4653 43.27 97.11 42.6253 97.11 41.83C97.11 41.0347 96.4653 40.39 95.67 40.39C94.8747 40.39 94.23 41.0347 94.23 41.83C94.23 42.6253 94.8747 43.27 95.67 43.27Z" fill="#CC8640"/>
<path d="M99.0401 43.27C99.8354 43.27 100.48 42.6253 100.48 41.83C100.48 41.0347 99.8354 40.39 99.0401 40.39C98.2448 40.39 97.6001 41.0347 97.6001 41.83C97.6001 42.6253 98.2448 43.27 99.0401 43.27Z" fill="#E7A156"/>
<path d="M51.92 39.9C52.7153 39.9 53.36 39.2553 53.36 38.46C53.36 37.6647 52.7153 37.02 51.92 37.02C51.1247 37.02 50.48 37.6647 50.48 38.46C50.48 39.2553 51.1247 39.9 51.92 39.9Z" fill="#C5843D"/>
<path d="M55.2901 39.9C56.0854 39.9 56.7301 39.2553 56.7301 38.46C56.7301 37.6647 56.0854 37.02 55.2901 37.02C54.4948 37.02 53.8501 37.6647 53.8501 38.46C53.8501 39.2553 54.4948 39.9 55.2901 39.9Z" fill="#C5843D"/>
<path d="M58.65 39.9C59.4453 39.9 60.09 39.2553 60.09 38.46C60.09 37.6647 59.4453 37.02 58.65 37.02C57.8547 37.02 57.21 37.6647 57.21 38.46C57.21 39.2553 57.8547 39.9 58.65 39.9Z" fill="#C5843D"/>
<path d="M62.0201 39.9C62.8154 39.9 63.4601 39.2553 63.4601 38.46C63.4601 37.6647 62.8154 37.02 62.0201 37.02C61.2248 37.02 60.5801 37.6647 60.5801 38.46C60.5801 39.2553 61.2248 39.9 62.0201 39.9Z" fill="#C5843D"/>
<path d="M65.3799 39.9C66.1752 39.9 66.8199 39.2553 66.8199 38.46C66.8199 37.6647 66.1752 37.02 65.3799 37.02C64.5846 37.02 63.9399 37.6647 63.9399 38.46C63.9399 39.2553 64.5846 39.9 65.3799 39.9Z" fill="#C5843D"/>
<path d="M68.7501 39.9C69.5454 39.9 70.1901 39.2553 70.1901 38.46C70.1901 37.6647 69.5454 37.02 68.7501 37.02C67.9548 37.02 67.3101 37.6647 67.3101 38.46C67.3101 39.2553 67.9548 39.9 68.7501 39.9Z" fill="#C5843D"/>
<path d="M72.1199 39.9C72.9152 39.9 73.5599 39.2553 73.5599 38.46C73.5599 37.6647 72.9152 37.02 72.1199 37.02C71.3246 37.02 70.6799 37.6647 70.6799 38.46C70.6799 39.2553 71.3246 39.9 72.1199 39.9Z" fill="#C5843D"/>
<path d="M75.48 39.9C76.2753 39.9 76.92 39.2553 76.92 38.46C76.92 37.6647 76.2753 37.02 75.48 37.02C74.6848 37.02 74.04 37.6647 74.04 38.46C74.04 39.2553 74.6848 39.9 75.48 39.9Z" fill="#C5843D"/>
<path d="M78.8499 39.9C79.6452 39.9 80.2899 39.2553 80.2899 38.46C80.2899 37.6647 79.6452 37.02 78.8499 37.02C78.0546 37.02 77.4099 37.6647 77.4099 38.46C77.4099 39.2553 78.0546 39.9 78.8499 39.9Z" fill="#C5843D"/>
<path d="M82.21 39.9C83.0053 39.9 83.65 39.2553 83.65 38.46C83.65 37.6647 83.0053 37.02 82.21 37.02C81.4147 37.02 80.77 37.6647 80.77 38.46C80.77 39.2553 81.4147 39.9 82.21 39.9Z" fill="#C5843D"/>
<path d="M85.5799 39.9C86.3752 39.9 87.0199 39.2553 87.0199 38.46C87.0199 37.6647 86.3752 37.02 85.5799 37.02C84.7846 37.02 84.1399 37.6647 84.1399 38.46C84.1399 39.2553 84.7846 39.9 85.5799 39.9Z" fill="#C5843D"/>
<path d="M88.94 39.9C89.7353 39.9 90.38 39.2553 90.38 38.46C90.38 37.6647 89.7353 37.02 88.94 37.02C88.1447 37.02 87.5 37.6647 87.5 38.46C87.5 39.2553 88.1447 39.9 88.94 39.9Z" fill="#C5843D"/>
<path d="M92.3101 39.9C93.1054 39.9 93.7501 39.2553 93.7501 38.46C93.7501 37.6647 93.1054 37.02 92.3101 37.02C91.5148 37.02 90.8701 37.6647 90.8701 38.46C90.8701 39.2553 91.5148 39.9 92.3101 39.9Z" fill="#A16433"/>
<path d="M95.67 39.9C96.4653 39.9 97.11 39.2553 97.11 38.46C97.11 37.6647 96.4653 37.02 95.67 37.02C94.8747 37.02 94.23 37.6647 94.23 38.46C94.23 39.2553 94.8747 39.9 95.67 39.9Z" fill="#A16433"/>
<path d="M99.0401 39.9C99.8354 39.9 100.48 39.2553 100.48 38.46C100.48 37.6647 99.8354 37.02 99.0401 37.02C98.2448 37.02 97.6001 37.6647 97.6001 38.46C97.6001 39.2553 98.2448 39.9 99.0401 39.9Z" fill="#E7A156"/>
<path d="M51.92 36.54C52.7153 36.54 53.36 35.8953 53.36 35.1C53.36 34.3047 52.7153 33.66 51.92 33.66C51.1247 33.66 50.48 34.3047 50.48 35.1C50.48 35.8953 51.1247 36.54 51.92 36.54Z" fill="#E7A156"/>
<path d="M55.2901 36.54C56.0854 36.54 56.7301 35.8953 56.7301 35.1C56.7301 34.3047 56.0854 33.66 55.2901 33.66C54.4948 33.66 53.8501 34.3047 53.8501 35.1C53.8501 35.8953 54.4948 36.54 55.2901 36.54Z" fill="#E7A156"/>
<path d="M58.65 36.54C59.4453 36.54 60.09 35.8953 60.09 35.1C60.09 34.3047 59.4453 33.66 58.65 33.66C57.8547 33.66 57.21 34.3047 57.21 35.1C57.21 35.8953 57.8547 36.54 58.65 36.54Z" fill="#E7A156"/>
<path d="M62.0201 36.54C62.8154 36.54 63.4601 35.8953 63.4601 35.1C63.4601 34.3047 62.8154 33.66 62.0201 33.66C61.2248 33.66 60.5801 34.3047 60.5801 35.1C60.5801 35.8953 61.2248 36.54 62.0201 36.54Z" fill="#E7A156"/>
<path d="M65.3799 36.54C66.1752 36.54 66.8199 35.8953 66.8199 35.1C66.8199 34.3047 66.1752 33.66 65.3799 33.66C64.5846 33.66 63.9399 34.3047 63.9399 35.1C63.9399 35.8953 64.5846 36.54 65.3799 36.54Z" fill="#E7A156"/>
<path d="M68.7501 36.54C69.5454 36.54 70.1901 35.8953 70.1901 35.1C70.1901 34.3047 69.5454 33.66 68.7501 33.66C67.9548 33.66 67.3101 34.3047 67.3101 35.1C67.3101 35.8953 67.9548 36.54 68.7501 36.54Z" fill="#E7A156"/>
<path d="M72.1199 36.54C72.9152 36.54 73.5599 35.8953 73.5599 35.1C73.5599 34.3047 72.9152 33.66 72.1199 33.66C71.3246 33.66 70.6799 34.3047 70.6799 35.1C70.6799 35.8953 71.3246 36.54 72.1199 36.54Z" fill="#E7A156"/>
<path d="M75.48 36.54C76.2753 36.54 76.92 35.8953 76.92 35.1C76.92 34.3047 76.2753 33.66 75.48 33.66C74.6848 33.66 74.04 34.3047 74.04 35.1C74.04 35.8953 74.6848 36.54 75.48 36.54Z" fill="#E7A156"/>
<path d="M78.8499 36.54C79.6452 36.54 80.2899 35.8953 80.2899 35.1C80.2899 34.3047 79.6452 33.66 78.8499 33.66C78.0546 33.66 77.4099 34.3047 77.4099 35.1C77.4099 35.8953 78.0546 36.54 78.8499 36.54Z" fill="#E7A156"/>
<path d="M82.21 36.54C83.0053 36.54 83.65 35.8953 83.65 35.1C83.65 34.3047 83.0053 33.66 82.21 33.66C81.4147 33.66 80.77 34.3047 80.77 35.1C80.77 35.8953 81.4147 36.54 82.21 36.54Z" fill="#CC8B50"/>
<path d="M85.5799 36.54C86.3752 36.54 87.0199 35.8953 87.0199 35.1C87.0199 34.3047 86.3752 33.66 85.5799 33.66C84.7846 33.66 84.1399 34.3047 84.1399 35.1C84.1399 35.8953 84.7846 36.54 85.5799 36.54Z" fill="#CC8B50"/>
<path d="M88.94 36.54C89.7353 36.54 90.38 35.8953 90.38 35.1C90.38 34.3047 89.7353 33.66 88.94 33.66C88.1447 33.66 87.5 34.3047 87.5 35.1C87.5 35.8953 88.1447 36.54 88.94 36.54Z" fill="#CC8B50"/>
<path d="M92.3101 36.54C93.1054 36.54 93.7501 35.8953 93.7501 35.1C93.7501 34.3047 93.1054 33.66 92.3101 33.66C91.5148 33.66 90.8701 34.3047 90.8701 35.1C90.8701 35.8953 91.5148 36.54 92.3101 36.54Z" fill="#CC8B50"/>
<path d="M95.67 36.54C96.4653 36.54 97.11 35.8953 97.11 35.1C97.11 34.3047 96.4653 33.66 95.67 33.66C94.8747 33.66 94.23 34.3047 94.23 35.1C94.23 35.8953 94.8747 36.54 95.67 36.54Z" fill="#CC8B50"/>
<path d="M99.0401 36.54C99.8354 36.54 100.48 35.8953 100.48 35.1C100.48 34.3047 99.8354 33.66 99.0401 33.66C98.2448 33.66 97.6001 34.3047 97.6001 35.1C97.6001 35.8953 98.2448 36.54 99.0401 36.54Z" fill="#E7A156"/>
<path d="M51.92 33.17C52.7153 33.17 53.36 32.5253 53.36 31.73C53.36 30.9347 52.7153 30.29 51.92 30.29C51.1247 30.29 50.48 30.9347 50.48 31.73C50.48 32.5253 51.1247 33.17 51.92 33.17Z" fill="#E7A156"/>
<path d="M55.2901 33.17C56.0854 33.17 56.7301 32.5253 56.7301 31.73C56.7301 30.9347 56.0854 30.29 55.2901 30.29C54.4948 30.29 53.8501 30.9347 53.8501 31.73C53.8501 32.5253 54.4948 33.17 55.2901 33.17Z" fill="#E7A156"/>
<path d="M58.65 33.17C59.4453 33.17 60.09 32.5253 60.09 31.73C60.09 30.9347 59.4453 30.29 58.65 30.29C57.8547 30.29 57.21 30.9347 57.21 31.73C57.21 32.5253 57.8547 33.17 58.65 33.17Z" fill="#E7A156"/>
<path d="M62.0201 33.17C62.8154 33.17 63.4601 32.5253 63.4601 31.73C63.4601 30.9347 62.8154 30.29 62.0201 30.29C61.2248 30.29 60.5801 30.9347 60.5801 31.73C60.5801 32.5253 61.2248 33.17 62.0201 33.17Z" fill="#E7A156"/>
<path d="M65.3799 33.17C66.1752 33.17 66.8199 32.5253 66.8199 31.73C66.8199 30.9347 66.1752 30.29 65.3799 30.29C64.5846 30.29 63.9399 30.9347 63.9399 31.73C63.9399 32.5253 64.5846 33.17 65.3799 33.17Z" fill="#E7A156"/>
<path d="M68.7501 33.17C69.5454 33.17 70.1901 32.5253 70.1901 31.73C70.1901 30.9347 69.5454 30.29 68.7501 30.29C67.9548 30.29 67.3101 30.9347 67.3101 31.73C67.3101 32.5253 67.9548 33.17 68.7501 33.17Z" fill="#E7A156"/>
<path d="M72.1199 33.17C72.9152 33.17 73.5599 32.5253 73.5599 31.73C73.5599 30.9347 72.9152 30.29 72.1199 30.29C71.3246 30.29 70.6799 30.9347 70.6799 31.73C70.6799 32.5253 71.3246 33.17 72.1199 33.17Z" fill="#E7A156"/>
<path d="M75.48 33.17C76.2753 33.17 76.92 32.5253 76.92 31.73C76.92 30.9347 76.2753 30.29 75.48 30.29C74.6848 30.29 74.04 30.9347 74.04 31.73C74.04 32.5253 74.6848 33.17 75.48 33.17Z" fill="#E7A156"/>
<path d="M78.8499 33.17C79.6452 33.17 80.2899 32.5253 80.2899 31.73C80.2899 30.9347 79.6452 30.29 78.8499 30.29C78.0546 30.29 77.4099 30.9347 77.4099 31.73C77.4099 32.5253 78.0546 33.17 78.8499 33.17Z" fill="#E7A156"/>
<path d="M82.21 33.17C83.0053 33.17 83.65 32.5253 83.65 31.73C83.65 30.9347 83.0053 30.29 82.21 30.29C81.4147 30.29 80.77 30.9347 80.77 31.73C80.77 32.5253 81.4147 33.17 82.21 33.17Z" fill="#E7A156"/>
<path d="M85.5799 33.17C86.3752 33.17 87.0199 32.5253 87.0199 31.73C87.0199 30.9347 86.3752 30.29 85.5799 30.29C84.7846 30.29 84.1399 30.9347 84.1399 31.73C84.1399 32.5253 84.7846 33.17 85.5799 33.17Z" fill="#E7A156"/>
<path d="M88.94 33.17C89.7353 33.17 90.38 32.5253 90.38 31.73C90.38 30.9347 89.7353 30.29 88.94 30.29C88.1447 30.29 87.5 30.9347 87.5 31.73C87.5 32.5253 88.1447 33.17 88.94 33.17Z" fill="#E7A156"/>
<path d="M92.3101 33.17C93.1054 33.17 93.7501 32.5253 93.7501 31.73C93.7501 30.9347 93.1054 30.29 92.3101 30.29C91.5148 30.29 90.8701 30.9347 90.8701 31.73C90.8701 32.5253 91.5148 33.17 92.3101 33.17Z" fill="#E79356"/>
<path d="M95.67 33.17C96.4653 33.17 97.11 32.5253 97.11 31.73C97.11 30.9347 96.4653 30.29 95.67 30.29C94.8747 30.29 94.23 30.9347 94.23 31.73C94.23 32.5253 94.8747 33.17 95.67 33.17Z" fill="#E79356"/>
<path d="M99.0401 33.17C99.8354 33.17 100.48 32.5253 100.48 31.73C100.48 30.9347 99.8354 30.29 99.0401 30.29C98.2448 30.29 97.6001 30.9347 97.6001 31.73C97.6001 32.5253 98.2448 33.17 99.0401 33.17Z" fill="#E7A156"/>
<path d="M51.92 29.8101C52.7153 29.8101 53.36 29.1653 53.36 28.3701C53.36 27.5748 52.7153 26.9301 51.92 26.9301C51.1247 26.9301 50.48 27.5748 50.48 28.3701C50.48 29.1653 51.1247 29.8101 51.92 29.8101Z" fill="#E7A156"/>
<path d="M55.2901 29.8101C56.0854 29.8101 56.7301 29.1653 56.7301 28.3701C56.7301 27.5748 56.0854 26.9301 55.2901 26.9301C54.4948 26.9301 53.8501 27.5748 53.8501 28.3701C53.8501 29.1653 54.4948 29.8101 55.2901 29.8101Z" fill="#E7A156"/>
<path d="M58.65 29.8101C59.4453 29.8101 60.09 29.1653 60.09 28.3701C60.09 27.5748 59.4453 26.9301 58.65 26.9301C57.8547 26.9301 57.21 27.5748 57.21 28.3701C57.21 29.1653 57.8547 29.8101 58.65 29.8101Z" fill="#E7A156"/>
<path d="M62.0201 29.8101C62.8154 29.8101 63.4601 29.1653 63.4601 28.3701C63.4601 27.5748 62.8154 26.9301 62.0201 26.9301C61.2248 26.9301 60.5801 27.5748 60.5801 28.3701C60.5801 29.1653 61.2248 29.8101 62.0201 29.8101Z" fill="#E7A156"/>
<path d="M65.3799 29.8101C66.1752 29.8101 66.8199 29.1653 66.8199 28.3701C66.8199 27.5748 66.1752 26.9301 65.3799 26.9301C64.5846 26.9301 63.9399 27.5748 63.9399 28.3701C63.9399 29.1653 64.5846 29.8101 65.3799 29.8101Z" fill="#E7A156"/>
<path d="M68.7501 29.8101C69.5454 29.8101 70.1901 29.1653 70.1901 28.3701C70.1901 27.5748 69.5454 26.9301 68.7501 26.9301C67.9548 26.9301 67.3101 27.5748 67.3101 28.3701C67.3101 29.1653 67.9548 29.8101 68.7501 29.8101Z" fill="#E7A156"/>
<path d="M72.1199 29.8101C72.9152 29.8101 73.5599 29.1653 73.5599 28.3701C73.5599 27.5748 72.9152 26.9301 72.1199 26.9301C71.3246 26.9301 70.6799 27.5748 70.6799 28.3701C70.6799 29.1653 71.3246 29.8101 72.1199 29.8101Z" fill="#E7A156"/>
<path d="M75.48 29.8101C76.2753 29.8101 76.92 29.1653 76.92 28.3701C76.92 27.5748 76.2753 26.9301 75.48 26.9301C74.6848 26.9301 74.04 27.5748 74.04 28.3701C74.04 29.1653 74.6848 29.8101 75.48 29.8101Z" fill="#E7A156"/>
<path d="M78.8499 29.8101C79.6452 29.8101 80.2899 29.1653 80.2899 28.3701C80.2899 27.5748 79.6452 26.9301 78.8499 26.9301C78.0546 26.9301 77.4099 27.5748 77.4099 28.3701C77.4099 29.1653 78.0546 29.8101 78.8499 29.8101Z" fill="#E7A156"/>
<path d="M82.21 29.8101C83.0053 29.8101 83.65 29.1653 83.65 28.3701C83.65 27.5748 83.0053 26.9301 82.21 26.9301C81.4147 26.9301 80.77 27.5748 80.77 28.3701C80.77 29.1653 81.4147 29.8101 82.21 29.8101Z" fill="#E7A156"/>
<path d="M85.5799 29.8101C86.3752 29.8101 87.0199 29.1653 87.0199 28.3701C87.0199 27.5748 86.3752 26.9301 85.5799 26.9301C84.7846 26.9301 84.1399 27.5748 84.1399 28.3701C84.1399 29.1653 84.7846 29.8101 85.5799 29.8101Z" fill="#E7A156"/>
<path d="M88.94 29.8101C89.7353 29.8101 90.38 29.1653 90.38 28.3701C90.38 27.5748 89.7353 26.9301 88.94 26.9301C88.1447 26.9301 87.5 27.5748 87.5 28.3701C87.5 29.1653 88.1447 29.8101 88.94 29.8101Z" fill="#E7A156"/>
<path d="M92.3101 29.8101C93.1054 29.8101 93.7501 29.1653 93.7501 28.3701C93.7501 27.5748 93.1054 26.9301 92.3101 26.9301C91.5148 26.9301 90.8701 27.5748 90.8701 28.3701C90.8701 29.1653 91.5148 29.8101 92.3101 29.8101Z" fill="#E79356"/>
<path d="M95.67 29.8101C96.4653 29.8101 97.11 29.1653 97.11 28.3701C97.11 27.5748 96.4653 26.9301 95.67 26.9301C94.8747 26.9301 94.23 27.5748 94.23 28.3701C94.23 29.1653 94.8747 29.8101 95.67 29.8101Z" fill="#E79356"/>
<path d="M99.0401 29.8101C99.8354 29.8101 100.48 29.1653 100.48 28.3701C100.48 27.5748 99.8354 26.9301 99.0401 26.9301C98.2448 26.9301 97.6001 27.5748 97.6001 28.3701C97.6001 29.1653 98.2448 29.8101 99.0401 29.8101Z" fill="#E79356"/>
<path d="M51.92 26.4401C52.7153 26.4401 53.36 25.7953 53.36 25.0001C53.36 24.2048 52.7153 23.5601 51.92 23.5601C51.1247 23.5601 50.48 24.2048 50.48 25.0001C50.48 25.7953 51.1247 26.4401 51.92 26.4401Z" fill="#E3B575"/>
<path d="M55.2901 26.4401C56.0854 26.4401 56.7301 25.7953 56.7301 25.0001C56.7301 24.2048 56.0854 23.5601 55.2901 23.5601C54.4948 23.5601 53.8501 24.2048 53.8501 25.0001C53.8501 25.7953 54.4948 26.4401 55.2901 26.4401Z" fill="#E7A156"/>
<path d="M58.65 26.4401C59.4453 26.4401 60.09 25.7953 60.09 25.0001C60.09 24.2048 59.4453 23.5601 58.65 23.5601C57.8547 23.5601 57.21 24.2048 57.21 25.0001C57.21 25.7953 57.8547 26.4401 58.65 26.4401Z" fill="#E7A156"/>
<path d="M62.0201 26.4401C62.8154 26.4401 63.4601 25.7953 63.4601 25.0001C63.4601 24.2048 62.8154 23.5601 62.0201 23.5601C61.2248 23.5601 60.5801 24.2048 60.5801 25.0001C60.5801 25.7953 61.2248 26.4401 62.0201 26.4401Z" fill="#E7A156"/>
<path d="M65.3799 26.4401C66.1752 26.4401 66.8199 25.7953 66.8199 25.0001C66.8199 24.2048 66.1752 23.5601 65.3799 23.5601C64.5846 23.5601 63.9399 24.2048 63.9399 25.0001C63.9399 25.7953 64.5846 26.4401 65.3799 26.4401Z" fill="#E7A156"/>
<path d="M68.7501 26.4401C69.5454 26.4401 70.1901 25.7953 70.1901 25.0001C70.1901 24.2048 69.5454 23.5601 68.7501 23.5601C67.9548 23.5601 67.3101 24.2048 67.3101 25.0001C67.3101 25.7953 67.9548 26.4401 68.7501 26.4401Z" fill="#E7A156"/>
<path d="M72.1199 26.4401C72.9152 26.4401 73.5599 25.7953 73.5599 25.0001C73.5599 24.2048 72.9152 23.5601 72.1199 23.5601C71.3246 23.5601 70.6799 24.2048 70.6799 25.0001C70.6799 25.7953 71.3246 26.4401 72.1199 26.4401Z" fill="#E7A156"/>
<path d="M75.48 26.4401C76.2753 26.4401 76.92 25.7953 76.92 25.0001C76.92 24.2048 76.2753 23.5601 75.48 23.5601C74.6848 23.5601 74.04 24.2048 74.04 25.0001C74.04 25.7953 74.6848 26.4401 75.48 26.4401Z" fill="#E7A156"/>
<path d="M78.8499 26.4401C79.6452 26.4401 80.2899 25.7953 80.2899 25.0001C80.2899 24.2048 79.6452 23.5601 78.8499 23.5601C78.0546 23.5601 77.4099 24.2048 77.4099 25.0001C77.4099 25.7953 78.0546 26.4401 78.8499 26.4401Z" fill="#E3B575"/>
<path d="M82.21 26.4401C83.0053 26.4401 83.65 25.7953 83.65 25.0001C83.65 24.2048 83.0053 23.5601 82.21 23.5601C81.4147 23.5601 80.77 24.2048 80.77 25.0001C80.77 25.7953 81.4147 26.4401 82.21 26.4401Z" fill="#E7A156"/>
<path d="M85.5799 26.4401C86.3752 26.4401 87.0199 25.7953 87.0199 25.0001C87.0199 24.2048 86.3752 23.5601 85.5799 23.5601C84.7846 23.5601 84.1399 24.2048 84.1399 25.0001C84.1399 25.7953 84.7846 26.4401 85.5799 26.4401Z" fill="#E7A156"/>
<path d="M88.94 26.4401C89.7353 26.4401 90.38 25.7953 90.38 25.0001C90.38 24.2048 89.7353 23.5601 88.94 23.5601C88.1447 23.5601 87.5 24.2048 87.5 25.0001C87.5 25.7953 88.1447 26.4401 88.94 26.4401Z" fill="#E7A156"/>
<path d="M92.3101 26.4401C93.1054 26.4401 93.7501 25.7953 93.7501 25.0001C93.7501 24.2048 93.1054 23.5601 92.3101 23.5601C91.5148 23.5601 90.8701 24.2048 90.8701 25.0001C90.8701 25.7953 91.5148 26.4401 92.3101 26.4401Z" fill="#E79356"/>
<path d="M95.67 26.4401C96.4653 26.4401 97.11 25.7953 97.11 25.0001C97.11 24.2048 96.4653 23.5601 95.67 23.5601C94.8747 23.5601 94.23 24.2048 94.23 25.0001C94.23 25.7953 94.8747 26.4401 95.67 26.4401Z" fill="#E79356"/>
<path d="M99.0401 26.4401C99.8354 26.4401 100.48 25.7953 100.48 25.0001C100.48 24.2048 99.8354 23.5601 99.0401 23.5601C98.2448 23.5601 97.6001 24.2048 97.6001 25.0001C97.6001 25.7953 98.2448 26.4401 99.0401 26.4401Z" fill="#E7A156"/>
<path d="M51.92 23.0699C52.7153 23.0699 53.36 22.4252 53.36 21.6299C53.36 20.8346 52.7153 20.1899 51.92 20.1899C51.1247 20.1899 50.48 20.8346 50.48 21.6299C50.48 22.4252 51.1247 23.0699 51.92 23.0699Z" fill="#E3B575"/>
<path d="M55.2901 23.0699C56.0854 23.0699 56.7301 22.4252 56.7301 21.6299C56.7301 20.8346 56.0854 20.1899 55.2901 20.1899C54.4948 20.1899 53.8501 20.8346 53.8501 21.6299C53.8501 22.4252 54.4948 23.0699 55.2901 23.0699Z" fill="#D8A66A"/>
<path d="M58.65 23.0699C59.4453 23.0699 60.09 22.4252 60.09 21.6299C60.09 20.8346 59.4453 20.1899 58.65 20.1899C57.8547 20.1899 57.21 20.8346 57.21 21.6299C57.21 22.4252 57.8547 23.0699 58.65 23.0699Z" fill="#E7A156"/>
<path d="M62.0201 23.0699C62.8154 23.0699 63.4601 22.4252 63.4601 21.6299C63.4601 20.8346 62.8154 20.1899 62.0201 20.1899C61.2248 20.1899 60.5801 20.8346 60.5801 21.6299C60.5801 22.4252 61.2248 23.0699 62.0201 23.0699Z" fill="#E7A156"/>
<path d="M65.3799 23.0699C66.1752 23.0699 66.8199 22.4252 66.8199 21.6299C66.8199 20.8346 66.1752 20.1899 65.3799 20.1899C64.5846 20.1899 63.9399 20.8346 63.9399 21.6299C63.9399 22.4252 64.5846 23.0699 65.3799 23.0699Z" fill="#E7A156"/>
<path d="M68.7501 23.0699C69.5454 23.0699 70.1901 22.4252 70.1901 21.6299C70.1901 20.8346 69.5454 20.1899 68.7501 20.1899C67.9548 20.1899 67.3101 20.8346 67.3101 21.6299C67.3101 22.4252 67.9548 23.0699 68.7501 23.0699Z" fill="#E7A156"/>
<path d="M72.1199 23.0699C72.9152 23.0699 73.5599 22.4252 73.5599 21.6299C73.5599 20.8346 72.9152 20.1899 72.1199 20.1899C71.3246 20.1899 70.6799 20.8346 70.6799 21.6299C70.6799 22.4252 71.3246 23.0699 72.1199 23.0699Z" fill="#E7A156"/>
<path d="M75.48 23.0699C76.2753 23.0699 76.92 22.4252 76.92 21.6299C76.92 20.8346 76.2753 20.1899 75.48 20.1899C74.6848 20.1899 74.04 20.8346 74.04 21.6299C74.04 22.4252 74.6848 23.0699 75.48 23.0699Z" fill="#E7A156"/>
<path d="M78.8499 23.0699C79.6452 23.0699 80.2899 22.4252 80.2899 21.6299C80.2899 20.8346 79.6452 20.1899 78.8499 20.1899C78.0546 20.1899 77.4099 20.8346 77.4099 21.6299C77.4099 22.4252 78.0546 23.0699 78.8499 23.0699Z" fill="#E3B575"/>
<path d="M82.21 23.0699C83.0053 23.0699 83.65 22.4252 83.65 21.6299C83.65 20.8346 83.0053 20.1899 82.21 20.1899C81.4147 20.1899 80.77 20.8346 80.77 21.6299C80.77 22.4252 81.4147 23.0699 82.21 23.0699Z" fill="#D8A66A"/>
<path d="M85.5799 23.0699C86.3752 23.0699 87.0199 22.4252 87.0199 21.6299C87.0199 20.8346 86.3752 20.1899 85.5799 20.1899C84.7846 20.1899 84.1399 20.8346 84.1399 21.6299C84.1399 22.4252 84.7846 23.0699 85.5799 23.0699Z" fill="#E7A156"/>
<path d="M88.94 23.0699C89.7353 23.0699 90.38 22.4252 90.38 21.6299C90.38 20.8346 89.7353 20.1899 88.94 20.1899C88.1447 20.1899 87.5 20.8346 87.5 21.6299C87.5 22.4252 88.1447 23.0699 88.94 23.0699Z" fill="#E7A156"/>
<path d="M92.3101 23.0699C93.1054 23.0699 93.7501 22.4252 93.7501 21.6299C93.7501 20.8346 93.1054 20.1899 92.3101 20.1899C91.5148 20.1899 90.8701 20.8346 90.8701 21.6299C90.8701 22.4252 91.5148 23.0699 92.3101 23.0699Z" fill="#E7A156"/>
<path d="M95.67 23.0699C96.4653 23.0699 97.11 22.4252 97.11 21.6299C97.11 20.8346 96.4653 20.1899 95.67 20.1899C94.8747 20.1899 94.23 20.8346 94.23 21.6299C94.23 22.4252 94.8747 23.0699 95.67 23.0699Z" fill="#E7A156"/>
<path d="M99.0401 23.0699C99.8354 23.0699 100.48 22.4252 100.48 21.6299C100.48 20.8346 99.8354 20.1899 99.0401 20.1899C98.2448 20.1899 97.6001 20.8346 97.6001 21.6299C97.6001 22.4252 98.2448 23.0699 99.0401 23.0699Z" fill="#E7A156"/>
<path d="M51.92 19.71C52.7153 19.71 53.36 19.0652 53.36 18.27C53.36 17.4747 52.7153 16.83 51.92 16.83C51.1247 16.83 50.48 17.4747 50.48 18.27C50.48 19.0652 51.1247 19.71 51.92 19.71Z" fill="#DD954F"/>
<path d="M55.2901 19.71C56.0854 19.71 56.7301 19.0652 56.7301 18.27C56.7301 17.4747 56.0854 16.83 55.2901 16.83C54.4948 16.83 53.8501 17.4747 53.8501 18.27C53.8501 19.0652 54.4948 19.71 55.2901 19.71Z" fill="#E3B575"/>
<path d="M58.65 19.71C59.4453 19.71 60.09 19.0652 60.09 18.27C60.09 17.4747 59.4453 16.83 58.65 16.83C57.8547 16.83 57.21 17.4747 57.21 18.27C57.21 19.0652 57.8547 19.71 58.65 19.71Z" fill="#E7A156"/>
<path d="M62.0201 19.71C62.8154 19.71 63.4601 19.0652 63.4601 18.27C63.4601 17.4747 62.8154 16.83 62.0201 16.83C61.2248 16.83 60.5801 17.4747 60.5801 18.27C60.5801 19.0652 61.2248 19.71 62.0201 19.71Z" fill="#E7A156"/>
<path d="M65.3799 19.71C66.1752 19.71 66.8199 19.0652 66.8199 18.27C66.8199 17.4747 66.1752 16.83 65.3799 16.83C64.5846 16.83 63.9399 17.4747 63.9399 18.27C63.9399 19.0652 64.5846 19.71 65.3799 19.71Z" fill="#E7A156"/>
<path d="M68.7501 19.71C69.5454 19.71 70.1901 19.0652 70.1901 18.27C70.1901 17.4747 69.5454 16.83 68.7501 16.83C67.9548 16.83 67.3101 17.4747 67.3101 18.27C67.3101 19.0652 67.9548 19.71 68.7501 19.71Z" fill="#E7A156"/>
<path d="M72.1199 19.71C72.9152 19.71 73.5599 19.0652 73.5599 18.27C73.5599 17.4747 72.9152 16.83 72.1199 16.83C71.3246 16.83 70.6799 17.4747 70.6799 18.27C70.6799 19.0652 71.3246 19.71 72.1199 19.71Z" fill="#E7A156"/>
<path d="M75.48 19.71C76.2753 19.71 76.92 19.0652 76.92 18.27C76.92 17.4747 76.2753 16.83 75.48 16.83C74.6848 16.83 74.04 17.4747 74.04 18.27C74.04 19.0652 74.6848 19.71 75.48 19.71Z" fill="#E7A156"/>
<path d="M78.8499 19.71C79.6452 19.71 80.2899 19.0652 80.2899 18.27C80.2899 17.4747 79.6452 16.83 78.8499 16.83C78.0546 16.83 77.4099 17.4747 77.4099 18.27C77.4099 19.0652 78.0546 19.71 78.8499 19.71Z" fill="#E7A156"/>
<path d="M82.21 19.71C83.0053 19.71 83.65 19.0652 83.65 18.27C83.65 17.4747 83.0053 16.83 82.21 16.83C81.4147 16.83 80.77 17.4747 80.77 18.27C80.77 19.0652 81.4147 19.71 82.21 19.71Z" fill="#E3B575"/>
<path d="M85.5799 19.71C86.3752 19.71 87.0199 19.0652 87.0199 18.27C87.0199 17.4747 86.3752 16.83 85.5799 16.83C84.7846 16.83 84.1399 17.4747 84.1399 18.27C84.1399 19.0652 84.7846 19.71 85.5799 19.71Z" fill="#E7A156"/>
<path d="M88.94 19.71C89.7353 19.71 90.38 19.0652 90.38 18.27C90.38 17.4747 89.7353 16.83 88.94 16.83C88.1447 16.83 87.5 17.4747 87.5 18.27C87.5 19.0652 88.1447 19.71 88.94 19.71Z" fill="#E7A156"/>
<path d="M92.3101 19.71C93.1054 19.71 93.7501 19.0652 93.7501 18.27C93.7501 17.4747 93.1054 16.83 92.3101 16.83C91.5148 16.83 90.8701 17.4747 90.8701 18.27C90.8701 19.0652 91.5148 19.71 92.3101 19.71Z" fill="#E7A156"/>
<path d="M95.67 19.71C96.4653 19.71 97.11 19.0652 97.11 18.27C97.11 17.4747 96.4653 16.83 95.67 16.83C94.8747 16.83 94.23 17.4747 94.23 18.27C94.23 19.0652 94.8747 19.71 95.67 19.71Z" fill="#E7A156"/>
<path d="M51.92 16.34C52.7153 16.34 53.36 15.6953 53.36 14.9C53.36 14.1047 52.7153 13.46 51.92 13.46C51.1247 13.46 50.48 14.1047 50.48 14.9C50.48 15.6953 51.1247 16.34 51.92 16.34Z" fill="#DD954F"/>
<path d="M55.2901 16.34C56.0854 16.34 56.7301 15.6953 56.7301 14.9C56.7301 14.1047 56.0854 13.46 55.2901 13.46C54.4948 13.46 53.8501 14.1047 53.8501 14.9C53.8501 15.6953 54.4948 16.34 55.2901 16.34Z" fill="#DD954F"/>
<path d="M58.65 16.34C59.4453 16.34 60.09 15.6953 60.09 14.9C60.09 14.1047 59.4453 13.46 58.65 13.46C57.8547 13.46 57.21 14.1047 57.21 14.9C57.21 15.6953 57.8547 16.34 58.65 16.34Z" fill="#DD954F"/>
<path d="M62.0201 16.34C62.8154 16.34 63.4601 15.6953 63.4601 14.9C63.4601 14.1047 62.8154 13.46 62.0201 13.46C61.2248 13.46 60.5801 14.1047 60.5801 14.9C60.5801 15.6953 61.2248 16.34 62.0201 16.34Z" fill="#DD954F"/>
<path d="M65.3799 16.34C66.1752 16.34 66.8199 15.6953 66.8199 14.9C66.8199 14.1047 66.1752 13.46 65.3799 13.46C64.5846 13.46 63.9399 14.1047 63.9399 14.9C63.9399 15.6953 64.5846 16.34 65.3799 16.34Z" fill="#DD954F"/>
<path d="M68.7501 16.34C69.5454 16.34 70.1901 15.6953 70.1901 14.9C70.1901 14.1047 69.5454 13.46 68.7501 13.46C67.9548 13.46 67.3101 14.1047 67.3101 14.9C67.3101 15.6953 67.9548 16.34 68.7501 16.34Z" fill="#DD954F"/>
<path d="M72.1199 16.34C72.9152 16.34 73.5599 15.6953 73.5599 14.9C73.5599 14.1047 72.9152 13.46 72.1199 13.46C71.3246 13.46 70.6799 14.1047 70.6799 14.9C70.6799 15.6953 71.3246 16.34 72.1199 16.34Z" fill="#DD954F"/>
<path d="M78.8499 16.34C79.6452 16.34 80.2899 15.6953 80.2899 14.9C80.2899 14.1047 79.6452 13.46 78.8499 13.46C78.0546 13.46 77.4099 14.1047 77.4099 14.9C77.4099 15.6953 78.0546 16.34 78.8499 16.34Z" fill="#DD954F"/>
<path d="M82.21 16.34C83.0053 16.34 83.65 15.6953 83.65 14.9C83.65 14.1047 83.0053 13.46 82.21 13.46C81.4147 13.46 80.77 14.1047 80.77 14.9C80.77 15.6953 81.4147 16.34 82.21 16.34Z" fill="#DD954F"/>
<path d="M85.5799 16.34C86.3752 16.34 87.0199 15.6953 87.0199 14.9C87.0199 14.1047 86.3752 13.46 85.5799 13.46C84.7846 13.46 84.1399 14.1047 84.1399 14.9C84.1399 15.6953 84.7846 16.34 85.5799 16.34Z" fill="#DD954F"/>
<path d="M88.94 16.34C89.7353 16.34 90.38 15.6953 90.38 14.9C90.38 14.1047 89.7353 13.46 88.94 13.46C88.1447 13.46 87.5 14.1047 87.5 14.9C87.5 15.6953 88.1447 16.34 88.94 16.34Z" fill="#DD954F"/>
<path d="M92.3101 16.34C93.1054 16.34 93.7501 15.6953 93.7501 14.9C93.7501 14.1047 93.1054 13.46 92.3101 13.46C91.5148 13.46 90.8701 14.1047 90.8701 14.9C90.8701 15.6953 91.5148 16.34 92.3101 16.34Z" fill="#E7A156"/>
</g>
<defs>
<clipPath id="clip0_221_27709">
<rect width="100.48" height="50" fill="white"/>
</clipPath>
</defs>
</svg>
