<svg xmlns="http://www.w3.org/2000/svg" viewBox="0 0 100.48 50"><defs><style>.cls-1{fill:#b5742e;}.cls-2{fill:#e7a156;}.cls-3{fill:none;}.cls-4{fill:#cd944f;}.cls-5{fill:#e3b575;}.cls-6{fill:#c5843d;}.cls-7{fill:#dd954f;}.cls-8{fill:#d8a66a;}.cls-9{fill:#cc8640;}.cls-10{fill:#a56d47;}.cls-11{fill:#a16433;}.cls-12{fill:#a8683d;}.cls-13{fill:#cc8b50;}.cls-14{fill:#e79356;}</style></defs><g id="Layer_2" data-name="Layer 2"><g id="Layer_1-2" data-name="Layer 1"><circle class="cls-1" cx="48.56" cy="48.56" r="1.44"/><circle class="cls-1" cx="45.19" cy="48.56" r="1.44"/><circle class="cls-1" cx="41.83" cy="48.56" r="1.44"/><circle class="cls-1" cx="38.46" cy="48.56" r="1.44"/><circle class="cls-1" cx="35.1" cy="48.56" r="1.44"/><circle class="cls-1" cx="31.73" cy="48.56" r="1.44"/><circle class="cls-1" cx="28.37" cy="48.56" r="1.44"/><circle class="cls-1" cx="25" cy="48.56" r="1.44"/><circle class="cls-1" cx="21.63" cy="48.56" r="1.44"/><circle class="cls-1" cx="18.27" cy="48.56" r="1.44"/><circle class="cls-1" cx="14.9" cy="48.56" r="1.44"/><circle class="cls-2" cx="11.54" cy="48.56" r="1.44"/><circle class="cls-2" cx="8.17" cy="48.56" r="1.44"/><circle class="cls-3" cx="4.81" cy="48.56" r="1.44"/><circle class="cls-3" cx="1.44" cy="48.56" r="1.44"/><circle class="cls-1" cx="48.56" cy="45.19" r="1.44"/><circle class="cls-1" cx="45.19" cy="45.19" r="1.44"/><circle class="cls-1" cx="41.83" cy="45.19" r="1.44"/><circle class="cls-1" cx="38.46" cy="45.19" r="1.44"/><circle class="cls-1" cx="35.1" cy="45.19" r="1.44"/><circle class="cls-1" cx="31.73" cy="45.19" r="1.44"/><circle class="cls-1" cx="28.37" cy="45.19" r="1.44"/><circle class="cls-1" cx="25" cy="45.19" r="1.44"/><circle class="cls-1" cx="21.63" cy="45.19" r="1.44"/><circle class="cls-1" cx="18.27" cy="45.19" r="1.44"/><circle class="cls-1" cx="14.9" cy="45.19" r="1.44"/><circle class="cls-1" cx="11.54" cy="45.19" r="1.44"/><circle class="cls-1" cx="8.17" cy="45.19" r="1.44"/><circle class="cls-2" cx="4.81" cy="45.19" r="1.44"/><circle class="cls-3" cx="1.44" cy="45.19" r="1.44"/><circle class="cls-4" cx="48.56" cy="41.83" r="1.44"/><circle class="cls-4" cx="45.19" cy="41.83" r="1.44"/><circle class="cls-4" cx="41.83" cy="41.83" r="1.44"/><circle class="cls-4" cx="38.46" cy="41.83" r="1.44"/><circle class="cls-4" cx="35.1" cy="41.83" r="1.44"/><circle class="cls-4" cx="31.73" cy="41.83" r="1.44"/><circle class="cls-4" cx="28.37" cy="41.83" r="1.44"/><circle class="cls-5" cx="25" cy="41.83" r="1.44"/><circle class="cls-5" cx="21.63" cy="41.83" r="1.44"/><circle class="cls-5" cx="18.27" cy="41.83" r="1.44"/><circle class="cls-5" cx="14.9" cy="41.83" r="1.44"/><circle class="cls-5" cx="11.54" cy="41.83" r="1.44"/><circle class="cls-2" cx="8.17" cy="41.83" r="1.44"/><circle class="cls-2" cx="4.81" cy="41.83" r="1.44"/><circle class="cls-2" cx="1.44" cy="41.83" r="1.44"/><circle class="cls-6" cx="48.56" cy="38.46" r="1.44"/><circle class="cls-6" cx="45.19" cy="38.46" r="1.44"/><circle class="cls-6" cx="41.83" cy="38.46" r="1.44"/><circle class="cls-6" cx="38.46" cy="38.46" r="1.44"/><circle class="cls-6" cx="35.1" cy="38.46" r="1.44"/><circle class="cls-6" cx="31.73" cy="38.46" r="1.44"/><circle class="cls-6" cx="28.37" cy="38.46" r="1.44"/><circle class="cls-6" cx="25" cy="38.46" r="1.44"/><circle class="cls-6" cx="21.63" cy="38.46" r="1.44"/><circle class="cls-6" cx="18.27" cy="38.46" r="1.44"/><circle class="cls-6" cx="14.9" cy="38.46" r="1.44"/><circle class="cls-6" cx="11.54" cy="38.46" r="1.44"/><circle class="cls-2" cx="8.17" cy="38.46" r="1.44"/><circle class="cls-2" cx="4.81" cy="38.46" r="1.44"/><circle class="cls-2" cx="1.44" cy="38.46" r="1.44"/><circle class="cls-2" cx="48.56" cy="35.1" r="1.44"/><circle class="cls-2" cx="45.19" cy="35.1" r="1.44"/><circle class="cls-2" cx="41.83" cy="35.1" r="1.44"/><circle class="cls-2" cx="38.46" cy="35.1" r="1.44"/><circle class="cls-2" cx="35.1" cy="35.1" r="1.44"/><circle class="cls-2" cx="31.73" cy="35.1" r="1.44"/><circle class="cls-2" cx="28.37" cy="35.1" r="1.44"/><circle class="cls-2" cx="25" cy="35.1" r="1.44"/><circle class="cls-2" cx="21.63" cy="35.1" r="1.44"/><circle class="cls-2" cx="18.27" cy="35.1" r="1.44"/><circle class="cls-2" cx="14.9" cy="35.1" r="1.44"/><circle class="cls-2" cx="11.54" cy="35.1" r="1.44"/><circle class="cls-5" cx="8.17" cy="35.1" r="1.44"/><circle class="cls-5" cx="4.81" cy="35.1" r="1.44"/><circle class="cls-5" cx="1.44" cy="35.1" r="1.44"/><circle class="cls-2" cx="48.56" cy="31.73" r="1.44"/><circle class="cls-2" cx="45.19" cy="31.73" r="1.44"/><circle class="cls-2" cx="41.83" cy="31.73" r="1.44"/><circle class="cls-2" cx="38.46" cy="31.73" r="1.44"/><circle class="cls-2" cx="35.1" cy="31.73" r="1.44"/><circle class="cls-2" cx="31.73" cy="31.73" r="1.44"/><circle class="cls-2" cx="28.37" cy="31.73" r="1.44"/><circle class="cls-2" cx="25" cy="31.73" r="1.44"/><circle class="cls-2" cx="21.63" cy="31.73" r="1.44"/><circle class="cls-2" cx="18.27" cy="31.73" r="1.44"/><circle class="cls-2" cx="14.9" cy="31.73" r="1.44"/><circle class="cls-2" cx="11.54" cy="31.73" r="1.44"/><circle class="cls-5" cx="8.17" cy="31.73" r="1.44"/><circle class="cls-5" cx="4.81" cy="31.73" r="1.44"/><circle class="cls-5" cx="1.44" cy="31.73" r="1.44"/><circle class="cls-2" cx="48.56" cy="28.37" r="1.44"/><circle class="cls-2" cx="45.19" cy="28.37" r="1.44"/><circle class="cls-2" cx="41.83" cy="28.37" r="1.44"/><circle class="cls-2" cx="38.46" cy="28.37" r="1.44"/><circle class="cls-2" cx="35.1" cy="28.37" r="1.44"/><circle class="cls-2" cx="31.73" cy="28.37" r="1.44"/><circle class="cls-2" cx="28.37" cy="28.37" r="1.44"/><circle class="cls-2" cx="25" cy="28.37" r="1.44"/><circle class="cls-2" cx="21.63" cy="28.37" r="1.44"/><circle class="cls-2" cx="18.27" cy="28.37" r="1.44"/><circle class="cls-2" cx="14.9" cy="28.37" r="1.44"/><circle class="cls-2" cx="11.54" cy="28.37" r="1.44"/><circle class="cls-5" cx="8.17" cy="28.37" r="1.44"/><circle class="cls-5" cx="4.81" cy="28.37" r="1.44"/><circle class="cls-5" cx="1.44" cy="28.37" r="1.44"/><circle class="cls-2" cx="48.56" cy="25" r="1.44"/><circle class="cls-2" cx="45.19" cy="25" r="1.44"/><circle class="cls-2" cx="41.83" cy="25" r="1.44"/><circle class="cls-2" cx="38.46" cy="25" r="1.44"/><circle class="cls-2" cx="35.1" cy="25" r="1.44"/><circle class="cls-2" cx="31.73" cy="25" r="1.44"/><circle class="cls-5" cx="28.37" cy="25" r="1.44"/><circle class="cls-2" cx="25" cy="25" r="1.44"/><circle class="cls-2" cx="21.63" cy="25" r="1.44"/><circle class="cls-2" cx="18.27" cy="25" r="1.44"/><circle class="cls-2" cx="14.9" cy="25" r="1.44"/><circle class="cls-2" cx="11.54" cy="25" r="1.44"/><circle class="cls-5" cx="8.17" cy="25" r="1.44"/><circle class="cls-5" cx="4.81" cy="25" r="1.44"/><circle class="cls-5" cx="1.44" cy="25" r="1.44"/><circle class="cls-7" cx="48.56" cy="21.63" r="1.44"/><circle class="cls-7" cx="45.19" cy="21.63" r="1.44"/><circle class="cls-2" cx="41.83" cy="21.63" r="1.44"/><circle class="cls-2" cx="38.46" cy="21.63" r="1.44"/><circle class="cls-2" cx="35.1" cy="21.63" r="1.44"/><circle class="cls-8" cx="31.73" cy="21.63" r="1.44"/><circle class="cls-5" cx="28.37" cy="21.63" r="1.44"/><circle class="cls-2" cx="25" cy="21.63" r="1.44"/><circle class="cls-2" cx="21.63" cy="21.63" r="1.44"/><circle class="cls-2" cx="18.27" cy="21.63" r="1.44"/><circle class="cls-2" cx="14.9" cy="21.63" r="1.44"/><circle class="cls-2" cx="11.54" cy="21.63" r="1.44"/><circle class="cls-2" cx="8.17" cy="21.63" r="1.44"/><circle class="cls-2" cx="4.81" cy="21.63" r="1.44"/><circle class="cls-2" cx="1.44" cy="21.63" r="1.44"/><circle class="cls-7" cx="48.56" cy="18.27" r="1.44"/><circle class="cls-7" cx="45.19" cy="18.27" r="1.44"/><circle class="cls-2" cx="41.83" cy="18.27" r="1.44"/><circle class="cls-2" cx="38.46" cy="18.27" r="1.44"/><circle class="cls-2" cx="35.1" cy="18.27" r="1.44"/><circle class="cls-5" cx="31.73" cy="18.27" r="1.44"/><circle class="cls-2" cx="28.37" cy="18.27" r="1.44"/><circle class="cls-2" cx="25" cy="18.27" r="1.44"/><circle class="cls-2" cx="21.63" cy="18.27" r="1.44"/><circle class="cls-2" cx="18.27" cy="18.27" r="1.44"/><circle class="cls-2" cx="14.9" cy="18.27" r="1.44"/><circle class="cls-2" cx="11.54" cy="18.27" r="1.44"/><circle class="cls-2" cx="8.17" cy="18.27" r="1.44"/><circle class="cls-2" cx="4.81" cy="18.27" r="1.44"/><circle class="cls-3" cx="1.44" cy="18.27" r="1.44"/><circle class="cls-3" cx="48.56" cy="14.9" r="1.44"/><circle class="cls-7" cx="45.19" cy="14.9" r="1.44"/><circle class="cls-7" cx="41.83" cy="14.9" r="1.44"/><circle class="cls-7" cx="38.46" cy="14.9" r="1.44"/><circle class="cls-7" cx="35.1" cy="14.9" r="1.44"/><circle class="cls-7" cx="31.73" cy="14.9" r="1.44"/><circle class="cls-7" cx="28.37" cy="14.9" r="1.44"/><circle class="cls-3" cx="25" cy="14.9" r="1.44"/><circle class="cls-7" cx="21.63" cy="14.9" r="1.44"/><circle class="cls-7" cx="18.27" cy="14.9" r="1.44"/><circle class="cls-7" cx="14.9" cy="14.9" r="1.44"/><circle class="cls-7" cx="11.54" cy="14.9" r="1.44"/><circle class="cls-2" cx="8.17" cy="14.9" r="1.44"/><circle class="cls-3" cx="4.81" cy="14.9" r="1.44"/><circle class="cls-3" cx="1.44" cy="14.9" r="1.44"/><circle class="cls-3" cx="48.56" cy="11.54" r="1.44"/><circle class="cls-3" cx="45.19" cy="11.54" r="1.44"/><circle class="cls-3" cx="41.83" cy="11.54" r="1.44"/><circle class="cls-3" cx="38.46" cy="11.54" r="1.44"/><circle class="cls-3" cx="35.1" cy="11.54" r="1.44"/><circle class="cls-3" cx="31.73" cy="11.54" r="1.44"/><circle class="cls-3" cx="28.37" cy="11.54" r="1.44"/><circle class="cls-3" cx="25" cy="11.54" r="1.44"/><circle class="cls-3" cx="21.63" cy="11.54" r="1.44"/><circle class="cls-3" cx="18.27" cy="11.54" r="1.44"/><circle class="cls-3" cx="14.9" cy="11.54" r="1.44"/><circle class="cls-3" cx="11.54" cy="11.54" r="1.44"/><circle class="cls-3" cx="8.17" cy="11.54" r="1.44"/><circle class="cls-3" cx="4.81" cy="11.54" r="1.44"/><circle class="cls-3" cx="1.44" cy="11.54" r="1.44"/><circle class="cls-3" cx="48.56" cy="8.17" r="1.44"/><circle class="cls-3" cx="45.19" cy="8.17" r="1.44"/><circle class="cls-3" cx="41.83" cy="8.17" r="1.44"/><circle class="cls-3" cx="38.46" cy="8.17" r="1.44"/><circle class="cls-3" cx="35.1" cy="8.17" r="1.44"/><circle class="cls-3" cx="31.73" cy="8.17" r="1.44"/><circle class="cls-3" cx="28.37" cy="8.17" r="1.44"/><circle class="cls-3" cx="25" cy="8.17" r="1.44"/><circle class="cls-3" cx="21.63" cy="8.17" r="1.44"/><circle class="cls-3" cx="18.27" cy="8.17" r="1.44"/><circle class="cls-3" cx="14.9" cy="8.17" r="1.44"/><circle class="cls-3" cx="11.54" cy="8.17" r="1.44"/><circle class="cls-3" cx="8.17" cy="8.17" r="1.44"/><circle class="cls-3" cx="4.81" cy="8.17" r="1.44"/><circle class="cls-3" cx="1.44" cy="8.17" r="1.44"/><circle class="cls-3" cx="48.56" cy="4.81" r="1.44"/><circle class="cls-3" cx="45.19" cy="4.81" r="1.44"/><circle class="cls-3" cx="41.83" cy="4.81" r="1.44"/><circle class="cls-3" cx="38.46" cy="4.81" r="1.44"/><circle class="cls-3" cx="35.1" cy="4.81" r="1.44"/><circle class="cls-3" cx="31.73" cy="4.81" r="1.44"/><circle class="cls-3" cx="28.37" cy="4.81" r="1.44"/><circle class="cls-3" cx="25" cy="4.81" r="1.44"/><circle class="cls-3" cx="21.63" cy="4.81" r="1.44"/><circle class="cls-3" cx="18.27" cy="4.81" r="1.44"/><circle class="cls-3" cx="14.9" cy="4.81" r="1.44"/><circle class="cls-3" cx="11.54" cy="4.81" r="1.44"/><circle class="cls-3" cx="8.17" cy="4.81" r="1.44"/><circle class="cls-3" cx="4.81" cy="4.81" r="1.44"/><circle class="cls-3" cx="1.44" cy="4.81" r="1.44"/><circle class="cls-3" cx="48.56" cy="1.44" r="1.44"/><circle class="cls-3" cx="45.19" cy="1.44" r="1.44"/><circle class="cls-3" cx="41.83" cy="1.44" r="1.44"/><circle class="cls-3" cx="38.46" cy="1.44" r="1.44"/><circle class="cls-3" cx="35.1" cy="1.44" r="1.44"/><circle class="cls-3" cx="31.73" cy="1.44" r="1.44"/><circle class="cls-3" cx="28.37" cy="1.44" r="1.44"/><circle class="cls-3" cx="25" cy="1.44" r="1.44"/><circle class="cls-3" cx="21.63" cy="1.44" r="1.44"/><circle class="cls-3" cx="18.27" cy="1.44" r="1.44"/><circle class="cls-3" cx="14.9" cy="1.44" r="1.44"/><circle class="cls-3" cx="11.54" cy="1.44" r="1.44"/><circle class="cls-3" cx="8.17" cy="1.44" r="1.44"/><circle class="cls-3" cx="4.81" cy="1.44" r="1.44"/><circle class="cls-3" cx="1.44" cy="1.44" r="1.44"/><circle class="cls-1" cx="51.92" cy="48.56" r="1.44"/><circle class="cls-1" cx="55.29" cy="48.56" r="1.44"/><circle class="cls-1" cx="58.65" cy="48.56" r="1.44"/><circle class="cls-1" cx="62.02" cy="48.56" r="1.44"/><circle class="cls-1" cx="65.38" cy="48.56" r="1.44"/><circle class="cls-1" cx="68.75" cy="48.56" r="1.44"/><circle class="cls-1" cx="72.12" cy="48.56" r="1.44"/><circle class="cls-1" cx="75.48" cy="48.56" r="1.44"/><circle class="cls-1" cx="78.85" cy="48.56" r="1.44"/><circle class="cls-1" cx="82.21" cy="48.56" r="1.44"/><circle class="cls-1" cx="85.58" cy="48.56" r="1.44"/><circle class="cls-9" cx="88.94" cy="48.56" r="1.44"/><circle class="cls-9" cx="92.31" cy="48.56" r="1.44"/><circle class="cls-3" cx="95.67" cy="48.56" r="1.44"/><circle class="cls-3" cx="99.04" cy="48.56" r="1.44"/><circle class="cls-1" cx="51.92" cy="45.19" r="1.44"/><circle class="cls-1" cx="55.29" cy="45.19" r="1.44"/><circle class="cls-1" cx="58.65" cy="45.19" r="1.44"/><circle class="cls-1" cx="62.02" cy="45.19" r="1.44"/><circle class="cls-1" cx="65.38" cy="45.19" r="1.44"/><circle class="cls-1" cx="68.75" cy="45.19" r="1.44"/><circle class="cls-1" cx="72.12" cy="45.19" r="1.44"/><circle class="cls-1" cx="75.48" cy="45.19" r="1.44"/><circle class="cls-1" cx="78.85" cy="45.19" r="1.44"/><circle class="cls-1" cx="82.21" cy="45.19" r="1.44"/><circle class="cls-1" cx="85.58" cy="45.19" r="1.44"/><circle class="cls-1" cx="88.94" cy="45.19" r="1.44"/><circle class="cls-9" cx="92.31" cy="45.19" r="1.44"/><circle class="cls-9" cx="95.67" cy="45.19" r="1.44"/><circle class="cls-3" cx="99.04" cy="45.19" r="1.44"/><circle class="cls-4" cx="51.92" cy="41.83" r="1.44"/><circle class="cls-4" cx="55.29" cy="41.83" r="1.44"/><circle class="cls-4" cx="58.65" cy="41.83" r="1.44"/><circle class="cls-4" cx="62.02" cy="41.83" r="1.44"/><circle class="cls-4" cx="65.38" cy="41.83" r="1.44"/><circle class="cls-10" cx="68.75" cy="41.83" r="1.44"/><circle class="cls-10" cx="72.12" cy="41.83" r="1.44"/><circle class="cls-10" cx="75.48" cy="41.83" r="1.44"/><circle class="cls-10" cx="78.85" cy="41.83" r="1.44"/><circle class="cls-11" cx="82.21" cy="41.83" r="1.44"/><circle class="cls-11" cx="85.58" cy="41.83" r="1.44"/><circle class="cls-12" cx="88.94" cy="41.83" r="1.44"/><circle class="cls-12" cx="92.31" cy="41.83" r="1.44"/><circle class="cls-9" cx="95.67" cy="41.83" r="1.44"/><circle class="cls-2" cx="99.04" cy="41.83" r="1.44"/><circle class="cls-6" cx="51.92" cy="38.46" r="1.44"/><circle class="cls-6" cx="55.29" cy="38.46" r="1.44"/><circle class="cls-6" cx="58.65" cy="38.46" r="1.44"/><circle class="cls-6" cx="62.02" cy="38.46" r="1.44"/><circle class="cls-6" cx="65.38" cy="38.46" r="1.44"/><circle class="cls-6" cx="68.75" cy="38.46" r="1.44"/><circle class="cls-6" cx="72.12" cy="38.46" r="1.44"/><circle class="cls-6" cx="75.48" cy="38.46" r="1.44"/><circle class="cls-6" cx="78.85" cy="38.46" r="1.44"/><circle class="cls-6" cx="82.21" cy="38.46" r="1.44"/><circle class="cls-6" cx="85.58" cy="38.46" r="1.44"/><circle class="cls-6" cx="88.94" cy="38.46" r="1.44"/><circle class="cls-11" cx="92.31" cy="38.46" r="1.44"/><circle class="cls-11" cx="95.67" cy="38.46" r="1.44"/><circle class="cls-2" cx="99.04" cy="38.46" r="1.44"/><circle class="cls-2" cx="51.92" cy="35.1" r="1.44"/><circle class="cls-2" cx="55.29" cy="35.1" r="1.44"/><circle class="cls-2" cx="58.65" cy="35.1" r="1.44"/><circle class="cls-2" cx="62.02" cy="35.1" r="1.44"/><circle class="cls-2" cx="65.38" cy="35.1" r="1.44"/><circle class="cls-2" cx="68.75" cy="35.1" r="1.44"/><circle class="cls-2" cx="72.12" cy="35.1" r="1.44"/><circle class="cls-2" cx="75.48" cy="35.1" r="1.44"/><circle class="cls-2" cx="78.85" cy="35.1" r="1.44"/><circle class="cls-13" cx="82.21" cy="35.1" r="1.44"/><circle class="cls-13" cx="85.58" cy="35.1" r="1.44"/><circle class="cls-13" cx="88.94" cy="35.1" r="1.44"/><circle class="cls-13" cx="92.31" cy="35.1" r="1.44"/><circle class="cls-13" cx="95.67" cy="35.1" r="1.44"/><circle class="cls-2" cx="99.04" cy="35.1" r="1.44"/><circle class="cls-2" cx="51.92" cy="31.73" r="1.44"/><circle class="cls-2" cx="55.29" cy="31.73" r="1.44"/><circle class="cls-2" cx="58.65" cy="31.73" r="1.44"/><circle class="cls-2" cx="62.02" cy="31.73" r="1.44"/><circle class="cls-2" cx="65.38" cy="31.73" r="1.44"/><circle class="cls-2" cx="68.75" cy="31.73" r="1.44"/><circle class="cls-2" cx="72.12" cy="31.73" r="1.44"/><circle class="cls-2" cx="75.48" cy="31.73" r="1.44"/><circle class="cls-2" cx="78.85" cy="31.73" r="1.44"/><circle class="cls-2" cx="82.21" cy="31.73" r="1.44"/><circle class="cls-2" cx="85.58" cy="31.73" r="1.44"/><circle class="cls-2" cx="88.94" cy="31.73" r="1.44"/><circle class="cls-14" cx="92.31" cy="31.73" r="1.44"/><circle class="cls-14" cx="95.67" cy="31.73" r="1.44"/><circle class="cls-2" cx="99.04" cy="31.73" r="1.44"/><circle class="cls-2" cx="51.92" cy="28.37" r="1.44"/><circle class="cls-2" cx="55.29" cy="28.37" r="1.44"/><circle class="cls-2" cx="58.65" cy="28.37" r="1.44"/><circle class="cls-2" cx="62.02" cy="28.37" r="1.44"/><circle class="cls-2" cx="65.38" cy="28.37" r="1.44"/><circle class="cls-2" cx="68.75" cy="28.37" r="1.44"/><circle class="cls-2" cx="72.12" cy="28.37" r="1.44"/><circle class="cls-2" cx="75.48" cy="28.37" r="1.44"/><circle class="cls-2" cx="78.85" cy="28.37" r="1.44"/><circle class="cls-2" cx="82.21" cy="28.37" r="1.44"/><circle class="cls-2" cx="85.58" cy="28.37" r="1.44"/><circle class="cls-2" cx="88.94" cy="28.37" r="1.44"/><circle class="cls-14" cx="92.31" cy="28.37" r="1.44"/><circle class="cls-14" cx="95.67" cy="28.37" r="1.44"/><circle class="cls-14" cx="99.04" cy="28.37" r="1.44"/><circle class="cls-5" cx="51.92" cy="25" r="1.44"/><circle class="cls-2" cx="55.29" cy="25" r="1.44"/><circle class="cls-2" cx="58.65" cy="25" r="1.44"/><circle class="cls-2" cx="62.02" cy="25" r="1.44"/><circle class="cls-2" cx="65.38" cy="25" r="1.44"/><circle class="cls-2" cx="68.75" cy="25" r="1.44"/><circle class="cls-2" cx="72.12" cy="25" r="1.44"/><circle class="cls-2" cx="75.48" cy="25" r="1.44"/><circle class="cls-5" cx="78.85" cy="25" r="1.44"/><circle class="cls-2" cx="82.21" cy="25" r="1.44"/><circle class="cls-2" cx="85.58" cy="25" r="1.44"/><circle class="cls-2" cx="88.94" cy="25" r="1.44"/><circle class="cls-14" cx="92.31" cy="25" r="1.44"/><circle class="cls-14" cx="95.67" cy="25" r="1.44"/><circle class="cls-2" cx="99.04" cy="25" r="1.44"/><circle class="cls-5" cx="51.92" cy="21.63" r="1.44"/><circle class="cls-8" cx="55.29" cy="21.63" r="1.44"/><circle class="cls-2" cx="58.65" cy="21.63" r="1.44"/><circle class="cls-2" cx="62.02" cy="21.63" r="1.44"/><circle class="cls-2" cx="65.38" cy="21.63" r="1.44"/><circle class="cls-2" cx="68.75" cy="21.63" r="1.44"/><circle class="cls-2" cx="72.12" cy="21.63" r="1.44"/><circle class="cls-2" cx="75.48" cy="21.63" r="1.44"/><circle class="cls-5" cx="78.85" cy="21.63" r="1.44"/><circle class="cls-8" cx="82.21" cy="21.63" r="1.44"/><circle class="cls-2" cx="85.58" cy="21.63" r="1.44"/><circle class="cls-2" cx="88.94" cy="21.63" r="1.44"/><circle class="cls-2" cx="92.31" cy="21.63" r="1.44"/><circle class="cls-2" cx="95.67" cy="21.63" r="1.44"/><circle class="cls-2" cx="99.04" cy="21.63" r="1.44"/><circle class="cls-7" cx="51.92" cy="18.27" r="1.44"/><circle class="cls-5" cx="55.29" cy="18.27" r="1.44"/><circle class="cls-2" cx="58.65" cy="18.27" r="1.44"/><circle class="cls-2" cx="62.02" cy="18.27" r="1.44"/><circle class="cls-2" cx="65.38" cy="18.27" r="1.44"/><circle class="cls-2" cx="68.75" cy="18.27" r="1.44"/><circle class="cls-2" cx="72.12" cy="18.27" r="1.44"/><circle class="cls-2" cx="75.48" cy="18.27" r="1.44"/><circle class="cls-2" cx="78.85" cy="18.27" r="1.44"/><circle class="cls-5" cx="82.21" cy="18.27" r="1.44"/><circle class="cls-2" cx="85.58" cy="18.27" r="1.44"/><circle class="cls-2" cx="88.94" cy="18.27" r="1.44"/><circle class="cls-2" cx="92.31" cy="18.27" r="1.44"/><circle class="cls-2" cx="95.67" cy="18.27" r="1.44"/><circle class="cls-3" cx="99.04" cy="18.27" r="1.44"/><circle class="cls-7" cx="51.92" cy="14.9" r="1.44"/><circle class="cls-7" cx="55.29" cy="14.9" r="1.44"/><circle class="cls-7" cx="58.65" cy="14.9" r="1.44"/><circle class="cls-7" cx="62.02" cy="14.9" r="1.44"/><circle class="cls-7" cx="65.38" cy="14.9" r="1.44"/><circle class="cls-7" cx="68.75" cy="14.9" r="1.44"/><circle class="cls-7" cx="72.12" cy="14.9" r="1.44"/><circle class="cls-3" cx="75.48" cy="14.9" r="1.44"/><circle class="cls-7" cx="78.85" cy="14.9" r="1.44"/><circle class="cls-7" cx="82.21" cy="14.9" r="1.44"/><circle class="cls-7" cx="85.58" cy="14.9" r="1.44"/><circle class="cls-7" cx="88.94" cy="14.9" r="1.44"/><circle class="cls-2" cx="92.31" cy="14.9" r="1.44"/><circle class="cls-3" cx="95.67" cy="14.9" r="1.44"/><circle class="cls-3" cx="99.04" cy="14.9" r="1.44"/><circle class="cls-3" cx="51.92" cy="11.54" r="1.44"/><circle class="cls-3" cx="55.29" cy="11.54" r="1.44"/><circle class="cls-3" cx="58.65" cy="11.54" r="1.44"/><circle class="cls-3" cx="62.02" cy="11.54" r="1.44"/><circle class="cls-3" cx="65.38" cy="11.54" r="1.44"/><circle class="cls-3" cx="68.75" cy="11.54" r="1.44"/><circle class="cls-3" cx="72.12" cy="11.54" r="1.44"/><circle class="cls-3" cx="75.48" cy="11.54" r="1.44"/><circle class="cls-3" cx="78.85" cy="11.54" r="1.44"/><circle class="cls-3" cx="82.21" cy="11.54" r="1.44"/><circle class="cls-3" cx="85.58" cy="11.54" r="1.44"/><circle class="cls-3" cx="88.94" cy="11.54" r="1.44"/><circle class="cls-3" cx="92.31" cy="11.54" r="1.44"/><circle class="cls-3" cx="95.67" cy="11.54" r="1.44"/><circle class="cls-3" cx="99.04" cy="11.54" r="1.44"/><circle class="cls-3" cx="51.92" cy="8.17" r="1.44"/><circle class="cls-3" cx="55.29" cy="8.17" r="1.44"/><circle class="cls-3" cx="58.65" cy="8.17" r="1.44"/><circle class="cls-3" cx="62.02" cy="8.17" r="1.44"/><circle class="cls-3" cx="65.38" cy="8.17" r="1.44"/><circle class="cls-3" cx="68.75" cy="8.17" r="1.44"/><circle class="cls-3" cx="72.12" cy="8.17" r="1.44"/><circle class="cls-3" cx="75.48" cy="8.17" r="1.44"/><circle class="cls-3" cx="78.85" cy="8.17" r="1.44"/><circle class="cls-3" cx="82.21" cy="8.17" r="1.44"/><circle class="cls-3" cx="85.58" cy="8.17" r="1.44"/><circle class="cls-3" cx="88.94" cy="8.17" r="1.44"/><circle class="cls-3" cx="92.31" cy="8.17" r="1.44"/><circle class="cls-3" cx="95.67" cy="8.17" r="1.44"/><circle class="cls-3" cx="99.04" cy="8.17" r="1.44"/><circle class="cls-3" cx="51.92" cy="4.81" r="1.44"/><circle class="cls-3" cx="55.29" cy="4.81" r="1.44"/><circle class="cls-3" cx="58.65" cy="4.81" r="1.44"/><circle class="cls-3" cx="62.02" cy="4.81" r="1.44"/><circle class="cls-3" cx="65.38" cy="4.81" r="1.44"/><circle class="cls-3" cx="68.75" cy="4.81" r="1.44"/><circle class="cls-3" cx="72.12" cy="4.81" r="1.44"/><circle class="cls-3" cx="75.48" cy="4.81" r="1.44"/><circle class="cls-3" cx="78.85" cy="4.81" r="1.44"/><circle class="cls-3" cx="82.21" cy="4.81" r="1.44"/><circle class="cls-3" cx="85.58" cy="4.81" r="1.44"/><circle class="cls-3" cx="88.94" cy="4.81" r="1.44"/><circle class="cls-3" cx="92.31" cy="4.81" r="1.44"/><circle class="cls-3" cx="95.67" cy="4.81" r="1.44"/><circle class="cls-3" cx="99.04" cy="4.81" r="1.44"/><circle class="cls-3" cx="51.92" cy="1.44" r="1.44"/><circle class="cls-3" cx="55.29" cy="1.44" r="1.44"/><circle class="cls-3" cx="58.65" cy="1.44" r="1.44"/><circle class="cls-3" cx="62.02" cy="1.44" r="1.44"/><circle class="cls-3" cx="65.38" cy="1.44" r="1.44"/><circle class="cls-3" cx="68.75" cy="1.44" r="1.44"/><circle class="cls-3" cx="72.12" cy="1.44" r="1.44"/><circle class="cls-3" cx="75.48" cy="1.44" r="1.44"/><circle class="cls-3" cx="78.85" cy="1.44" r="1.44"/><circle class="cls-3" cx="82.21" cy="1.44" r="1.44"/><circle class="cls-3" cx="85.58" cy="1.44" r="1.44"/><circle class="cls-3" cx="88.94" cy="1.44" r="1.44"/><circle class="cls-3" cx="92.31" cy="1.44" r="1.44"/><circle class="cls-3" cx="95.67" cy="1.44" r="1.44"/><circle class="cls-3" cx="99.04" cy="1.44" r="1.44"/></g></g></svg>