<svg width="50" height="50" viewBox="0 0 50 50" fill="none" xmlns="http://www.w3.org/2000/svg">
<g clip-path="url(#clip0_221_36147)">
<path d="M35.0999 46.63C35.8952 46.63 36.5399 45.9853 36.5399 45.19C36.5399 44.3947 35.8952 43.75 35.0999 43.75C34.3046 43.75 33.6599 44.3947 33.6599 45.19C33.6599 45.9853 34.3046 46.63 35.0999 46.63Z" fill="#E4B652"/>
<path d="M31.73 46.63C32.5253 46.63 33.17 45.9853 33.17 45.19C33.17 44.3947 32.5253 43.75 31.73 43.75C30.9347 43.75 30.29 44.3947 30.29 45.19C30.29 45.9853 30.9347 46.63 31.73 46.63Z" fill="#E4B652"/>
<path d="M28.3699 46.63C29.1652 46.63 29.8099 45.9853 29.8099 45.19C29.8099 44.3947 29.1652 43.75 28.3699 43.75C27.5746 43.75 26.9299 44.3947 26.9299 45.19C26.9299 45.9853 27.5746 46.63 28.3699 46.63Z" fill="#F7CE5B"/>
<path d="M25.0001 46.63C25.7953 46.63 26.4401 45.9853 26.4401 45.19C26.4401 44.3947 25.7953 43.75 25.0001 43.75C24.2048 43.75 23.5601 44.3947 23.5601 45.19C23.5601 45.9853 24.2048 46.63 25.0001 46.63Z" fill="#F7CE5B"/>
<path d="M21.6299 46.63C22.4252 46.63 23.0699 45.9853 23.0699 45.19C23.0699 44.3947 22.4252 43.75 21.6299 43.75C20.8346 43.75 20.1899 44.3947 20.1899 45.19C20.1899 45.9853 20.8346 46.63 21.6299 46.63Z" fill="#F7CE5B"/>
<path d="M18.2701 46.63C19.0654 46.63 19.7101 45.9853 19.7101 45.19C19.7101 44.3947 19.0654 43.75 18.2701 43.75C17.4748 43.75 16.8301 44.3947 16.8301 45.19C16.8301 45.9853 17.4748 46.63 18.2701 46.63Z" fill="#F7CE5B"/>
<path d="M14.9 46.63C15.6953 46.63 16.34 45.9853 16.34 45.19C16.34 44.3947 15.6953 43.75 14.9 43.75C14.1047 43.75 13.46 44.3947 13.46 45.19C13.46 45.9853 14.1047 46.63 14.9 46.63Z" fill="#F7CE5B"/>
<path d="M41.8299 43.2699C42.6252 43.2699 43.2699 42.6252 43.2699 41.8299C43.2699 41.0346 42.6252 40.3899 41.8299 40.3899C41.0346 40.3899 40.3899 41.0346 40.3899 41.8299C40.3899 42.6252 41.0346 43.2699 41.8299 43.2699Z" fill="#D1A648"/>
<path d="M38.46 43.2699C39.2553 43.2699 39.9 42.6252 39.9 41.8299C39.9 41.0346 39.2553 40.3899 38.46 40.3899C37.6647 40.3899 37.02 41.0346 37.02 41.8299C37.02 42.6252 37.6647 43.2699 38.46 43.2699Z" fill="#D1A648"/>
<path d="M35.0999 43.2699C35.8952 43.2699 36.5399 42.6252 36.5399 41.8299C36.5399 41.0346 35.8952 40.3899 35.0999 40.3899C34.3046 40.3899 33.6599 41.0346 33.6599 41.8299C33.6599 42.6252 34.3046 43.2699 35.0999 43.2699Z" fill="#E4B652"/>
<path d="M31.73 43.2699C32.5253 43.2699 33.17 42.6252 33.17 41.8299C33.17 41.0346 32.5253 40.3899 31.73 40.3899C30.9347 40.3899 30.29 41.0346 30.29 41.8299C30.29 42.6252 30.9347 43.2699 31.73 43.2699Z" fill="#EDCC72"/>
<path d="M28.3699 43.2699C29.1652 43.2699 29.8099 42.6252 29.8099 41.8299C29.8099 41.0346 29.1652 40.3899 28.3699 40.3899C27.5746 40.3899 26.9299 41.0346 26.9299 41.8299C26.9299 42.6252 27.5746 43.2699 28.3699 43.2699Z" fill="#EDCC72"/>
<path d="M25.0001 43.2699C25.7953 43.2699 26.4401 42.6252 26.4401 41.8299C26.4401 41.0346 25.7953 40.3899 25.0001 40.3899C24.2048 40.3899 23.5601 41.0346 23.5601 41.8299C23.5601 42.6252 24.2048 43.2699 25.0001 43.2699Z" fill="#F7CE5B"/>
<path d="M21.6299 43.2699C22.4252 43.2699 23.0699 42.6252 23.0699 41.8299C23.0699 41.0346 22.4252 40.3899 21.6299 40.3899C20.8346 40.3899 20.1899 41.0346 20.1899 41.8299C20.1899 42.6252 20.8346 43.2699 21.6299 43.2699Z" fill="#D1A648"/>
<path d="M18.2701 43.2699C19.0654 43.2699 19.7101 42.6252 19.7101 41.8299C19.7101 41.0346 19.0654 40.3899 18.2701 40.3899C17.4748 40.3899 16.8301 41.0346 16.8301 41.8299C16.8301 42.6252 17.4748 43.2699 18.2701 43.2699Z" fill="#F7CE5B"/>
<path d="M14.9 43.2699C15.6953 43.2699 16.34 42.6252 16.34 41.8299C16.34 41.0346 15.6953 40.3899 14.9 40.3899C14.1047 40.3899 13.46 41.0346 13.46 41.8299C13.46 42.6252 14.1047 43.2699 14.9 43.2699Z" fill="#F7CE5B"/>
<path d="M11.5401 43.2699C12.3354 43.2699 12.9801 42.6252 12.9801 41.8299C12.9801 41.0346 12.3354 40.3899 11.5401 40.3899C10.7448 40.3899 10.1001 41.0346 10.1001 41.8299C10.1001 42.6252 10.7448 43.2699 11.5401 43.2699Z" fill="#F7CE5B"/>
<path d="M8.16998 43.2699C8.96527 43.2699 9.60998 42.6252 9.60998 41.8299C9.60998 41.0346 8.96527 40.3899 8.16998 40.3899C7.37469 40.3899 6.72998 41.0346 6.72998 41.8299C6.72998 42.6252 7.37469 43.2699 8.16998 43.2699Z" fill="#F7CE5B"/>
<path d="M45.19 39.9C45.9853 39.9 46.63 39.2553 46.63 38.46C46.63 37.6647 45.9853 37.02 45.19 37.02C44.3947 37.02 43.75 37.6647 43.75 38.46C43.75 39.2553 44.3947 39.9 45.19 39.9Z" fill="#E4B652"/>
<path d="M41.8299 39.9C42.6252 39.9 43.2699 39.2553 43.2699 38.46C43.2699 37.6647 42.6252 37.02 41.8299 37.02C41.0346 37.02 40.3899 37.6647 40.3899 38.46C40.3899 39.2553 41.0346 39.9 41.8299 39.9Z" fill="#D1A648"/>
<path d="M38.46 39.9C39.2553 39.9 39.9 39.2553 39.9 38.46C39.9 37.6647 39.2553 37.02 38.46 37.02C37.6647 37.02 37.02 37.6647 37.02 38.46C37.02 39.2553 37.6647 39.9 38.46 39.9Z" fill="#E4B652"/>
<path d="M35.0999 39.9C35.8952 39.9 36.5399 39.2553 36.5399 38.46C36.5399 37.6647 35.8952 37.02 35.0999 37.02C34.3046 37.02 33.6599 37.6647 33.6599 38.46C33.6599 39.2553 34.3046 39.9 35.0999 39.9Z" fill="#EDCC72"/>
<path d="M31.73 39.9C32.5253 39.9 33.17 39.2553 33.17 38.46C33.17 37.6647 32.5253 37.02 31.73 37.02C30.9347 37.02 30.29 37.6647 30.29 38.46C30.29 39.2553 30.9347 39.9 31.73 39.9Z" fill="#D1A648"/>
<path d="M28.3699 39.9C29.1652 39.9 29.8099 39.2553 29.8099 38.46C29.8099 37.6647 29.1652 37.02 28.3699 37.02C27.5746 37.02 26.9299 37.6647 26.9299 38.46C26.9299 39.2553 27.5746 39.9 28.3699 39.9Z" fill="#D1A648"/>
<path d="M25.0001 39.9C25.7953 39.9 26.4401 39.2553 26.4401 38.46C26.4401 37.6647 25.7953 37.02 25.0001 37.02C24.2048 37.02 23.5601 37.6647 23.5601 38.46C23.5601 39.2553 24.2048 39.9 25.0001 39.9Z" fill="#D1A648"/>
<path d="M21.6299 39.9C22.4252 39.9 23.0699 39.2553 23.0699 38.46C23.0699 37.6647 22.4252 37.02 21.6299 37.02C20.8346 37.02 20.1899 37.6647 20.1899 38.46C20.1899 39.2553 20.8346 39.9 21.6299 39.9Z" fill="#D1A648"/>
<path d="M18.2701 39.9C19.0654 39.9 19.7101 39.2553 19.7101 38.46C19.7101 37.6647 19.0654 37.02 18.2701 37.02C17.4748 37.02 16.8301 37.6647 16.8301 38.46C16.8301 39.2553 17.4748 39.9 18.2701 39.9Z" fill="#D1A648"/>
<path d="M14.9 39.9C15.6953 39.9 16.34 39.2553 16.34 38.46C16.34 37.6647 15.6953 37.02 14.9 37.02C14.1047 37.02 13.46 37.6647 13.46 38.46C13.46 39.2553 14.1047 39.9 14.9 39.9Z" fill="#EBCD76"/>
<path d="M11.5401 39.9C12.3354 39.9 12.9801 39.2553 12.9801 38.46C12.9801 37.6647 12.3354 37.02 11.5401 37.02C10.7448 37.02 10.1001 37.6647 10.1001 38.46C10.1001 39.2553 10.7448 39.9 11.5401 39.9Z" fill="#F7CE5B"/>
<path d="M8.16998 39.9C8.96527 39.9 9.60998 39.2553 9.60998 38.46C9.60998 37.6647 8.96527 37.02 8.16998 37.02C7.37469 37.02 6.72998 37.6647 6.72998 38.46C6.72998 39.2553 7.37469 39.9 8.16998 39.9Z" fill="#F7CE5B"/>
<path d="M4.81012 39.9C5.60541 39.9 6.25012 39.2553 6.25012 38.46C6.25012 37.6647 5.60541 37.02 4.81012 37.02C4.01483 37.02 3.37012 37.6647 3.37012 38.46C3.37012 39.2553 4.01483 39.9 4.81012 39.9Z" fill="#F7CE5B"/>
<path d="M45.19 36.5399C45.9853 36.5399 46.63 35.8952 46.63 35.0999C46.63 34.3046 45.9853 33.6599 45.19 33.6599C44.3947 33.6599 43.75 34.3046 43.75 35.0999C43.75 35.8952 44.3947 36.5399 45.19 36.5399Z" fill="#E4B652"/>
<path d="M41.8299 36.5399C42.6252 36.5399 43.2699 35.8952 43.2699 35.0999C43.2699 34.3046 42.6252 33.6599 41.8299 33.6599C41.0346 33.6599 40.3899 34.3046 40.3899 35.0999C40.3899 35.8952 41.0346 36.5399 41.8299 36.5399Z" fill="#D1A648"/>
<path d="M38.46 36.5399C39.2553 36.5399 39.9 35.8952 39.9 35.0999C39.9 34.3046 39.2553 33.6599 38.46 33.6599C37.6647 33.6599 37.02 34.3046 37.02 35.0999C37.02 35.8952 37.6647 36.5399 38.46 36.5399Z" fill="#F7CE5B"/>
<path d="M35.0999 36.5399C35.8952 36.5399 36.5399 35.8952 36.5399 35.0999C36.5399 34.3046 35.8952 33.6599 35.0999 33.6599C34.3046 33.6599 33.6599 34.3046 33.6599 35.0999C33.6599 35.8952 34.3046 36.5399 35.0999 36.5399Z" fill="#C7973A"/>
<path d="M31.73 36.5399C32.5253 36.5399 33.17 35.8952 33.17 35.0999C33.17 34.3046 32.5253 33.6599 31.73 33.6599C30.9347 33.6599 30.29 34.3046 30.29 35.0999C30.29 35.8952 30.9347 36.5399 31.73 36.5399Z" fill="#D1A648"/>
<path d="M28.3699 36.5399C29.1652 36.5399 29.8099 35.8952 29.8099 35.0999C29.8099 34.3046 29.1652 33.6599 28.3699 33.6599C27.5746 33.6599 26.9299 34.3046 26.9299 35.0999C26.9299 35.8952 27.5746 36.5399 28.3699 36.5399Z" fill="#D1A648"/>
<path d="M25.0001 36.5399C25.7953 36.5399 26.4401 35.8952 26.4401 35.0999C26.4401 34.3046 25.7953 33.6599 25.0001 33.6599C24.2048 33.6599 23.5601 34.3046 23.5601 35.0999C23.5601 35.8952 24.2048 36.5399 25.0001 36.5399Z" fill="#D1A648"/>
<path d="M21.6299 36.5399C22.4252 36.5399 23.0699 35.8952 23.0699 35.0999C23.0699 34.3046 22.4252 33.6599 21.6299 33.6599C20.8346 33.6599 20.1899 34.3046 20.1899 35.0999C20.1899 35.8952 20.8346 36.5399 21.6299 36.5399Z" fill="#E4B652"/>
<path d="M18.2701 36.5399C19.0654 36.5399 19.7101 35.8952 19.7101 35.0999C19.7101 34.3046 19.0654 33.6599 18.2701 33.6599C17.4748 33.6599 16.8301 34.3046 16.8301 35.0999C16.8301 35.8952 17.4748 36.5399 18.2701 36.5399Z" fill="#D1A648"/>
<path d="M14.9 36.5399C15.6953 36.5399 16.34 35.8952 16.34 35.0999C16.34 34.3046 15.6953 33.6599 14.9 33.6599C14.1047 33.6599 13.46 34.3046 13.46 35.0999C13.46 35.8952 14.1047 36.5399 14.9 36.5399Z" fill="#EBCD76"/>
<path d="M11.5401 36.5399C12.3354 36.5399 12.9801 35.8952 12.9801 35.0999C12.9801 34.3046 12.3354 33.6599 11.5401 33.6599C10.7448 33.6599 10.1001 34.3046 10.1001 35.0999C10.1001 35.8952 10.7448 36.5399 11.5401 36.5399Z" fill="#E4B652"/>
<path d="M8.16998 36.5399C8.96527 36.5399 9.60998 35.8952 9.60998 35.0999C9.60998 34.3046 8.96527 33.6599 8.16998 33.6599C7.37469 33.6599 6.72998 34.3046 6.72998 35.0999C6.72998 35.8952 7.37469 36.5399 8.16998 36.5399Z" fill="#E4B652"/>
<path d="M4.81012 36.5399C5.60541 36.5399 6.25012 35.8952 6.25012 35.0999C6.25012 34.3046 5.60541 33.6599 4.81012 33.6599C4.01483 33.6599 3.37012 34.3046 3.37012 35.0999C3.37012 35.8952 4.01483 36.5399 4.81012 36.5399Z" fill="#F7CE5B"/>
<path d="M45.19 33.17C45.9853 33.17 46.63 32.5253 46.63 31.73C46.63 30.9347 45.9853 30.29 45.19 30.29C44.3947 30.29 43.75 30.9347 43.75 31.73C43.75 32.5253 44.3947 33.17 45.19 33.17Z" fill="#F7CE5B"/>
<path d="M41.8299 33.17C42.6252 33.17 43.2699 32.5253 43.2699 31.73C43.2699 30.9347 42.6252 30.29 41.8299 30.29C41.0346 30.29 40.3899 30.9347 40.3899 31.73C40.3899 32.5253 41.0346 33.17 41.8299 33.17Z" fill="#D1A648"/>
<path d="M38.46 33.17C39.2553 33.17 39.9 32.5253 39.9 31.73C39.9 30.9347 39.2553 30.29 38.46 30.29C37.6647 30.29 37.02 30.9347 37.02 31.73C37.02 32.5253 37.6647 33.17 38.46 33.17Z" fill="#D1A648"/>
<path d="M35.0999 33.17C35.8952 33.17 36.5399 32.5253 36.5399 31.73C36.5399 30.9347 35.8952 30.29 35.0999 30.29C34.3046 30.29 33.6599 30.9347 33.6599 31.73C33.6599 32.5253 34.3046 33.17 35.0999 33.17Z" fill="#F7CE5B"/>
<path d="M31.73 33.17C32.5253 33.17 33.17 32.5253 33.17 31.73C33.17 30.9347 32.5253 30.29 31.73 30.29C30.9347 30.29 30.29 30.9347 30.29 31.73C30.29 32.5253 30.9347 33.17 31.73 33.17Z" fill="#D1A648"/>
<path d="M28.3699 33.17C29.1652 33.17 29.8099 32.5253 29.8099 31.73C29.8099 30.9347 29.1652 30.29 28.3699 30.29C27.5746 30.29 26.9299 30.9347 26.9299 31.73C26.9299 32.5253 27.5746 33.17 28.3699 33.17Z" fill="#D1A648"/>
<path d="M25.0001 33.17C25.7953 33.17 26.4401 32.5253 26.4401 31.73C26.4401 30.9347 25.7953 30.29 25.0001 30.29C24.2048 30.29 23.5601 30.9347 23.5601 31.73C23.5601 32.5253 24.2048 33.17 25.0001 33.17Z" fill="#E4B652"/>
<path d="M21.6299 33.17C22.4252 33.17 23.0699 32.5253 23.0699 31.73C23.0699 30.9347 22.4252 30.29 21.6299 30.29C20.8346 30.29 20.1899 30.9347 20.1899 31.73C20.1899 32.5253 20.8346 33.17 21.6299 33.17Z" fill="#E4B652"/>
<path d="M18.2701 33.17C19.0654 33.17 19.7101 32.5253 19.7101 31.73C19.7101 30.9347 19.0654 30.29 18.2701 30.29C17.4748 30.29 16.8301 30.9347 16.8301 31.73C16.8301 32.5253 17.4748 33.17 18.2701 33.17Z" fill="#F7CE5B"/>
<path d="M14.9 33.17C15.6953 33.17 16.34 32.5253 16.34 31.73C16.34 30.9347 15.6953 30.29 14.9 30.29C14.1047 30.29 13.46 30.9347 13.46 31.73C13.46 32.5253 14.1047 33.17 14.9 33.17Z" fill="#F7CE5B"/>
<path d="M11.5401 33.17C12.3354 33.17 12.9801 32.5253 12.9801 31.73C12.9801 30.9347 12.3354 30.29 11.5401 30.29C10.7448 30.29 10.1001 30.9347 10.1001 31.73C10.1001 32.5253 10.7448 33.17 11.5401 33.17Z" fill="#F7CE5B"/>
<path d="M8.16998 33.17C8.96527 33.17 9.60998 32.5253 9.60998 31.73C9.60998 30.9347 8.96527 30.29 8.16998 30.29C7.37469 30.29 6.72998 30.9347 6.72998 31.73C6.72998 32.5253 7.37469 33.17 8.16998 33.17Z" fill="#F7CE5B"/>
<path d="M4.81012 33.17C5.60541 33.17 6.25012 32.5253 6.25012 31.73C6.25012 30.9347 5.60541 30.29 4.81012 30.29C4.01483 30.29 3.37012 30.9347 3.37012 31.73C3.37012 32.5253 4.01483 33.17 4.81012 33.17Z" fill="#F7CE5B"/>
<path d="M45.19 29.8099C45.9853 29.8099 46.63 29.1652 46.63 28.3699C46.63 27.5746 45.9853 26.9299 45.19 26.9299C44.3947 26.9299 43.75 27.5746 43.75 28.3699C43.75 29.1652 44.3947 29.8099 45.19 29.8099Z" fill="#F7CE5B"/>
<path d="M41.8299 29.8099C42.6252 29.8099 43.2699 29.1652 43.2699 28.3699C43.2699 27.5746 42.6252 26.9299 41.8299 26.9299C41.0346 26.9299 40.3899 27.5746 40.3899 28.3699C40.3899 29.1652 41.0346 29.8099 41.8299 29.8099Z" fill="#EBCD76"/>
<path d="M38.46 29.8099C39.2553 29.8099 39.9 29.1652 39.9 28.3699C39.9 27.5746 39.2553 26.9299 38.46 26.9299C37.6647 26.9299 37.02 27.5746 37.02 28.3699C37.02 29.1652 37.6647 29.8099 38.46 29.8099Z" fill="#D1A648"/>
<path d="M35.0999 29.8099C35.8952 29.8099 36.5399 29.1652 36.5399 28.3699C36.5399 27.5746 35.8952 26.9299 35.0999 26.9299C34.3046 26.9299 33.6599 27.5746 33.6599 28.3699C33.6599 29.1652 34.3046 29.8099 35.0999 29.8099Z" fill="#EDCC72"/>
<path d="M31.73 29.8099C32.5253 29.8099 33.17 29.1652 33.17 28.3699C33.17 27.5746 32.5253 26.9299 31.73 26.9299C30.9347 26.9299 30.29 27.5746 30.29 28.3699C30.29 29.1652 30.9347 29.8099 31.73 29.8099Z" fill="#E4B652"/>
<path d="M28.3699 29.8099C29.1652 29.8099 29.8099 29.1652 29.8099 28.3699C29.8099 27.5746 29.1652 26.9299 28.3699 26.9299C27.5746 26.9299 26.9299 27.5746 26.9299 28.3699C26.9299 29.1652 27.5746 29.8099 28.3699 29.8099Z" fill="#E4B652"/>
<path d="M25.0001 29.8099C25.7953 29.8099 26.4401 29.1652 26.4401 28.3699C26.4401 27.5746 25.7953 26.9299 25.0001 26.9299C24.2048 26.9299 23.5601 27.5746 23.5601 28.3699C23.5601 29.1652 24.2048 29.8099 25.0001 29.8099Z" fill="#E4B652"/>
<path d="M21.6299 29.8099C22.4252 29.8099 23.0699 29.1652 23.0699 28.3699C23.0699 27.5746 22.4252 26.9299 21.6299 26.9299C20.8346 26.9299 20.1899 27.5746 20.1899 28.3699C20.1899 29.1652 20.8346 29.8099 21.6299 29.8099Z" fill="#F7CE5B"/>
<path d="M18.2701 29.8099C19.0654 29.8099 19.7101 29.1652 19.7101 28.3699C19.7101 27.5746 19.0654 26.9299 18.2701 26.9299C17.4748 26.9299 16.8301 27.5746 16.8301 28.3699C16.8301 29.1652 17.4748 29.8099 18.2701 29.8099Z" fill="#F7CE5B"/>
<path d="M14.9 29.8099C15.6953 29.8099 16.34 29.1652 16.34 28.3699C16.34 27.5746 15.6953 26.9299 14.9 26.9299C14.1047 26.9299 13.46 27.5746 13.46 28.3699C13.46 29.1652 14.1047 29.8099 14.9 29.8099Z" fill="#F7CE5B"/>
<path d="M11.5401 29.8099C12.3354 29.8099 12.9801 29.1652 12.9801 28.3699C12.9801 27.5746 12.3354 26.9299 11.5401 26.9299C10.7448 26.9299 10.1001 27.5746 10.1001 28.3699C10.1001 29.1652 10.7448 29.8099 11.5401 29.8099Z" fill="#FFF6BB"/>
<path d="M8.16998 29.8099C8.96527 29.8099 9.60998 29.1652 9.60998 28.3699C9.60998 27.5746 8.96527 26.9299 8.16998 26.9299C7.37469 26.9299 6.72998 27.5746 6.72998 28.3699C6.72998 29.1652 7.37469 29.8099 8.16998 29.8099Z" fill="#FFF6BB"/>
<path d="M4.81012 29.8099C5.60541 29.8099 6.25012 29.1652 6.25012 28.3699C6.25012 27.5746 5.60541 26.9299 4.81012 26.9299C4.01483 26.9299 3.37012 27.5746 3.37012 28.3699C3.37012 29.1652 4.01483 29.8099 4.81012 29.8099Z" fill="#F7CE5B"/>
<path d="M45.19 26.4401C45.9853 26.4401 46.63 25.7953 46.63 25.0001C46.63 24.2048 45.9853 23.5601 45.19 23.5601C44.3947 23.5601 43.75 24.2048 43.75 25.0001C43.75 25.7953 44.3947 26.4401 45.19 26.4401Z" fill="#F7CE5B"/>
<path d="M41.8299 26.4401C42.6252 26.4401 43.2699 25.7953 43.2699 25.0001C43.2699 24.2048 42.6252 23.5601 41.8299 23.5601C41.0346 23.5601 40.3899 24.2048 40.3899 25.0001C40.3899 25.7953 41.0346 26.4401 41.8299 26.4401Z" fill="#EBCD76"/>
<path d="M38.46 26.4401C39.2553 26.4401 39.9 25.7953 39.9 25.0001C39.9 24.2048 39.2553 23.5601 38.46 23.5601C37.6647 23.5601 37.02 24.2048 37.02 25.0001C37.02 25.7953 37.6647 26.4401 38.46 26.4401Z" fill="#EDCC72"/>
<path d="M35.0999 26.4401C35.8952 26.4401 36.5399 25.7953 36.5399 25.0001C36.5399 24.2048 35.8952 23.5601 35.0999 23.5601C34.3046 23.5601 33.6599 24.2048 33.6599 25.0001C33.6599 25.7953 34.3046 26.4401 35.0999 26.4401Z" fill="#EDCC72"/>
<path d="M31.73 26.4401C32.5253 26.4401 33.17 25.7953 33.17 25.0001C33.17 24.2048 32.5253 23.5601 31.73 23.5601C30.9347 23.5601 30.29 24.2048 30.29 25.0001C30.29 25.7953 30.9347 26.4401 31.73 26.4401Z" fill="#FFF6BB"/>
<path d="M28.3699 26.4401C29.1652 26.4401 29.8099 25.7953 29.8099 25.0001C29.8099 24.2048 29.1652 23.5601 28.3699 23.5601C27.5746 23.5601 26.9299 24.2048 26.9299 25.0001C26.9299 25.7953 27.5746 26.4401 28.3699 26.4401Z" fill="#F7CE5B"/>
<path d="M25.0001 26.4401C25.7953 26.4401 26.4401 25.7953 26.4401 25.0001C26.4401 24.2048 25.7953 23.5601 25.0001 23.5601C24.2048 23.5601 23.5601 24.2048 23.5601 25.0001C23.5601 25.7953 24.2048 26.4401 25.0001 26.4401Z" fill="#FFF6BB"/>
<path d="M21.6299 26.4401C22.4252 26.4401 23.0699 25.7953 23.0699 25.0001C23.0699 24.2048 22.4252 23.5601 21.6299 23.5601C20.8346 23.5601 20.1899 24.2048 20.1899 25.0001C20.1899 25.7953 20.8346 26.4401 21.6299 26.4401Z" fill="#F7CE5B"/>
<path d="M18.2701 26.4401C19.0654 26.4401 19.7101 25.7953 19.7101 25.0001C19.7101 24.2048 19.0654 23.5601 18.2701 23.5601C17.4748 23.5601 16.8301 24.2048 16.8301 25.0001C16.8301 25.7953 17.4748 26.4401 18.2701 26.4401Z" fill="#F7CE5B"/>
<path d="M14.9 26.4401C15.6953 26.4401 16.34 25.7953 16.34 25.0001C16.34 24.2048 15.6953 23.5601 14.9 23.5601C14.1047 23.5601 13.46 24.2048 13.46 25.0001C13.46 25.7953 14.1047 26.4401 14.9 26.4401Z" fill="#F7CE5B"/>
<path d="M11.5401 26.4401C12.3354 26.4401 12.9801 25.7953 12.9801 25.0001C12.9801 24.2048 12.3354 23.5601 11.5401 23.5601C10.7448 23.5601 10.1001 24.2048 10.1001 25.0001C10.1001 25.7953 10.7448 26.4401 11.5401 26.4401Z" fill="#F7CE5B"/>
<path d="M8.16998 26.4401C8.96527 26.4401 9.60998 25.7953 9.60998 25.0001C9.60998 24.2048 8.96527 23.5601 8.16998 23.5601C7.37469 23.5601 6.72998 24.2048 6.72998 25.0001C6.72998 25.7953 7.37469 26.4401 8.16998 26.4401Z" fill="#F7CE5B"/>
<path d="M4.81012 26.4401C5.60541 26.4401 6.25012 25.7953 6.25012 25.0001C6.25012 24.2048 5.60541 23.5601 4.81012 23.5601C4.01483 23.5601 3.37012 24.2048 3.37012 25.0001C3.37012 25.7953 4.01483 26.4401 4.81012 26.4401Z" fill="#F7CE5B"/>
<path d="M41.8299 23.0699C42.6252 23.0699 43.2699 22.4252 43.2699 21.6299C43.2699 20.8346 42.6252 20.1899 41.8299 20.1899C41.0346 20.1899 40.3899 20.8346 40.3899 21.6299C40.3899 22.4252 41.0346 23.0699 41.8299 23.0699Z" fill="#F7CE5B"/>
<path d="M38.46 23.0699C39.2553 23.0699 39.9 22.4252 39.9 21.6299C39.9 20.8346 39.2553 20.1899 38.46 20.1899C37.6647 20.1899 37.02 20.8346 37.02 21.6299C37.02 22.4252 37.6647 23.0699 38.46 23.0699Z" fill="#EFE287"/>
<path d="M35.0999 23.0699C35.8952 23.0699 36.5399 22.4252 36.5399 21.6299C36.5399 20.8346 35.8952 20.1899 35.0999 20.1899C34.3046 20.1899 33.6599 20.8346 33.6599 21.6299C33.6599 22.4252 34.3046 23.0699 35.0999 23.0699Z" fill="#EDCC72"/>
<path d="M31.73 23.0699C32.5253 23.0699 33.17 22.4252 33.17 21.6299C33.17 20.8346 32.5253 20.1899 31.73 20.1899C30.9347 20.1899 30.29 20.8346 30.29 21.6299C30.29 22.4252 30.9347 23.0699 31.73 23.0699Z" fill="#F7CE5B"/>
<path d="M28.3699 23.0699C29.1652 23.0699 29.8099 22.4252 29.8099 21.6299C29.8099 20.8346 29.1652 20.1899 28.3699 20.1899C27.5746 20.1899 26.9299 20.8346 26.9299 21.6299C26.9299 22.4252 27.5746 23.0699 28.3699 23.0699Z" fill="#F7CE5B"/>
<path d="M25.0001 23.0699C25.7953 23.0699 26.4401 22.4252 26.4401 21.6299C26.4401 20.8346 25.7953 20.1899 25.0001 20.1899C24.2048 20.1899 23.5601 20.8346 23.5601 21.6299C23.5601 22.4252 24.2048 23.0699 25.0001 23.0699Z" fill="#F7CE5B"/>
<path d="M21.6299 23.0699C22.4252 23.0699 23.0699 22.4252 23.0699 21.6299C23.0699 20.8346 22.4252 20.1899 21.6299 20.1899C20.8346 20.1899 20.1899 20.8346 20.1899 21.6299C20.1899 22.4252 20.8346 23.0699 21.6299 23.0699Z" fill="#F7CE5B"/>
<path d="M18.2701 23.0699C19.0654 23.0699 19.7101 22.4252 19.7101 21.6299C19.7101 20.8346 19.0654 20.1899 18.2701 20.1899C17.4748 20.1899 16.8301 20.8346 16.8301 21.6299C16.8301 22.4252 17.4748 23.0699 18.2701 23.0699Z" fill="#FFF6BB"/>
<path d="M14.9 23.0699C15.6953 23.0699 16.34 22.4252 16.34 21.6299C16.34 20.8346 15.6953 20.1899 14.9 20.1899C14.1047 20.1899 13.46 20.8346 13.46 21.6299C13.46 22.4252 14.1047 23.0699 14.9 23.0699Z" fill="#FFF6BB"/>
<path d="M11.5401 23.0699C12.3354 23.0699 12.9801 22.4252 12.9801 21.6299C12.9801 20.8346 12.3354 20.1899 11.5401 20.1899C10.7448 20.1899 10.1001 20.8346 10.1001 21.6299C10.1001 22.4252 10.7448 23.0699 11.5401 23.0699Z" fill="#F7CE5B"/>
<path d="M8.16998 23.0699C8.96527 23.0699 9.60998 22.4252 9.60998 21.6299C9.60998 20.8346 8.96527 20.1899 8.16998 20.1899C7.37469 20.1899 6.72998 20.8346 6.72998 21.6299C6.72998 22.4252 7.37469 23.0699 8.16998 23.0699Z" fill="#ECCB70"/>
<path d="M41.8299 19.7101C42.6252 19.7101 43.2699 19.0654 43.2699 18.2701C43.2699 17.4748 42.6252 16.8301 41.8299 16.8301C41.0346 16.8301 40.3899 17.4748 40.3899 18.2701C40.3899 19.0654 41.0346 19.7101 41.8299 19.7101Z" fill="#F7CE5B"/>
<path d="M38.46 19.7101C39.2553 19.7101 39.9 19.0654 39.9 18.2701C39.9 17.4748 39.2553 16.8301 38.46 16.8301C37.6647 16.8301 37.02 17.4748 37.02 18.2701C37.02 19.0654 37.6647 19.7101 38.46 19.7101Z" fill="#EDCC72"/>
<path d="M35.0999 19.7101C35.8952 19.7101 36.5399 19.0654 36.5399 18.2701C36.5399 17.4748 35.8952 16.8301 35.0999 16.8301C34.3046 16.8301 33.6599 17.4748 33.6599 18.2701C33.6599 19.0654 34.3046 19.7101 35.0999 19.7101Z" fill="#EDCC72"/>
<path d="M31.73 19.7101C32.5253 19.7101 33.17 19.0654 33.17 18.2701C33.17 17.4748 32.5253 16.8301 31.73 16.8301C30.9347 16.8301 30.29 17.4748 30.29 18.2701C30.29 19.0654 30.9347 19.7101 31.73 19.7101Z" fill="#FFF18A"/>
<path d="M28.3699 19.7101C29.1652 19.7101 29.8099 19.0654 29.8099 18.2701C29.8099 17.4748 29.1652 16.8301 28.3699 16.8301C27.5746 16.8301 26.9299 17.4748 26.9299 18.2701C26.9299 19.0654 27.5746 19.7101 28.3699 19.7101Z" fill="#FFF18A"/>
<path d="M25.0001 19.7101C25.7953 19.7101 26.4401 19.0654 26.4401 18.2701C26.4401 17.4748 25.7953 16.8301 25.0001 16.8301C24.2048 16.8301 23.5601 17.4748 23.5601 18.2701C23.5601 19.0654 24.2048 19.7101 25.0001 19.7101Z" fill="#FFF6BB"/>
<path d="M21.6299 19.7101C22.4252 19.7101 23.0699 19.0654 23.0699 18.2701C23.0699 17.4748 22.4252 16.8301 21.6299 16.8301C20.8346 16.8301 20.1899 17.4748 20.1899 18.2701C20.1899 19.0654 20.8346 19.7101 21.6299 19.7101Z" fill="#FFE694"/>
<path d="M18.2701 19.7101C19.0654 19.7101 19.7101 19.0654 19.7101 18.2701C19.7101 17.4748 19.0654 16.8301 18.2701 16.8301C17.4748 16.8301 16.8301 17.4748 16.8301 18.2701C16.8301 19.0654 17.4748 19.7101 18.2701 19.7101Z" fill="#F7CE5B"/>
<path d="M14.9 19.7101C15.6953 19.7101 16.34 19.0654 16.34 18.2701C16.34 17.4748 15.6953 16.8301 14.9 16.8301C14.1047 16.8301 13.46 17.4748 13.46 18.2701C13.46 19.0654 14.1047 19.7101 14.9 19.7101Z" fill="#FFE694"/>
<path d="M11.5401 19.7101C12.3354 19.7101 12.9801 19.0654 12.9801 18.2701C12.9801 17.4748 12.3354 16.8301 11.5401 16.8301C10.7448 16.8301 10.1001 17.4748 10.1001 18.2701C10.1001 19.0654 10.7448 19.7101 11.5401 19.7101Z" fill="#FFE694"/>
<path d="M8.16998 19.7101C8.96527 19.7101 9.60998 19.0654 9.60998 18.2701C9.60998 17.4748 8.96527 16.8301 8.16998 16.8301C7.37469 16.8301 6.72998 17.4748 6.72998 18.2701C6.72998 19.0654 7.37469 19.7101 8.16998 19.7101Z" fill="#ECCB70"/>
<path d="M38.46 16.34C39.2553 16.34 39.9 15.6953 39.9 14.9C39.9 14.1047 39.2553 13.46 38.46 13.46C37.6647 13.46 37.02 14.1047 37.02 14.9C37.02 15.6953 37.6647 16.34 38.46 16.34Z" fill="#F7CE5B"/>
<path d="M35.0999 16.34C35.8952 16.34 36.5399 15.6953 36.5399 14.9C36.5399 14.1047 35.8952 13.46 35.0999 13.46C34.3046 13.46 33.6599 14.1047 33.6599 14.9C33.6599 15.6953 34.3046 16.34 35.0999 16.34Z" fill="#F7CE5B"/>
<path d="M31.73 16.34C32.5253 16.34 33.17 15.6953 33.17 14.9C33.17 14.1047 32.5253 13.46 31.73 13.46C30.9347 13.46 30.29 14.1047 30.29 14.9C30.29 15.6953 30.9347 16.34 31.73 16.34Z" fill="#EFE287"/>
<path d="M28.3699 16.34C29.1652 16.34 29.8099 15.6953 29.8099 14.9C29.8099 14.1047 29.1652 13.46 28.3699 13.46C27.5746 13.46 26.9299 14.1047 26.9299 14.9C26.9299 15.6953 27.5746 16.34 28.3699 16.34Z" fill="#F7CE5B"/>
<path d="M25.0001 16.34C25.7953 16.34 26.4401 15.6953 26.4401 14.9C26.4401 14.1047 25.7953 13.46 25.0001 13.46C24.2048 13.46 23.5601 14.1047 23.5601 14.9C23.5601 15.6953 24.2048 16.34 25.0001 16.34Z" fill="#FFE694"/>
<path d="M21.6299 16.34C22.4252 16.34 23.0699 15.6953 23.0699 14.9C23.0699 14.1047 22.4252 13.46 21.6299 13.46C20.8346 13.46 20.1899 14.1047 20.1899 14.9C20.1899 15.6953 20.8346 16.34 21.6299 16.34Z" fill="#FFE694"/>
<path d="M18.2701 16.34C19.0654 16.34 19.7101 15.6953 19.7101 14.9C19.7101 14.1047 19.0654 13.46 18.2701 13.46C17.4748 13.46 16.8301 14.1047 16.8301 14.9C16.8301 15.6953 17.4748 16.34 18.2701 16.34Z" fill="#FFE694"/>
<path d="M14.9 16.34C15.6953 16.34 16.34 15.6953 16.34 14.9C16.34 14.1047 15.6953 13.46 14.9 13.46C14.1047 13.46 13.46 14.1047 13.46 14.9C13.46 15.6953 14.1047 16.34 14.9 16.34Z" fill="#FFF6BB"/>
<path d="M11.5401 16.34C12.3354 16.34 12.9801 15.6953 12.9801 14.9C12.9801 14.1047 12.3354 13.46 11.5401 13.46C10.7448 13.46 10.1001 14.1047 10.1001 14.9C10.1001 15.6953 10.7448 16.34 11.5401 16.34Z" fill="#ECCB70"/>
<path d="M35.0999 12.9801C35.8952 12.9801 36.5399 12.3354 36.5399 11.5401C36.5399 10.7448 35.8952 10.1001 35.0999 10.1001C34.3046 10.1001 33.6599 10.7448 33.6599 11.5401C33.6599 12.3354 34.3046 12.9801 35.0999 12.9801Z" fill="#F7CE5B"/>
<path d="M31.73 12.9801C32.5253 12.9801 33.17 12.3354 33.17 11.5401C33.17 10.7448 32.5253 10.1001 31.73 10.1001C30.9347 10.1001 30.29 10.7448 30.29 11.5401C30.29 12.3354 30.9347 12.9801 31.73 12.9801Z" fill="#F7CE5B"/>
<path d="M28.3699 12.9801C29.1652 12.9801 29.8099 12.3354 29.8099 11.5401C29.8099 10.7448 29.1652 10.1001 28.3699 10.1001C27.5746 10.1001 26.9299 10.7448 26.9299 11.5401C26.9299 12.3354 27.5746 12.9801 28.3699 12.9801Z" fill="#FFF18A"/>
<path d="M25.0001 12.9801C25.7953 12.9801 26.4401 12.3354 26.4401 11.5401C26.4401 10.7448 25.7953 10.1001 25.0001 10.1001C24.2048 10.1001 23.5601 10.7448 23.5601 11.5401C23.5601 12.3354 24.2048 12.9801 25.0001 12.9801Z" fill="#FFF6BB"/>
<path d="M21.6299 12.9801C22.4252 12.9801 23.0699 12.3354 23.0699 11.5401C23.0699 10.7448 22.4252 10.1001 21.6299 10.1001C20.8346 10.1001 20.1899 10.7448 20.1899 11.5401C20.1899 12.3354 20.8346 12.9801 21.6299 12.9801Z" fill="#FFF18A"/>
<path d="M18.2701 12.9801C19.0654 12.9801 19.7101 12.3354 19.7101 11.5401C19.7101 10.7448 19.0654 10.1001 18.2701 10.1001C17.4748 10.1001 16.8301 10.7448 16.8301 11.5401C16.8301 12.3354 17.4748 12.9801 18.2701 12.9801Z" fill="#FFE694"/>
<path d="M14.9 12.9801C15.6953 12.9801 16.34 12.3354 16.34 11.5401C16.34 10.7448 15.6953 10.1001 14.9 10.1001C14.1047 10.1001 13.46 10.7448 13.46 11.5401C13.46 12.3354 14.1047 12.9801 14.9 12.9801Z" fill="#FFF6BB"/>
<path d="M31.73 9.60998C32.5253 9.60998 33.17 8.96527 33.17 8.16998C33.17 7.37469 32.5253 6.72998 31.73 6.72998C30.9347 6.72998 30.29 7.37469 30.29 8.16998C30.29 8.96527 30.9347 9.60998 31.73 9.60998Z" fill="#F7CE5B"/>
<path d="M28.3699 9.60998C29.1652 9.60998 29.8099 8.96527 29.8099 8.16998C29.8099 7.37469 29.1652 6.72998 28.3699 6.72998C27.5746 6.72998 26.9299 7.37469 26.9299 8.16998C26.9299 8.96527 27.5746 9.60998 28.3699 9.60998Z" fill="#F7CE5B"/>
<path d="M25.0001 9.60998C25.7953 9.60998 26.4401 8.96527 26.4401 8.16998C26.4401 7.37469 25.7953 6.72998 25.0001 6.72998C24.2048 6.72998 23.5601 7.37469 23.5601 8.16998C23.5601 8.96527 24.2048 9.60998 25.0001 9.60998Z" fill="#FFF18A"/>
<path d="M21.6299 9.60998C22.4252 9.60998 23.0699 8.96527 23.0699 8.16998C23.0699 7.37469 22.4252 6.72998 21.6299 6.72998C20.8346 6.72998 20.1899 7.37469 20.1899 8.16998C20.1899 8.96527 20.8346 9.60998 21.6299 9.60998Z" fill="#FFF18A"/>
<path d="M18.2701 9.60998C19.0654 9.60998 19.7101 8.96527 19.7101 8.16998C19.7101 7.37469 19.0654 6.72998 18.2701 6.72998C17.4748 6.72998 16.8301 7.37469 16.8301 8.16998C16.8301 8.96527 17.4748 9.60998 18.2701 9.60998Z" fill="#FFF18A"/>
</g>
<defs>
<clipPath id="clip0_221_36147">
<rect width="50" height="50" fill="white"/>
</clipPath>
</defs>
</svg>
