<svg width="50" height="50" viewBox="0 0 50 50" fill="none" xmlns="http://www.w3.org/2000/svg">
<g clip-path="url(#clip0_249_23539)">
<path d="M45.19 50.0001C45.9853 50.0001 46.63 49.3554 46.63 48.5601C46.63 47.7648 45.9853 47.1201 45.19 47.1201C44.3947 47.1201 43.75 47.7648 43.75 48.5601C43.75 49.3554 44.3947 50.0001 45.19 50.0001Z" fill="#B3410C"/>
<path d="M41.8299 50.0001C42.6252 50.0001 43.2699 49.3554 43.2699 48.5601C43.2699 47.7648 42.6252 47.1201 41.8299 47.1201C41.0346 47.1201 40.3899 47.7648 40.3899 48.5601C40.3899 49.3554 41.0346 50.0001 41.8299 50.0001Z" fill="#B3410C"/>
<path d="M48.5601 46.63C49.3554 46.63 50.0001 45.9853 50.0001 45.19C50.0001 44.3947 49.3554 43.75 48.5601 43.75C47.7648 43.75 47.1201 44.3947 47.1201 45.19C47.1201 45.9853 47.7648 46.63 48.5601 46.63Z" fill="#923F0A"/>
<path d="M45.19 46.63C45.9853 46.63 46.63 45.9853 46.63 45.19C46.63 44.3947 45.9853 43.75 45.19 43.75C44.3947 43.75 43.75 44.3947 43.75 45.19C43.75 45.9853 44.3947 46.63 45.19 46.63Z" fill="#C06108"/>
<path d="M41.8299 46.63C42.6252 46.63 43.2699 45.9853 43.2699 45.19C43.2699 44.3947 42.6252 43.75 41.8299 43.75C41.0346 43.75 40.3899 44.3947 40.3899 45.19C40.3899 45.9853 41.0346 46.63 41.8299 46.63Z" fill="#B3410C"/>
<path d="M48.5601 43.2699C49.3554 43.2699 50.0001 42.6252 50.0001 41.8299C50.0001 41.0346 49.3554 40.3899 48.5601 40.3899C47.7648 40.3899 47.1201 41.0346 47.1201 41.8299C47.1201 42.6252 47.7648 43.2699 48.5601 43.2699Z" fill="#C06108"/>
<path d="M45.19 43.2699C45.9853 43.2699 46.63 42.6252 46.63 41.8299C46.63 41.0346 45.9853 40.3899 45.19 40.3899C44.3947 40.3899 43.75 41.0346 43.75 41.8299C43.75 42.6252 44.3947 43.2699 45.19 43.2699Z" fill="#CF9322"/>
<path d="M41.8299 43.2699C42.6252 43.2699 43.2699 42.6252 43.2699 41.8299C43.2699 41.0346 42.6252 40.3899 41.8299 40.3899C41.0346 40.3899 40.3899 41.0346 40.3899 41.8299C40.3899 42.6252 41.0346 43.2699 41.8299 43.2699Z" fill="#CF9322"/>
<path d="M31.73 43.2699C32.5253 43.2699 33.17 42.6252 33.17 41.8299C33.17 41.0346 32.5253 40.3899 31.73 40.3899C30.9347 40.3899 30.29 41.0346 30.29 41.8299C30.29 42.6252 30.9347 43.2699 31.73 43.2699Z" fill="#731800"/>
<path d="M28.3699 43.2699C29.1652 43.2699 29.8099 42.6252 29.8099 41.8299C29.8099 41.0346 29.1652 40.3899 28.3699 40.3899C27.5746 40.3899 26.9299 41.0346 26.9299 41.8299C26.9299 42.6252 27.5746 43.2699 28.3699 43.2699Z" fill="#731800"/>
<path d="M48.5601 39.9C49.3554 39.9 50.0001 39.2553 50.0001 38.46C50.0001 37.6647 49.3554 37.02 48.5601 37.02C47.7648 37.02 47.1201 37.6647 47.1201 38.46C47.1201 39.2553 47.7648 39.9 48.5601 39.9Z" fill="#C06108"/>
<path d="M45.19 39.9C45.9853 39.9 46.63 39.2553 46.63 38.46C46.63 37.6647 45.9853 37.02 45.19 37.02C44.3947 37.02 43.75 37.6647 43.75 38.46C43.75 39.2553 44.3947 39.9 45.19 39.9Z" fill="#CF9322"/>
<path d="M41.8299 39.9C42.6252 39.9 43.2699 39.2553 43.2699 38.46C43.2699 37.6647 42.6252 37.02 41.8299 37.02C41.0346 37.02 40.3899 37.6647 40.3899 38.46C40.3899 39.2553 41.0346 39.9 41.8299 39.9Z" fill="#CF9322"/>
<path d="M35.0999 39.9C35.8952 39.9 36.5399 39.2553 36.5399 38.46C36.5399 37.6647 35.8952 37.02 35.0999 37.02C34.3046 37.02 33.6599 37.6647 33.6599 38.46C33.6599 39.2553 34.3046 39.9 35.0999 39.9Z" fill="#731800"/>
<path d="M31.73 39.9C32.5253 39.9 33.17 39.2553 33.17 38.46C33.17 37.6647 32.5253 37.02 31.73 37.02C30.9347 37.02 30.29 37.6647 30.29 38.46C30.29 39.2553 30.9347 39.9 31.73 39.9Z" fill="#C16207"/>
<path d="M28.3699 39.9C29.1652 39.9 29.8099 39.2553 29.8099 38.46C29.8099 37.6647 29.1652 37.02 28.3699 37.02C27.5746 37.02 26.9299 37.6647 26.9299 38.46C26.9299 39.2553 27.5746 39.9 28.3699 39.9Z" fill="#802B0A"/>
<path d="M48.5601 36.5399C49.3554 36.5399 50.0001 35.8952 50.0001 35.0999C50.0001 34.3046 49.3554 33.6599 48.5601 33.6599C47.7648 33.6599 47.1201 34.3046 47.1201 35.0999C47.1201 35.8952 47.7648 36.5399 48.5601 36.5399Z" fill="#E49337"/>
<path d="M45.19 36.5399C45.9853 36.5399 46.63 35.8952 46.63 35.0999C46.63 34.3046 45.9853 33.6599 45.19 33.6599C44.3947 33.6599 43.75 34.3046 43.75 35.0999C43.75 35.8952 44.3947 36.5399 45.19 36.5399Z" fill="#CF9322"/>
<path d="M41.8299 36.5399C42.6252 36.5399 43.2699 35.8952 43.2699 35.0999C43.2699 34.3046 42.6252 33.6599 41.8299 33.6599C41.0346 33.6599 40.3899 34.3046 40.3899 35.0999C40.3899 35.8952 41.0346 36.5399 41.8299 36.5399Z" fill="#CF9322"/>
<path d="M35.0999 36.5399C35.8952 36.5399 36.5399 35.8952 36.5399 35.0999C36.5399 34.3046 35.8952 33.6599 35.0999 33.6599C34.3046 33.6599 33.6599 34.3046 33.6599 35.0999C33.6599 35.8952 34.3046 36.5399 35.0999 36.5399Z" fill="#BF6F10"/>
<path d="M31.73 36.5399C32.5253 36.5399 33.17 35.8952 33.17 35.0999C33.17 34.3046 32.5253 33.6599 31.73 33.6599C30.9347 33.6599 30.29 34.3046 30.29 35.0999C30.29 35.8952 30.9347 36.5399 31.73 36.5399Z" fill="#C16207"/>
<path d="M28.3699 36.5399C29.1652 36.5399 29.8099 35.8952 29.8099 35.0999C29.8099 34.3046 29.1652 33.6599 28.3699 33.6599C27.5746 33.6599 26.9299 34.3046 26.9299 35.0999C26.9299 35.8952 27.5746 36.5399 28.3699 36.5399Z" fill="#802B0A"/>
<path d="M21.6299 36.5399C22.4252 36.5399 23.0699 35.8952 23.0699 35.0999C23.0699 34.3046 22.4252 33.6599 21.6299 33.6599C20.8346 33.6599 20.1899 34.3046 20.1899 35.0999C20.1899 35.8952 20.8346 36.5399 21.6299 36.5399Z" fill="#B77306"/>
<path d="M18.2701 36.5399C19.0654 36.5399 19.7101 35.8952 19.7101 35.0999C19.7101 34.3046 19.0654 33.6599 18.2701 33.6599C17.4748 33.6599 16.8301 34.3046 16.8301 35.0999C16.8301 35.8952 17.4748 36.5399 18.2701 36.5399Z" fill="#882F0E"/>
<path d="M14.9 36.5399C15.6953 36.5399 16.34 35.8952 16.34 35.0999C16.34 34.3046 15.6953 33.6599 14.9 33.6599C14.1047 33.6599 13.46 34.3046 13.46 35.0999C13.46 35.8952 14.1047 36.5399 14.9 36.5399Z" fill="#882F0E"/>
<path d="M48.5601 33.17C49.3554 33.17 50.0001 32.5253 50.0001 31.73C50.0001 30.9347 49.3554 30.29 48.5601 30.29C47.7648 30.29 47.1201 30.9347 47.1201 31.73C47.1201 32.5253 47.7648 33.17 48.5601 33.17Z" fill="#B55A08"/>
<path d="M45.19 33.17C45.9853 33.17 46.63 32.5253 46.63 31.73C46.63 30.9347 45.9853 30.29 45.19 30.29C44.3947 30.29 43.75 30.9347 43.75 31.73C43.75 32.5253 44.3947 33.17 45.19 33.17Z" fill="#E5B464"/>
<path d="M41.8299 33.17C42.6252 33.17 43.2699 32.5253 43.2699 31.73C43.2699 30.9347 42.6252 30.29 41.8299 30.29C41.0346 30.29 40.3899 30.9347 40.3899 31.73C40.3899 32.5253 41.0346 33.17 41.8299 33.17Z" fill="#CF9322"/>
<path d="M35.0999 33.17C35.8952 33.17 36.5399 32.5253 36.5399 31.73C36.5399 30.9347 35.8952 30.29 35.0999 30.29C34.3046 30.29 33.6599 30.9347 33.6599 31.73C33.6599 32.5253 34.3046 33.17 35.0999 33.17Z" fill="#BF6F10"/>
<path d="M31.73 33.17C32.5253 33.17 33.17 32.5253 33.17 31.73C33.17 30.9347 32.5253 30.29 31.73 30.29C30.9347 30.29 30.29 30.9347 30.29 31.73C30.29 32.5253 30.9347 33.17 31.73 33.17Z" fill="#C16207"/>
<path d="M28.3699 33.17C29.1652 33.17 29.8099 32.5253 29.8099 31.73C29.8099 30.9347 29.1652 30.29 28.3699 30.29C27.5746 30.29 26.9299 30.9347 26.9299 31.73C26.9299 32.5253 27.5746 33.17 28.3699 33.17Z" fill="#802B0A"/>
<path d="M21.6299 33.17C22.4252 33.17 23.0699 32.5253 23.0699 31.73C23.0699 30.9347 22.4252 30.29 21.6299 30.29C20.8346 30.29 20.1899 30.9347 20.1899 31.73C20.1899 32.5253 20.8346 33.17 21.6299 33.17Z" fill="#B77306"/>
<path d="M18.2701 33.17C19.0654 33.17 19.7101 32.5253 19.7101 31.73C19.7101 30.9347 19.0654 30.29 18.2701 30.29C17.4748 30.29 16.8301 30.9347 16.8301 31.73C16.8301 32.5253 17.4748 33.17 18.2701 33.17Z" fill="#B77306"/>
<path d="M14.9 33.17C15.6953 33.17 16.34 32.5253 16.34 31.73C16.34 30.9347 15.6953 30.29 14.9 30.29C14.1047 30.29 13.46 30.9347 13.46 31.73C13.46 32.5253 14.1047 33.17 14.9 33.17Z" fill="#A8430C"/>
<path d="M1.44 33.17C2.23529 33.17 2.88 32.5253 2.88 31.73C2.88 30.9347 2.23529 30.29 1.44 30.29C0.64471 30.29 0 30.9347 0 31.73C0 32.5253 0.64471 33.17 1.44 33.17Z" fill="#C86F07"/>
<path d="M48.5601 29.8099C49.3554 29.8099 50.0001 29.1652 50.0001 28.3699C50.0001 27.5746 49.3554 26.9299 48.5601 26.9299C47.7648 26.9299 47.1201 27.5746 47.1201 28.3699C47.1201 29.1652 47.7648 29.8099 48.5601 29.8099Z" fill="#E49337"/>
<path d="M45.19 29.8099C45.9853 29.8099 46.63 29.1652 46.63 28.3699C46.63 27.5746 45.9853 26.9299 45.19 26.9299C44.3947 26.9299 43.75 27.5746 43.75 28.3699C43.75 29.1652 44.3947 29.8099 45.19 29.8099Z" fill="#E5B464"/>
<path d="M41.8299 29.8099C42.6252 29.8099 43.2699 29.1652 43.2699 28.3699C43.2699 27.5746 42.6252 26.9299 41.8299 26.9299C41.0346 26.9299 40.3899 27.5746 40.3899 28.3699C40.3899 29.1652 41.0346 29.8099 41.8299 29.8099Z" fill="#CF9322"/>
<path d="M35.0999 29.8099C35.8952 29.8099 36.5399 29.1652 36.5399 28.3699C36.5399 27.5746 35.8952 26.9299 35.0999 26.9299C34.3046 26.9299 33.6599 27.5746 33.6599 28.3699C33.6599 29.1652 34.3046 29.8099 35.0999 29.8099Z" fill="#BF6F10"/>
<path d="M31.73 29.8099C32.5253 29.8099 33.17 29.1652 33.17 28.3699C33.17 27.5746 32.5253 26.9299 31.73 26.9299C30.9347 26.9299 30.29 27.5746 30.29 28.3699C30.29 29.1652 30.9347 29.8099 31.73 29.8099Z" fill="#C97E11"/>
<path d="M28.3699 29.8099C29.1652 29.8099 29.8099 29.1652 29.8099 28.3699C29.8099 27.5746 29.1652 26.9299 28.3699 26.9299C27.5746 26.9299 26.9299 27.5746 26.9299 28.3699C26.9299 29.1652 27.5746 29.8099 28.3699 29.8099Z" fill="#9C400A"/>
<path d="M21.6299 29.8099C22.4252 29.8099 23.0699 29.1652 23.0699 28.3699C23.0699 27.5746 22.4252 26.9299 21.6299 26.9299C20.8346 26.9299 20.1899 27.5746 20.1899 28.3699C20.1899 29.1652 20.8346 29.8099 21.6299 29.8099Z" fill="#B77306"/>
<path d="M18.2701 29.8099C19.0654 29.8099 19.7101 29.1652 19.7101 28.3699C19.7101 27.5746 19.0654 26.9299 18.2701 26.9299C17.4748 26.9299 16.8301 27.5746 16.8301 28.3699C16.8301 29.1652 17.4748 29.8099 18.2701 29.8099Z" fill="#B77306"/>
<path d="M14.9 29.8099C15.6953 29.8099 16.34 29.1652 16.34 28.3699C16.34 27.5746 15.6953 26.9299 14.9 26.9299C14.1047 26.9299 13.46 27.5746 13.46 28.3699C13.46 29.1652 14.1047 29.8099 14.9 29.8099Z" fill="#A8430C"/>
<path d="M8.16998 29.8099C8.96527 29.8099 9.60998 29.1652 9.60998 28.3699C9.60998 27.5746 8.96527 26.9299 8.16998 26.9299C7.37469 26.9299 6.72998 27.5746 6.72998 28.3699C6.72998 29.1652 7.37469 29.8099 8.16998 29.8099Z" fill="#96420C"/>
<path d="M4.81012 29.8099C5.60541 29.8099 6.25012 29.1652 6.25012 28.3699C6.25012 27.5746 5.60541 26.9299 4.81012 26.9299C4.01483 26.9299 3.37012 27.5746 3.37012 28.3699C3.37012 29.1652 4.01483 29.8099 4.81012 29.8099Z" fill="#7A2005"/>
<path d="M1.44 29.8099C2.23529 29.8099 2.88 29.1652 2.88 28.3699C2.88 27.5746 2.23529 26.9299 1.44 26.9299C0.64471 26.9299 0 27.5746 0 28.3699C0 29.1652 0.64471 29.8099 1.44 29.8099Z" fill="#7A2005"/>
<path d="M48.5601 26.4401C49.3554 26.4401 50.0001 25.7953 50.0001 25.0001C50.0001 24.2048 49.3554 23.5601 48.5601 23.5601C47.7648 23.5601 47.1201 24.2048 47.1201 25.0001C47.1201 25.7953 47.7648 26.4401 48.5601 26.4401Z" fill="#E49337"/>
<path d="M45.19 26.4401C45.9853 26.4401 46.63 25.7953 46.63 25.0001C46.63 24.2048 45.9853 23.5601 45.19 23.5601C44.3947 23.5601 43.75 24.2048 43.75 25.0001C43.75 25.7953 44.3947 26.4401 45.19 26.4401Z" fill="#E5B464"/>
<path d="M41.8299 26.4401C42.6252 26.4401 43.2699 25.7953 43.2699 25.0001C43.2699 24.2048 42.6252 23.5601 41.8299 23.5601C41.0346 23.5601 40.3899 24.2048 40.3899 25.0001C40.3899 25.7953 41.0346 26.4401 41.8299 26.4401Z" fill="#CF9322"/>
<path d="M35.0999 26.4401C35.8952 26.4401 36.5399 25.7953 36.5399 25.0001C36.5399 24.2048 35.8952 23.5601 35.0999 23.5601C34.3046 23.5601 33.6599 24.2048 33.6599 25.0001C33.6599 25.7953 34.3046 26.4401 35.0999 26.4401Z" fill="#BF6F10"/>
<path d="M31.73 26.4401C32.5253 26.4401 33.17 25.7953 33.17 25.0001C33.17 24.2048 32.5253 23.5601 31.73 23.5601C30.9347 23.5601 30.29 24.2048 30.29 25.0001C30.29 25.7953 30.9347 26.4401 31.73 26.4401Z" fill="#C97E11"/>
<path d="M28.3699 26.4401C29.1652 26.4401 29.8099 25.7953 29.8099 25.0001C29.8099 24.2048 29.1652 23.5601 28.3699 23.5601C27.5746 23.5601 26.9299 24.2048 26.9299 25.0001C26.9299 25.7953 27.5746 26.4401 28.3699 26.4401Z" fill="#9C400A"/>
<path d="M21.6299 26.4401C22.4252 26.4401 23.0699 25.7953 23.0699 25.0001C23.0699 24.2048 22.4252 23.5601 21.6299 23.5601C20.8346 23.5601 20.1899 24.2048 20.1899 25.0001C20.1899 25.7953 20.8346 26.4401 21.6299 26.4401Z" fill="#B77306"/>
<path d="M18.2701 26.4401C19.0654 26.4401 19.7101 25.7953 19.7101 25.0001C19.7101 24.2048 19.0654 23.5601 18.2701 23.5601C17.4748 23.5601 16.8301 24.2048 16.8301 25.0001C16.8301 25.7953 17.4748 26.4401 18.2701 26.4401Z" fill="#C86F07"/>
<path d="M14.9 26.4401C15.6953 26.4401 16.34 25.7953 16.34 25.0001C16.34 24.2048 15.6953 23.5601 14.9 23.5601C14.1047 23.5601 13.46 24.2048 13.46 25.0001C13.46 25.7953 14.1047 26.4401 14.9 26.4401Z" fill="#A8430C"/>
<path d="M8.16998 26.4401C8.96527 26.4401 9.60998 25.7953 9.60998 25.0001C9.60998 24.2048 8.96527 23.5601 8.16998 23.5601C7.37469 23.5601 6.72998 24.2048 6.72998 25.0001C6.72998 25.7953 7.37469 26.4401 8.16998 26.4401Z" fill="#96420C"/>
<path d="M4.81012 26.4401C5.60541 26.4401 6.25012 25.7953 6.25012 25.0001C6.25012 24.2048 5.60541 23.5601 4.81012 23.5601C4.01483 23.5601 3.37012 24.2048 3.37012 25.0001C3.37012 25.7953 4.01483 26.4401 4.81012 26.4401Z" fill="#7A2005"/>
<path d="M1.44 26.4401C2.23529 26.4401 2.88 25.7953 2.88 25.0001C2.88 24.2048 2.23529 23.5601 1.44 23.5601C0.64471 23.5601 0 24.2048 0 25.0001C0 25.7953 0.64471 26.4401 1.44 26.4401Z" fill="#7A2005"/>
<path d="M48.5601 23.0699C49.3554 23.0699 50.0001 22.4252 50.0001 21.6299C50.0001 20.8346 49.3554 20.1899 48.5601 20.1899C47.7648 20.1899 47.1201 20.8346 47.1201 21.6299C47.1201 22.4252 47.7648 23.0699 48.5601 23.0699Z" fill="#B55A08"/>
<path d="M45.19 23.0699C45.9853 23.0699 46.63 22.4252 46.63 21.6299C46.63 20.8346 45.9853 20.1899 45.19 20.1899C44.3947 20.1899 43.75 20.8346 43.75 21.6299C43.75 22.4252 44.3947 23.0699 45.19 23.0699Z" fill="#E5B464"/>
<path d="M41.8299 23.0699C42.6252 23.0699 43.2699 22.4252 43.2699 21.6299C43.2699 20.8346 42.6252 20.1899 41.8299 20.1899C41.0346 20.1899 40.3899 20.8346 40.3899 21.6299C40.3899 22.4252 41.0346 23.0699 41.8299 23.0699Z" fill="#CF9322"/>
<path d="M35.0999 23.0699C35.8952 23.0699 36.5399 22.4252 36.5399 21.6299C36.5399 20.8346 35.8952 20.1899 35.0999 20.1899C34.3046 20.1899 33.6599 20.8346 33.6599 21.6299C33.6599 22.4252 34.3046 23.0699 35.0999 23.0699Z" fill="#BF6F10"/>
<path d="M31.73 23.0699C32.5253 23.0699 33.17 22.4252 33.17 21.6299C33.17 20.8346 32.5253 20.1899 31.73 20.1899C30.9347 20.1899 30.29 20.8346 30.29 21.6299C30.29 22.4252 30.9347 23.0699 31.73 23.0699Z" fill="#C97E11"/>
<path d="M28.3699 23.0699C29.1652 23.0699 29.8099 22.4252 29.8099 21.6299C29.8099 20.8346 29.1652 20.1899 28.3699 20.1899C27.5746 20.1899 26.9299 20.8346 26.9299 21.6299C26.9299 22.4252 27.5746 23.0699 28.3699 23.0699Z" fill="#9C400A"/>
<path d="M21.6299 23.0699C22.4252 23.0699 23.0699 22.4252 23.0699 21.6299C23.0699 20.8346 22.4252 20.1899 21.6299 20.1899C20.8346 20.1899 20.1899 20.8346 20.1899 21.6299C20.1899 22.4252 20.8346 23.0699 21.6299 23.0699Z" fill="#B77306"/>
<path d="M18.2701 23.0699C19.0654 23.0699 19.7101 22.4252 19.7101 21.6299C19.7101 20.8346 19.0654 20.1899 18.2701 20.1899C17.4748 20.1899 16.8301 20.8346 16.8301 21.6299C16.8301 22.4252 17.4748 23.0699 18.2701 23.0699Z" fill="#C86F07"/>
<path d="M14.9 23.0699C15.6953 23.0699 16.34 22.4252 16.34 21.6299C16.34 20.8346 15.6953 20.1899 14.9 20.1899C14.1047 20.1899 13.46 20.8346 13.46 21.6299C13.46 22.4252 14.1047 23.0699 14.9 23.0699Z" fill="#A8430C"/>
<path d="M8.16998 23.0699C8.96527 23.0699 9.60998 22.4252 9.60998 21.6299C9.60998 20.8346 8.96527 20.1899 8.16998 20.1899C7.37469 20.1899 6.72998 20.8346 6.72998 21.6299C6.72998 22.4252 7.37469 23.0699 8.16998 23.0699Z" fill="#96420C"/>
<path d="M4.81012 23.0699C5.60541 23.0699 6.25012 22.4252 6.25012 21.6299C6.25012 20.8346 5.60541 20.1899 4.81012 20.1899C4.01483 20.1899 3.37012 20.8346 3.37012 21.6299C3.37012 22.4252 4.01483 23.0699 4.81012 23.0699Z" fill="#96420C"/>
<path d="M1.44 23.0699C2.23529 23.0699 2.88 22.4252 2.88 21.6299C2.88 20.8346 2.23529 20.1899 1.44 20.1899C0.64471 20.1899 0 20.8346 0 21.6299C0 22.4252 0.64471 23.0699 1.44 23.0699Z" fill="#7A2005"/>
<path d="M41.8299 19.7101C42.6252 19.7101 43.2699 19.0654 43.2699 18.2701C43.2699 17.4748 42.6252 16.8301 41.8299 16.8301C41.0346 16.8301 40.3899 17.4748 40.3899 18.2701C40.3899 19.0654 41.0346 19.7101 41.8299 19.7101Z" fill="#AB4C0A"/>
<path d="M35.0999 19.7101C35.8952 19.7101 36.5399 19.0654 36.5399 18.2701C36.5399 17.4748 35.8952 16.8301 35.0999 16.8301C34.3046 16.8301 33.6599 17.4748 33.6599 18.2701C33.6599 19.0654 34.3046 19.7101 35.0999 19.7101Z" fill="#BF6F10"/>
<path d="M31.73 19.7101C32.5253 19.7101 33.17 19.0654 33.17 18.2701C33.17 17.4748 32.5253 16.8301 31.73 16.8301C30.9347 16.8301 30.29 17.4748 30.29 18.2701C30.29 19.0654 30.9347 19.7101 31.73 19.7101Z" fill="#BF6F10"/>
<path d="M28.3699 19.7101C29.1652 19.7101 29.8099 19.0654 29.8099 18.2701C29.8099 17.4748 29.1652 16.8301 28.3699 16.8301C27.5746 16.8301 26.9299 17.4748 26.9299 18.2701C26.9299 19.0654 27.5746 19.7101 28.3699 19.7101Z" fill="#9C400A"/>
<path d="M21.6299 19.7101C22.4252 19.7101 23.0699 19.0654 23.0699 18.2701C23.0699 17.4748 22.4252 16.8301 21.6299 16.8301C20.8346 16.8301 20.1899 17.4748 20.1899 18.2701C20.1899 19.0654 20.8346 19.7101 21.6299 19.7101Z" fill="#B77306"/>
<path d="M18.2701 19.7101C19.0654 19.7101 19.7101 19.0654 19.7101 18.2701C19.7101 17.4748 19.0654 16.8301 18.2701 16.8301C17.4748 16.8301 16.8301 17.4748 16.8301 18.2701C16.8301 19.0654 17.4748 19.7101 18.2701 19.7101Z" fill="#C86F07"/>
<path d="M14.9 19.7101C15.6953 19.7101 16.34 19.0654 16.34 18.2701C16.34 17.4748 15.6953 16.8301 14.9 16.8301C14.1047 16.8301 13.46 17.4748 13.46 18.2701C13.46 19.0654 14.1047 19.7101 14.9 19.7101Z" fill="#A8430C"/>
<path d="M8.16998 19.7101C8.96527 19.7101 9.60998 19.0654 9.60998 18.2701C9.60998 17.4748 8.96527 16.8301 8.16998 16.8301C7.37469 16.8301 6.72998 17.4748 6.72998 18.2701C6.72998 19.0654 7.37469 19.7101 8.16998 19.7101Z" fill="#96420C"/>
<path d="M4.81012 19.7101C5.60541 19.7101 6.25012 19.0654 6.25012 18.2701C6.25012 17.4748 5.60541 16.8301 4.81012 16.8301C4.01483 16.8301 3.37012 17.4748 3.37012 18.2701C3.37012 19.0654 4.01483 19.7101 4.81012 19.7101Z" fill="#96420C"/>
<path d="M1.44 19.7101C2.23529 19.7101 2.88 19.0654 2.88 18.2701C2.88 17.4748 2.23529 16.8301 1.44 16.8301C0.64471 16.8301 0 17.4748 0 18.2701C0 19.0654 0.64471 19.7101 1.44 19.7101Z" fill="#7A2005"/>
<path d="M35.0999 16.34C35.8952 16.34 36.5399 15.6953 36.5399 14.9C36.5399 14.1047 35.8952 13.46 35.0999 13.46C34.3046 13.46 33.6599 14.1047 33.6599 14.9C33.6599 15.6953 34.3046 16.34 35.0999 16.34Z" fill="#BF6F10"/>
<path d="M31.73 16.34C32.5253 16.34 33.17 15.6953 33.17 14.9C33.17 14.1047 32.5253 13.46 31.73 13.46C30.9347 13.46 30.29 14.1047 30.29 14.9C30.29 15.6953 30.9347 16.34 31.73 16.34Z" fill="#BF6F10"/>
<path d="M28.3699 16.34C29.1652 16.34 29.8099 15.6953 29.8099 14.9C29.8099 14.1047 29.1652 13.46 28.3699 13.46C27.5746 13.46 26.9299 14.1047 26.9299 14.9C26.9299 15.6953 27.5746 16.34 28.3699 16.34Z" fill="#C97E11"/>
<path d="M21.6299 16.34C22.4252 16.34 23.0699 15.6953 23.0699 14.9C23.0699 14.1047 22.4252 13.46 21.6299 13.46C20.8346 13.46 20.1899 14.1047 20.1899 14.9C20.1899 15.6953 20.8346 16.34 21.6299 16.34Z" fill="#DFAC7B"/>
<path d="M18.2701 16.34C19.0654 16.34 19.7101 15.6953 19.7101 14.9C19.7101 14.1047 19.0654 13.46 18.2701 13.46C17.4748 13.46 16.8301 14.1047 16.8301 14.9C16.8301 15.6953 17.4748 16.34 18.2701 16.34Z" fill="#C86F07"/>
<path d="M14.9 16.34C15.6953 16.34 16.34 15.6953 16.34 14.9C16.34 14.1047 15.6953 13.46 14.9 13.46C14.1047 13.46 13.46 14.1047 13.46 14.9C13.46 15.6953 14.1047 16.34 14.9 16.34Z" fill="#C88E4E"/>
<path d="M8.16998 16.34C8.96527 16.34 9.60998 15.6953 9.60998 14.9C9.60998 14.1047 8.96527 13.46 8.16998 13.46C7.37469 13.46 6.72998 14.1047 6.72998 14.9C6.72998 15.6953 7.37469 16.34 8.16998 16.34Z" fill="#96420C"/>
<path d="M4.81012 16.34C5.60541 16.34 6.25012 15.6953 6.25012 14.9C6.25012 14.1047 5.60541 13.46 4.81012 13.46C4.01483 13.46 3.37012 14.1047 3.37012 14.9C3.37012 15.6953 4.01483 16.34 4.81012 16.34Z" fill="#96420C"/>
<path d="M1.44 16.34C2.23529 16.34 2.88 15.6953 2.88 14.9C2.88 14.1047 2.23529 13.46 1.44 13.46C0.64471 13.46 0 14.1047 0 14.9C0 15.6953 0.64471 16.34 1.44 16.34Z" fill="#7A2005"/>
<path d="M21.6299 12.9801C22.4252 12.9801 23.0699 12.3354 23.0699 11.5401C23.0699 10.7448 22.4252 10.1001 21.6299 10.1001C20.8346 10.1001 20.1899 10.7448 20.1899 11.5401C20.1899 12.3354 20.8346 12.9801 21.6299 12.9801Z" fill="#DFAC7B"/>
<path d="M18.2701 12.9801C19.0654 12.9801 19.7101 12.3354 19.7101 11.5401C19.7101 10.7448 19.0654 10.1001 18.2701 10.1001C17.4748 10.1001 16.8301 10.7448 16.8301 11.5401C16.8301 12.3354 17.4748 12.9801 18.2701 12.9801Z" fill="#C86F07"/>
<path d="M14.9 12.9801C15.6953 12.9801 16.34 12.3354 16.34 11.5401C16.34 10.7448 15.6953 10.1001 14.9 10.1001C14.1047 10.1001 13.46 10.7448 13.46 11.5401C13.46 12.3354 14.1047 12.9801 14.9 12.9801Z" fill="#C88E4E"/>
<path d="M8.16998 12.9801C8.96527 12.9801 9.60998 12.3354 9.60998 11.5401C9.60998 10.7448 8.96527 10.1001 8.16998 10.1001C7.37469 10.1001 6.72998 10.7448 6.72998 11.5401C6.72998 12.3354 7.37469 12.9801 8.16998 12.9801Z" fill="#96420C"/>
<path d="M4.81012 12.9801C5.60541 12.9801 6.25012 12.3354 6.25012 11.5401C6.25012 10.7448 5.60541 10.1001 4.81012 10.1001C4.01483 10.1001 3.37012 10.7448 3.37012 11.5401C3.37012 12.3354 4.01483 12.9801 4.81012 12.9801Z" fill="#96420C"/>
<path d="M1.44 12.9801C2.23529 12.9801 2.88 12.3354 2.88 11.5401C2.88 10.7448 2.23529 10.1001 1.44 10.1001C0.64471 10.1001 0 10.7448 0 11.5401C0 12.3354 0.64471 12.9801 1.44 12.9801Z" fill="#7A2005"/>
<path d="M18.2701 9.60998C19.0654 9.60998 19.7101 8.96527 19.7101 8.16998C19.7101 7.37469 19.0654 6.72998 18.2701 6.72998C17.4748 6.72998 16.8301 7.37469 16.8301 8.16998C16.8301 8.96527 17.4748 9.60998 18.2701 9.60998Z" fill="#C88E4E"/>
<path d="M14.9 9.60998C15.6953 9.60998 16.34 8.96527 16.34 8.16998C16.34 7.37469 15.6953 6.72998 14.9 6.72998C14.1047 6.72998 13.46 7.37469 13.46 8.16998C13.46 8.96527 14.1047 9.60998 14.9 9.60998Z" fill="#C88E4E"/>
<path d="M8.16998 9.60998C8.96527 9.60998 9.60998 8.96527 9.60998 8.16998C9.60998 7.37469 8.96527 6.72998 8.16998 6.72998C7.37469 6.72998 6.72998 7.37469 6.72998 8.16998C6.72998 8.96527 7.37469 9.60998 8.16998 9.60998Z" fill="#C86F07"/>
<path d="M4.81012 9.60998C5.60541 9.60998 6.25012 8.96527 6.25012 8.16998C6.25012 7.37469 5.60541 6.72998 4.81012 6.72998C4.01483 6.72998 3.37012 7.37469 3.37012 8.16998C3.37012 8.96527 4.01483 9.60998 4.81012 9.60998Z" fill="#96420C"/>
<path d="M1.44 9.60998C2.23529 9.60998 2.88 8.96527 2.88 8.16998C2.88 7.37469 2.23529 6.72998 1.44 6.72998C0.64471 6.72998 0 7.37469 0 8.16998C0 8.96527 0.64471 9.60998 1.44 9.60998Z" fill="#7A2005"/>
<path d="M14.9 6.25012C15.6953 6.25012 16.34 5.60541 16.34 4.81012C16.34 4.01483 15.6953 3.37012 14.9 3.37012C14.1047 3.37012 13.46 4.01483 13.46 4.81012C13.46 5.60541 14.1047 6.25012 14.9 6.25012Z" fill="#C86F07"/>
<path d="M8.16998 6.25012C8.96527 6.25012 9.60998 5.60541 9.60998 4.81012C9.60998 4.01483 8.96527 3.37012 8.16998 3.37012C7.37469 3.37012 6.72998 4.01483 6.72998 4.81012C6.72998 5.60541 7.37469 6.25012 8.16998 6.25012Z" fill="#C86F07"/>
<path d="M4.81012 6.25012C5.60541 6.25012 6.25012 5.60541 6.25012 4.81012C6.25012 4.01483 5.60541 3.37012 4.81012 3.37012C4.01483 3.37012 3.37012 4.01483 3.37012 4.81012C3.37012 5.60541 4.01483 6.25012 4.81012 6.25012Z" fill="#96420C"/>
<path d="M1.44 6.25012C2.23529 6.25012 2.88 5.60541 2.88 4.81012C2.88 4.01483 2.23529 3.37012 1.44 3.37012C0.64471 3.37012 0 4.01483 0 4.81012C0 5.60541 0.64471 6.25012 1.44 6.25012Z" fill="#96420C"/>
<path d="M8.16998 2.88C8.96527 2.88 9.60998 2.23529 9.60998 1.44C9.60998 0.64471 8.96527 0 8.16998 0C7.37469 0 6.72998 0.64471 6.72998 1.44C6.72998 2.23529 7.37469 2.88 8.16998 2.88Z" fill="#C86F07"/>
<path d="M4.81012 2.88C5.60541 2.88 6.25012 2.23529 6.25012 1.44C6.25012 0.64471 5.60541 0 4.81012 0C4.01483 0 3.37012 0.64471 3.37012 1.44C3.37012 2.23529 4.01483 2.88 4.81012 2.88Z" fill="#96420C"/>
<path d="M1.44 2.88C2.23529 2.88 2.88 2.23529 2.88 1.44C2.88 0.64471 2.23529 0 1.44 0C0.64471 0 0 0.64471 0 1.44C0 2.23529 0.64471 2.88 1.44 2.88Z" fill="#96420C"/>
</g>
<defs>
<clipPath id="clip0_249_23539">
<rect width="50" height="50" fill="white"/>
</clipPath>
</defs>
</svg>
